<svg width="138" height="131" viewBox="0 0 138 131" fill="none" xmlns="http://www.w3.org/2000/svg">
<mask id="path-1-inside-1_180_281" fill="white">
<path d="M82.7801 90.7814C86.8318 87.634 89.7953 83.6768 91.6704 78.9097H46.2912C48.1664 83.6768 51.1222 87.6366 55.1586 90.7891C59.195 93.9313 63.7935 95.5025 68.954 95.5025C74.1247 95.5025 78.736 93.9288 82.7877 90.7814M58.8527 65.8884C60.4979 64.2176 61.3206 62.1892 61.3206 59.8031C61.3206 57.417 60.4852 55.4013 58.8144 53.7561C57.1436 52.1108 55.1177 51.2882 52.7367 51.2882C50.3558 51.2882 48.3401 52.1236 46.6898 53.7944C45.0394 55.4652 44.2168 57.4911 44.2219 59.872C44.227 62.253 45.0624 64.2687 46.7281 65.919C48.3938 67.5694 50.4196 68.392 52.8057 68.3869C55.1918 68.3818 57.2075 67.5489 58.8527 65.8884ZM91.2719 65.8884C92.9222 64.2176 93.7474 62.1892 93.7474 59.8031C93.7474 57.4221 92.912 55.409 91.2412 53.7637C89.5705 52.1134 87.5446 51.2882 85.1636 51.2882C82.7775 51.2882 80.7619 52.1236 79.1166 53.7944C77.4714 55.4652 76.6488 57.4911 76.6488 59.872C76.6488 62.253 77.4842 64.2687 79.1549 65.919C80.8257 67.5694 82.8516 68.392 85.2326 68.3869C87.6136 68.3818 89.6216 67.5489 91.2719 65.8884ZM39.2786 31.3615L59.2666 4.76708C60.4826 3.12185 61.9286 1.91603 63.6045 1.14962C65.2803 0.383206 67.0712 0 68.977 0C70.8828 0 72.6737 0.383206 74.3495 1.14962C76.0254 1.91603 77.4714 3.11929 78.6874 4.75941L98.6754 31.3615L129.485 41.846C132.214 42.7657 134.314 44.3113 135.785 46.4828C137.262 48.6594 138 51.0609 138 53.6871C138 54.898 137.821 56.1013 137.464 57.2969C137.106 58.4925 136.523 59.6396 135.716 60.7381L115.521 88.122L116.288 117.475C116.415 121.083 115.225 124.12 112.716 126.588C110.207 129.056 107.287 130.29 103.956 130.29L100.477 129.861L68.977 120.579L37.4775 129.861C36.8439 130.116 36.2308 130.252 35.6381 130.267C35.0403 130.282 34.4936 130.29 33.998 130.29C30.6002 130.29 27.6623 129.056 25.1843 126.588C22.7062 124.12 21.5336 121.085 21.6664 117.483L22.4329 87.9303L2.28391 60.7381C1.47151 59.6293 0.886482 58.4721 0.528824 57.2662C0.176275 56.0604 0 54.8546 0 53.6488C0 51.0634 0.758747 48.6569 2.27624 46.4292C3.78863 44.2066 5.90392 42.6278 8.62213 41.6928L39.2786 31.3615Z"/>
</mask>
<path d="M82.7801 90.7814C86.8318 87.634 89.7953 83.6768 91.6704 78.9097H46.2912C48.1664 83.6768 51.1222 87.6366 55.1586 90.7891C59.195 93.9313 63.7935 95.5025 68.954 95.5025C74.1247 95.5025 78.736 93.9288 82.7877 90.7814M58.8527 65.8884C60.4979 64.2176 61.3206 62.1892 61.3206 59.8031C61.3206 57.417 60.4852 55.4013 58.8144 53.7561C57.1436 52.1108 55.1177 51.2882 52.7367 51.2882C50.3558 51.2882 48.3401 52.1236 46.6898 53.7944C45.0394 55.4652 44.2168 57.4911 44.2219 59.872C44.227 62.253 45.0624 64.2687 46.7281 65.919C48.3938 67.5694 50.4196 68.392 52.8057 68.3869C55.1918 68.3818 57.2075 67.5489 58.8527 65.8884ZM91.2719 65.8884C92.9222 64.2176 93.7474 62.1892 93.7474 59.8031C93.7474 57.4221 92.912 55.409 91.2412 53.7637C89.5705 52.1134 87.5446 51.2882 85.1636 51.2882C82.7775 51.2882 80.7619 52.1236 79.1166 53.7944C77.4714 55.4652 76.6488 57.4911 76.6488 59.872C76.6488 62.253 77.4842 64.2687 79.1549 65.919C80.8257 67.5694 82.8516 68.392 85.2326 68.3869C87.6136 68.3818 89.6216 67.5489 91.2719 65.8884ZM39.2786 31.3615L59.2666 4.76708C60.4826 3.12185 61.9286 1.91603 63.6045 1.14962C65.2803 0.383206 67.0712 0 68.977 0C70.8828 0 72.6737 0.383206 74.3495 1.14962C76.0254 1.91603 77.4714 3.11929 78.6874 4.75941L98.6754 31.3615L129.485 41.846C132.214 42.7657 134.314 44.3113 135.785 46.4828C137.262 48.6594 138 51.0609 138 53.6871C138 54.898 137.821 56.1013 137.464 57.2969C137.106 58.4925 136.523 59.6396 135.716 60.7381L115.521 88.122L116.288 117.475C116.415 121.083 115.225 124.12 112.716 126.588C110.207 129.056 107.287 130.29 103.956 130.29L100.477 129.861L68.977 120.579L37.4775 129.861C36.8439 130.116 36.2308 130.252 35.6381 130.267C35.0403 130.282 34.4936 130.29 33.998 130.29C30.6002 130.29 27.6623 129.056 25.1843 126.588C22.7062 124.12 21.5336 121.085 21.6664 117.483L22.4329 87.9303L2.28391 60.7381C1.47151 59.6293 0.886482 58.4721 0.528824 57.2662C0.176275 56.0604 0 54.8546 0 53.6488C0 51.0634 0.758747 48.6569 2.27624 46.4292C3.78863 44.2066 5.90392 42.6278 8.62213 41.6928L39.2786 31.3615Z" fill="url(#paint0_linear_180_281)"/>
<path d="M91.6704 78.9097L91.8566 78.9829L91.964 78.7097H91.6704V78.9097ZM46.2912 78.9097V78.7097H45.9976L46.1051 78.9829L46.2912 78.9097ZM55.1586 90.7891L55.0355 90.9467L55.0358 90.9469L55.1586 90.7891ZM58.8527 65.8884L58.9948 66.0291L58.9952 66.0287L58.8527 65.8884ZM91.2719 65.8884L91.4138 66.0294L91.4142 66.0289L91.2719 65.8884ZM91.2412 53.7637L91.1007 53.906L91.1009 53.9062L91.2412 53.7637ZM39.2786 31.3615L39.3424 31.5511L39.4012 31.5313L39.4384 31.4817L39.2786 31.3615ZM59.2666 4.76708L59.4265 4.88724L59.4274 4.88596L59.2666 4.76708ZM78.6874 4.75941L78.5268 4.87853L78.5275 4.87955L78.6874 4.75941ZM98.6754 31.3615L98.5155 31.4817L98.5526 31.531L98.611 31.5509L98.6754 31.3615ZM129.485 41.846L129.421 42.0354L129.421 42.0356L129.485 41.846ZM135.785 46.4828L135.619 46.595L135.62 46.5951L135.785 46.4828ZM135.716 60.7381L135.877 60.8568L135.877 60.8565L135.716 60.7381ZM115.521 88.1219L115.36 88.0032L115.319 88.0585L115.321 88.1272L115.521 88.1219ZM116.288 117.475L116.088 117.481L116.088 117.483L116.288 117.475ZM103.956 130.29L103.932 130.488L103.944 130.49H103.956V130.29ZM100.477 129.861L100.42 130.053L100.436 130.057L100.452 130.059L100.477 129.861ZM68.977 120.579L69.0335 120.388L68.977 120.371L68.9205 120.388L68.977 120.579ZM37.4775 129.861L37.421 129.669L37.4117 129.672L37.4027 129.675L37.4775 129.861ZM35.6381 130.267L35.6432 130.467H35.6433L35.6381 130.267ZM21.6664 117.483L21.8663 117.491L21.8664 117.488L21.6664 117.483ZM22.4329 87.9303L22.6328 87.9355L22.6346 87.8666L22.5935 87.8113L22.4329 87.9303ZM2.28391 60.7381L2.12258 60.8563L2.12321 60.8572L2.28391 60.7381ZM0.528824 57.2662L0.336859 57.3224L0.337081 57.3231L0.528824 57.2662ZM2.27624 46.4292L2.44153 46.5418L2.44159 46.5417L2.27624 46.4292ZM8.62213 41.6928L8.55825 41.5032L8.55707 41.5036L8.62213 41.6928ZM82.7801 90.7814L82.9028 90.9393C86.9828 87.77 89.9682 83.7835 91.8566 78.9829L91.6704 78.9097L91.4843 78.8365C89.6223 83.5701 86.6808 87.4981 82.6574 90.6235L82.7801 90.7814ZM91.6704 78.9097V78.7097H46.2912V78.9097V79.1097H91.6704V78.9097ZM46.2912 78.9097L46.1051 78.9829C47.9933 83.7832 50.9709 87.7722 55.0355 90.9467L55.1586 90.7891L55.2817 90.6314C51.2735 87.5009 48.3394 83.5703 46.4774 78.8365L46.2912 78.9097ZM55.1586 90.7891L55.0358 90.9469C59.1076 94.1168 63.7494 95.7025 68.954 95.7025V95.5025V95.3025C63.8376 95.3025 59.2824 93.7459 55.2815 90.6312L55.1586 90.7891ZM68.954 95.5025V95.7025C74.1688 95.7025 78.8233 94.1142 82.9104 90.9393L82.7877 90.7814L82.665 90.6235C78.6487 93.7434 74.0807 95.3025 68.954 95.3025V95.5025ZM58.8527 65.8884L58.9952 66.0287C60.678 64.3198 61.5206 62.2406 61.5206 59.8031H61.3206H61.1206C61.1206 62.1377 60.3179 64.1154 58.7102 65.748L58.8527 65.8884ZM61.3206 59.8031H61.5206C61.5206 57.3645 60.6644 55.2971 58.9547 53.6136L58.8144 53.7561L58.6741 53.8986C60.3059 55.5055 61.1206 57.4695 61.1206 59.8031H61.3206ZM58.8144 53.7561L58.9547 53.6136C57.2459 51.9309 55.1693 51.0882 52.7367 51.0882V51.2882V51.4882C55.0661 51.4882 57.0413 52.2908 58.6741 53.8986L58.8144 53.7561ZM52.7367 51.2882V51.0882C50.3031 51.0882 48.236 51.9444 46.5475 53.6538L46.6898 53.7944L46.8321 53.9349C48.4442 52.3028 50.4084 51.4882 52.7367 51.4882V51.2882ZM46.6898 53.7944L46.5475 53.6538C44.8595 55.3627 44.0167 57.4395 44.0219 59.8725L44.2219 59.872L44.4219 59.8716C44.4169 57.5426 45.2194 55.5676 46.8321 53.9349L46.6898 53.7944ZM44.2219 59.872L44.0219 59.8725C44.0271 62.3057 44.8832 64.3727 46.5873 66.0611L46.7281 65.919L46.8689 65.7769C45.2416 64.1647 44.4269 62.2003 44.4219 59.8716L44.2219 59.872ZM46.7281 65.919L46.5873 66.0611C48.2913 67.7494 50.3682 68.5921 52.8062 68.5869L52.8057 68.3869L52.8053 68.1869C50.471 68.1919 48.4962 67.3893 46.8689 65.7769L46.7281 65.919ZM52.8057 68.3869L52.8062 68.5869C55.2442 68.5816 57.3112 67.7284 58.9948 66.0291L58.8527 65.8884L58.7106 65.7476C57.1037 67.3695 55.1394 68.1819 52.8053 68.1869L52.8057 68.3869ZM91.2719 65.8884L91.4142 66.0289C93.1022 64.32 93.9474 62.2408 93.9474 59.8031H93.7474H93.5474C93.5474 62.1375 92.7423 64.1151 91.1296 65.7478L91.2719 65.8884ZM93.7474 59.8031H93.9474C93.9474 57.3694 93.0912 55.3047 91.3816 53.6212L91.2412 53.7637L91.1009 53.9062C92.7329 55.5132 93.5474 57.4747 93.5474 59.8031H93.7474ZM91.2412 53.7637L91.3818 53.6215C89.673 51.9336 87.5964 51.0882 85.1636 51.0882V51.2882V51.4882C87.4928 51.4882 89.4679 52.2932 91.1007 53.906L91.2412 53.7637ZM85.1636 51.2882V51.0882C82.725 51.0882 80.6577 51.9444 78.9741 53.6541L79.1166 53.7944L79.2591 53.9347C80.866 52.3029 82.83 51.4882 85.1636 51.4882V51.2882ZM79.1166 53.7944L78.9741 53.6541C77.2914 55.3629 76.4488 57.4395 76.4488 59.872H76.6488H76.8488C76.8488 57.5427 77.6514 55.5674 79.2591 53.9347L79.1166 53.7944ZM76.6488 59.872H76.4488C76.4488 62.3057 77.305 64.3728 79.0144 66.0613L79.1549 65.919L79.2955 65.7767C77.6633 64.1646 76.8488 62.2004 76.8488 59.872H76.6488ZM79.1549 65.919L79.0144 66.0613C80.7233 67.7493 82.8001 68.5921 85.233 68.5869L85.2326 68.3869L85.2322 68.1869C82.9031 68.1919 80.9282 67.3894 79.2955 65.7767L79.1549 65.919ZM85.2326 68.3869L85.233 68.5869C87.6663 68.5816 89.7254 67.7281 91.4138 66.0294L91.2719 65.8884L91.1301 65.7474C89.5177 67.3697 87.5609 68.1819 85.2322 68.1869L85.2326 68.3869ZM39.2786 31.3615L39.4384 31.4817L59.4265 4.88724L59.2666 4.76708L59.1067 4.64691L39.1187 31.2414L39.2786 31.3615ZM59.2666 4.76708L59.4274 4.88596C60.6256 3.2649 62.0458 2.08232 63.6876 1.3315L63.6045 1.14962L63.5213 0.967734C61.8113 1.74974 60.3396 2.97879 59.1057 4.6482L59.2666 4.76708ZM63.6045 1.14962L63.6876 1.3315C65.3365 0.577439 67.0989 0.2 68.977 0.2V0V-0.2C67.0435 -0.2 65.2242 0.188973 63.5213 0.967734L63.6045 1.14962ZM68.977 0V0.2C70.8551 0.2 72.6175 0.577439 74.2664 1.3315L74.3495 1.14962L74.4327 0.967734C72.7298 0.188973 70.9105 -0.2 68.977 -0.2V0ZM74.3495 1.14962L74.2664 1.3315C75.9083 2.0824 77.3286 3.26255 78.5268 4.87853L78.6874 4.75941L78.8481 4.6403C77.6142 2.97604 76.1425 1.74966 74.4327 0.967734L74.3495 1.14962ZM78.6874 4.75941L78.5275 4.87955L98.5155 31.4817L98.6754 31.3615L98.8353 31.2414L78.8473 4.63927L78.6874 4.75941ZM98.6754 31.3615L98.611 31.5509L129.421 42.0354L129.485 41.846L129.55 41.6567L98.7399 31.1722L98.6754 31.3615ZM129.485 41.846L129.421 42.0356C132.113 42.9427 134.175 44.4633 135.619 46.595L135.785 46.4828L135.951 46.3706C134.452 44.1594 132.315 42.5887 129.549 41.6565L129.485 41.846ZM135.785 46.4828L135.62 46.5951C137.074 48.7386 137.8 51.101 137.8 53.6871H138H138.2C138.2 51.0208 137.45 48.5802 135.951 46.3705L135.785 46.4828ZM138 53.6871H137.8C137.8 54.878 137.624 56.062 137.272 57.2396L137.464 57.2969L137.655 57.3542C138.018 56.1406 138.2 54.918 138.2 53.6871H138ZM137.464 57.2969L137.272 57.2396C136.921 58.4113 136.35 59.5379 135.555 60.6196L135.716 60.7381L135.877 60.8565C136.697 59.7412 137.29 58.5737 137.655 57.3542L137.464 57.2969ZM135.716 60.7381L135.555 60.6194L115.36 88.0032L115.521 88.1219L115.682 88.2407L135.877 60.8568L135.716 60.7381ZM115.521 88.1219L115.321 88.1272L116.088 117.481L116.288 117.475L116.488 117.47L115.721 88.1167L115.521 88.1219ZM116.288 117.475L116.088 117.483C116.214 121.035 115.043 124.018 112.576 126.446L112.716 126.588L112.856 126.731C115.406 124.222 116.617 121.13 116.487 117.468L116.288 117.475ZM112.716 126.588L112.576 126.446C110.102 128.879 107.232 130.09 103.956 130.09V130.29V130.49C107.343 130.49 110.313 129.233 112.856 126.731L112.716 126.588ZM103.956 130.29L103.98 130.091L100.501 129.662L100.477 129.861L100.452 130.059L103.932 130.488L103.956 130.29ZM100.477 129.861L100.533 129.669L69.0335 120.388L68.977 120.579L68.9205 120.771L100.42 130.053L100.477 129.861ZM68.977 120.579L68.9205 120.388L37.421 129.669L37.4775 129.861L37.534 130.053L69.0335 120.771L68.977 120.579ZM37.4775 129.861L37.4027 129.675C36.788 129.923 36.1984 130.052 35.6329 130.067L35.6381 130.267L35.6433 130.467C36.2632 130.451 36.8999 130.309 37.5523 130.046L37.4775 129.861ZM35.6381 130.267L35.633 130.067C35.0366 130.082 34.4916 130.09 33.998 130.09V130.29V130.49C34.4956 130.49 35.0441 130.482 35.6432 130.467L35.6381 130.267ZM33.998 130.29V130.09C30.6549 130.09 27.7672 128.878 25.3254 126.446L25.1843 126.588L25.0431 126.73C27.5575 129.234 30.5456 130.49 33.998 130.49V130.29ZM25.1843 126.588L25.3254 126.446C22.8882 124.019 21.7354 121.039 21.8663 117.491L21.6664 117.483L21.4666 117.476C21.3318 121.132 22.5242 124.221 25.0431 126.73L25.1843 126.588ZM21.6664 117.483L21.8664 117.488L22.6328 87.9355L22.4329 87.9303L22.2329 87.9252L21.4665 117.478L21.6664 117.483ZM22.4329 87.9303L22.5935 87.8113L2.4446 60.619L2.28391 60.7381L2.12321 60.8572L22.2722 88.0494L22.4329 87.9303ZM2.28391 60.7381L2.44523 60.6199C1.64517 59.528 1.07111 58.3912 0.720567 57.2094L0.528824 57.2662L0.337081 57.3231C0.701857 58.5529 1.29785 59.7307 2.12258 60.8563L2.28391 60.7381ZM0.528824 57.2662L0.720787 57.2101C0.373344 56.0218 0.2 54.8348 0.2 53.6488H0H-0.2C-0.2 54.8744 -0.0207952 56.0991 0.33686 57.3224L0.528824 57.2662ZM0 53.6488H0.2C0.2 51.1054 0.945633 48.7378 2.44153 46.5418L2.27624 46.4292L2.11095 46.3166C0.57186 48.576 -0.2 51.0215 -0.2 53.6488H0ZM2.27624 46.4292L2.44159 46.5417C3.92796 44.3573 6.00679 42.8039 8.68718 41.8819L8.62213 41.6928L8.55707 41.5036C5.80105 42.4517 3.64929 44.0558 2.11089 46.3167L2.27624 46.4292ZM8.62213 41.6928L8.686 41.8823L39.3424 31.5511L39.2786 31.3615L39.2147 31.172L8.55826 41.5032L8.62213 41.6928Z" fill="url(#paint1_linear_180_281)" mask="url(#path-1-inside-1_180_281)"/>
<defs>
<linearGradient id="paint0_linear_180_281" x1="69" y1="0" x2="69" y2="130.29" gradientUnits="userSpaceOnUse">
<stop stop-color="white"/>
<stop offset="1" stop-color="white" stop-opacity="0.3"/>
</linearGradient>
<linearGradient id="paint1_linear_180_281" x1="69" y1="0" x2="69" y2="130.29" gradientUnits="userSpaceOnUse">
<stop stop-color="white" stop-opacity="0.3"/>
<stop offset="1" stop-color="white" stop-opacity="0"/>
</linearGradient>
</defs>
</svg>
