<svg width="138" height="184" viewBox="0 0 138 184" fill="none" xmlns="http://www.w3.org/2000/svg">
<path d="M68.998 0.150391C80.1912 0.150391 90.0919 6.10082 98.6543 15.4756C107.217 24.8503 114.427 37.6355 120.236 51.2686C131.855 78.5378 137.849 109.156 137.85 122.552C137.849 156.393 107.043 183.85 68.998 183.85C30.9532 183.85 0.14878 156.393 0.150391 122.552C0.150391 107.301 5.54853 76.6822 16.8682 49.8789C22.5276 36.4782 29.6636 24.0416 38.3359 14.957C47.0072 5.8736 57.2054 0.15042 68.998 0.150391ZM49.416 50.0488C46.0842 50.0489 43.0607 50.7778 40.8652 51.9639C38.6758 53.1467 37.2754 54.806 37.2754 56.6758C37.2754 57.5945 37.6174 59.2322 38.2246 61.1592C38.8335 63.0913 39.7147 65.3304 40.8037 67.458C41.8922 69.5846 43.1917 71.607 44.6406 73.0996C46.0874 74.59 47.7013 75.5712 49.416 75.5713C51.1327 75.5713 52.7494 74.5902 54.1982 73.0996C55.649 71.607 56.95 69.5845 58.04 67.458C59.1306 65.3304 60.0132 63.0913 60.623 61.1592C61.2313 59.2322 61.5742 57.5945 61.5742 56.6758C61.5742 54.8058 60.1711 53.1467 57.9785 51.9639C55.7799 50.7779 52.7524 50.0488 49.416 50.0488ZM88.582 50.0488C85.2464 50.0488 82.2178 50.7778 80.0186 51.9639C77.8255 53.1466 76.4219 54.8059 76.4219 56.6758C76.4219 57.5945 76.7648 59.2322 77.373 61.1592C77.983 63.0913 78.8653 65.3304 79.9561 67.458C81.0462 69.5846 82.3477 71.607 83.7988 73.0996C85.2479 74.5902 86.8649 75.5713 88.582 75.5713C90.2958 75.5712 91.9093 74.5899 93.3564 73.0996C94.8058 71.6069 96.1069 69.5847 97.1963 67.458C98.2862 65.3304 99.1676 63.0913 99.7773 61.1592C100.385 59.2322 100.728 57.5945 100.729 56.6758C100.729 54.8059 99.3259 53.1466 97.1348 51.9639C94.9376 50.7779 91.913 50.0489 88.582 50.0488Z" fill="url(#paint0_linear_180_280)" stroke="url(#paint1_linear_180_280)" stroke-width="0.3"/>
<defs>
<linearGradient id="paint0_linear_180_280" x1="18.628" y1="36.8" x2="122.62" y2="166.853" gradientUnits="userSpaceOnUse">
<stop stop-color="white"/>
<stop offset="1" stop-color="white" stop-opacity="0.2"/>
</linearGradient>
<linearGradient id="paint1_linear_180_280" x1="136.605" y1="165.6" x2="14.2198" y2="16.9174" gradientUnits="userSpaceOnUse">
<stop stop-color="white" stop-opacity="0.3"/>
<stop offset="1" stop-color="white" stop-opacity="0"/>
</linearGradient>
</defs>
</svg>
