<svg width="632" height="706" viewBox="0 0 632 706" fill="none" xmlns="http://www.w3.org/2000/svg">
<mask id="mask0_110_3" style="mask-type:alpha" maskUnits="userSpaceOnUse" x="0" y="0" width="632" height="706">
<path d="M2.92328 72.2403C2.92328 72.2403 -17.8632 275.518 51.4216 434.019C110.89 570.063 318.452 706 318.452 706C318.452 706 526.011 560.584 581.438 434.019C657.411 260.538 625.232 69.3428 625.232 69.3428C625.232 69.3428 521.97 62.2446 465.966 49.1234C409.962 36.0022 310.656 0 310.656 0C310.656 0 244.26 27.1623 157.656 50.8571C86.063 72.2403 2.92328 72.2403 2.92328 72.2403Z" fill="white"/>
</mask>
<g mask="url(#mask0_110_3)">
<g style="mix-blend-mode:lighten" filter="url(#filter0_diii_110_3)">
<path d="M2.92328 72.2403C2.92328 72.2403 -17.8632 275.518 51.4216 434.019C110.89 570.063 318.452 706 318.452 706C318.452 706 526.011 560.584 581.438 434.019C657.411 260.538 625.232 69.3428 625.232 69.3428C625.232 69.3428 521.97 62.2446 465.966 49.1234C409.962 36.0022 310.656 0 310.656 0C310.656 0 244.26 27.1623 157.656 50.8571C86.063 72.2403 2.92328 72.2403 2.92328 72.2403Z" fill="black"/>
<path d="M310.752 0.629883C310.942 0.698469 311.225 0.801055 311.596 0.93457C312.337 1.20158 313.431 1.59458 314.844 2.09961C317.669 3.10997 321.769 4.56792 326.862 6.3584C337.049 9.9393 351.215 14.8505 367.132 20.1719C398.959 30.8128 437.808 43.1019 465.838 49.6689C493.877 56.2383 533.725 61.2961 566.542 64.7109C582.955 66.4188 597.617 67.7162 608.176 68.5869C613.455 69.0223 617.709 69.3505 620.644 69.5703C622.111 69.6802 623.248 69.7631 624.019 69.8184C624.319 69.8399 624.563 69.857 624.75 69.8701C624.756 69.906 624.762 69.9441 624.769 69.9844C624.827 70.3498 624.913 70.8957 625.021 71.6152C625.238 73.0546 625.546 75.19 625.911 77.9697C626.642 83.5294 627.601 91.6684 628.515 101.978C630.343 122.596 631.99 151.896 631.265 186.614C629.814 256.056 618.871 347.145 580.925 433.795C553.265 496.955 487.604 564.88 428.788 617.053C399.391 643.129 371.725 665.253 351.408 680.857C341.25 688.659 332.929 694.831 327.148 699.052C324.258 701.162 322.003 702.786 320.471 703.881C319.705 704.428 319.119 704.844 318.726 705.122C318.616 705.2 318.521 705.266 318.441 705.322C318.363 705.271 318.271 705.209 318.164 705.139C317.77 704.878 317.184 704.488 316.418 703.975C314.885 702.947 312.628 701.422 309.734 699.432C303.946 695.452 295.61 689.613 285.421 682.182C265.042 667.318 237.25 646.084 207.603 620.602C148.287 569.619 81.6145 501.693 51.9346 433.795C17.3313 354.634 5.21249 264.266 1.75 193.664C0.0190154 158.368 0.451771 128.023 1.31738 106.502C1.75019 95.7418 2.29099 87.1875 2.72363 81.3252C2.93994 78.3943 3.12956 76.1362 3.26465 74.6113C3.33218 73.8491 3.38576 73.27 3.42285 72.8818C3.42562 72.8529 3.42809 72.8247 3.43066 72.7979C3.55705 72.7971 3.70662 72.7964 3.87891 72.7949C4.50693 72.7897 5.43718 72.7797 6.64551 72.7588C9.06214 72.717 12.5933 72.633 17.0537 72.4658C25.9746 72.1314 38.614 71.4624 53.4922 70.125C83.2407 67.4508 121.959 62.1006 157.803 51.3965L157.804 51.3975C201.122 39.5455 239.386 26.8261 266.82 17.0703C280.537 12.1924 291.548 8.05492 299.13 5.13672C302.921 3.67766 305.854 2.52309 307.841 1.7334C308.834 1.33859 309.59 1.03514 310.099 0.830078C310.349 0.729047 310.539 0.651869 310.668 0.599609C310.694 0.608865 310.722 0.618909 310.752 0.629883Z" stroke="url(#paint0_linear_110_3)" stroke-width="1.12"/>
</g>
<g style="mix-blend-mode:lighten">
<g filter="url(#filter1_ii_110_3)">
<path d="M72.5995 142.259C72.5995 142.259 54.1153 323.079 115.726 464.068C168.608 585.082 353.18 706 353.18 706C353.18 706 537.751 576.65 587.038 464.068C654.596 309.753 625.982 139.682 625.982 139.682C625.982 139.682 534.157 133.368 484.356 121.696C434.555 110.025 346.248 78 346.248 78C346.248 78 287.206 102.161 210.194 123.238C146.531 142.259 72.5995 142.259 72.5995 142.259Z" fill="black"/>
</g>
<path d="M346.312 78.6191C346.481 78.6802 346.733 78.7709 347.062 78.8896C347.722 79.1272 348.695 79.4765 349.951 79.9258C352.464 80.8246 356.109 82.1221 360.639 83.7148C369.698 86.9002 382.295 91.2684 396.449 96.002C424.751 105.467 459.3 116.399 484.228 122.241C509.166 128.086 544.603 132.585 573.786 135.623C588.382 137.142 601.42 138.297 610.81 139.071C615.504 139.459 619.287 139.751 621.896 139.946C623.201 140.044 624.213 140.117 624.898 140.166C625.14 140.183 625.341 140.198 625.5 140.209C625.503 140.226 625.506 140.244 625.509 140.263C625.561 140.588 625.636 141.073 625.732 141.713C625.925 142.993 626.2 144.892 626.524 147.364C627.174 152.309 628.026 159.547 628.839 168.716C630.464 187.055 631.929 213.115 631.284 243.995C629.994 305.76 620.265 386.777 586.525 463.844C561.935 520.012 503.556 580.425 451.255 626.833C425.115 650.027 400.514 669.706 382.448 683.586C373.416 690.526 366.017 696.015 360.877 699.77C358.307 701.647 356.302 703.091 354.939 704.064C354.258 704.551 353.738 704.92 353.388 705.168C353.306 705.226 353.233 705.277 353.17 705.321C353.108 705.281 353.038 705.235 352.959 705.183C352.609 704.951 352.088 704.604 351.406 704.147C350.043 703.233 348.037 701.876 345.464 700.106C340.318 696.566 332.905 691.374 323.845 684.764C305.724 671.543 281.011 652.655 254.648 629.989C201.904 584.64 142.626 524.227 116.239 463.844C85.473 393.438 74.697 313.064 71.6182 250.266C70.079 218.871 70.4637 191.879 71.2334 172.737C71.6182 163.167 72.0997 155.56 72.4844 150.346C72.6767 147.739 72.8447 145.73 72.9648 144.374C73.0249 143.696 73.0725 143.18 73.1055 142.835C73.1061 142.829 73.1059 142.823 73.1064 142.816C73.2065 142.816 73.3213 142.816 73.4502 142.814C74.0088 142.81 74.8357 142.801 75.9102 142.782C78.0595 142.745 81.2 142.67 85.167 142.521C93.1007 142.224 104.342 141.629 117.573 140.439C144.032 138.06 178.471 133.3 210.354 123.774C248.871 113.232 282.894 101.921 307.288 93.2432C319.487 88.9039 329.278 85.2229 336.021 82.627C339.392 81.329 342.001 80.3021 343.768 79.5996C344.651 79.2484 345.323 78.9783 345.775 78.7959C345.984 78.7118 346.145 78.6458 346.259 78.5996C346.276 78.6057 346.294 78.6123 346.312 78.6191Z" stroke="#5D16F0" stroke-width="1.12"/>
</g>
<g style="mix-blend-mode:lighten">
<g filter="url(#filter2_ii_110_3)">
<path d="M159.197 229.334C159.197 229.334 143.574 382.224 195.648 501.437C240.343 603.759 396.343 706 396.343 706C396.343 706 552.341 596.629 593.998 501.437C651.098 370.957 626.913 227.154 626.913 227.154C626.913 227.154 549.303 221.816 507.212 211.947C465.12 202.078 390.484 175 390.484 175C390.484 175 340.581 195.429 275.491 213.251C221.683 229.334 159.197 229.334 159.197 229.334Z" fill="black"/>
</g>
<path d="M390.509 175.604C390.651 175.656 390.864 175.733 391.143 175.833C391.7 176.034 392.522 176.33 393.584 176.71C395.708 177.47 398.789 178.566 402.617 179.913C410.274 182.607 420.922 186.301 432.886 190.304C456.807 198.307 486.011 207.551 507.084 212.492C528.167 217.435 558.124 221.24 582.789 223.809C595.126 225.093 606.147 226.07 614.083 226.725C618.051 227.052 621.249 227.299 623.454 227.464C624.557 227.547 625.412 227.609 625.991 227.65C626.162 227.663 626.309 227.673 626.431 227.682C626.474 227.956 626.538 228.358 626.617 228.885C626.78 229.967 627.012 231.571 627.286 233.661C627.835 237.841 628.555 243.96 629.242 251.712C630.616 267.215 631.854 289.247 631.309 315.354C630.218 367.572 621.995 436.063 593.485 501.212C572.71 548.686 523.382 599.757 479.178 638.997C457.087 658.607 436.296 675.244 421.027 686.979C413.394 692.847 407.141 697.488 402.797 700.662C400.625 702.249 398.931 703.47 397.779 704.293C397.204 704.705 396.763 705.017 396.468 705.227C396.419 705.261 396.373 705.293 396.332 705.322C396.293 705.296 396.25 705.268 396.203 705.237C395.907 705.041 395.467 704.748 394.892 704.361C393.74 703.589 392.044 702.442 389.87 700.945C385.521 697.952 379.257 693.562 371.6 687.974C356.285 676.796 335.401 660.827 313.121 641.664C268.543 603.321 218.455 552.25 196.161 501.213C170.164 441.696 161.056 373.747 158.454 320.653C157.153 294.111 157.478 271.291 158.129 255.108C158.454 247.017 158.86 240.585 159.186 236.177C159.348 233.973 159.49 232.275 159.592 231.129C159.639 230.595 159.678 230.181 159.705 229.891C159.77 229.89 159.841 229.89 159.917 229.89C160.389 229.886 161.089 229.878 161.997 229.862C163.814 229.831 166.469 229.767 169.822 229.642C176.529 229.39 186.032 228.887 197.217 227.881C219.579 225.869 248.687 221.844 275.638 213.79L275.639 213.791C308.2 204.876 336.963 195.308 357.584 187.97C367.895 184.301 376.171 181.188 381.87 178.993C384.72 177.896 386.925 177.027 388.419 176.433C389.166 176.136 389.735 175.907 390.117 175.753C390.275 175.689 390.401 175.638 390.495 175.6C390.5 175.601 390.504 175.603 390.509 175.604Z" stroke="#CE06E9" stroke-width="1.12"/>
</g>
<g style="mix-blend-mode:lighten">
<g filter="url(#filter3_ii_110_3)">
<path d="M253.758 324.487C253.758 324.487 241.259 446.857 282.918 542.272C318.674 624.168 443.474 706 443.474 706C443.474 706 568.273 618.462 601.599 542.272C647.279 437.839 627.931 322.743 627.931 322.743C627.931 322.743 565.843 318.47 532.169 310.571C498.496 302.673 438.787 281 438.787 281C438.787 281 398.865 297.351 346.793 311.615C303.747 324.487 253.758 324.487 253.758 324.487Z" fill="black"/>
</g>
<path d="M439.275 281.772C439.721 281.933 440.38 282.169 441.229 282.474C442.929 283.082 445.394 283.96 448.457 285.038C454.583 287.194 463.101 290.151 472.673 293.354C491.81 299.76 515.178 307.16 532.042 311.116C548.916 315.074 572.887 318.121 592.619 320.177C602.49 321.205 611.307 321.986 617.657 322.51C620.832 322.772 623.391 322.97 625.155 323.103C626.037 323.169 626.721 323.219 627.185 323.252C627.282 323.259 627.37 323.264 627.447 323.27C627.481 323.484 627.528 323.776 627.583 324.145C627.713 325.01 627.898 326.294 628.117 327.966C628.556 331.31 629.133 336.206 629.683 342.408C630.781 354.814 631.771 372.444 631.335 393.334C630.463 435.12 623.886 489.922 601.086 542.048C584.476 580.021 545.03 620.883 509.667 652.289C491.997 667.982 475.366 681.296 463.153 690.688C457.047 695.383 452.046 699.098 448.571 701.638C446.834 702.908 445.478 703.884 444.558 704.543C444.097 704.872 443.746 705.123 443.51 705.29C443.494 705.301 443.478 705.311 443.464 705.321C443.451 705.313 443.438 705.305 443.425 705.296C443.188 705.139 442.836 704.905 442.376 704.596C441.455 703.978 440.099 703.06 438.359 701.862C434.881 699.467 429.871 695.954 423.746 691.482C411.496 682.538 394.791 669.758 376.97 654.423C341.309 623.735 301.256 582.872 283.432 542.048C262.641 494.43 255.357 440.061 253.275 397.572C252.235 376.332 252.495 358.071 253.016 345.121C253.276 338.646 253.6 333.499 253.86 329.973C253.99 328.21 254.104 326.851 254.186 325.935C254.218 325.565 254.246 325.268 254.267 325.044C254.288 325.044 254.311 325.044 254.334 325.044C254.712 325.041 255.272 325.035 255.999 325.022C257.453 324.997 259.578 324.946 262.262 324.846C267.629 324.644 275.233 324.242 284.184 323.437C302.076 321.826 325.37 318.603 346.939 312.154L346.94 312.155C372.993 305.019 396.006 297.361 412.505 291.486C420.754 288.549 427.376 286.058 431.937 284.301C434.217 283.422 435.982 282.727 437.177 282.251C437.774 282.013 438.229 281.83 438.535 281.706C438.641 281.663 438.729 281.628 438.799 281.6C438.912 281.641 439.071 281.699 439.275 281.772Z" stroke="#F60B4C" stroke-width="1.12"/>
</g>
<g style="mix-blend-mode:lighten">
<g filter="url(#filter4_ii_110_3)">
<path d="M333.388 405.278C333.388 405.278 323.521 501.735 356.409 576.944C384.638 641.497 483.164 706 483.164 706C483.164 706 581.689 637 607.999 576.944C644.062 494.626 628.787 403.903 628.787 403.903C628.787 403.903 579.77 400.535 553.186 394.309C526.602 388.083 479.463 371 479.463 371C479.463 371 447.946 383.889 406.837 395.132C372.853 405.278 333.388 405.278 333.388 405.278Z" fill="black"/>
</g>
<path d="M479.81 371.721C480.162 371.847 480.682 372.034 481.353 372.273C482.694 372.753 484.64 373.445 487.059 374.295C491.895 375.994 498.622 378.325 506.179 380.851C521.287 385.9 539.739 391.735 553.059 394.854C566.388 397.976 585.32 400.378 600.898 401.998C608.692 402.809 615.653 403.425 620.667 403.838C623.174 404.045 625.194 404.2 626.588 404.305C627.284 404.357 627.824 404.397 628.19 404.423C628.23 404.426 628.268 404.428 628.304 404.431C628.328 404.587 628.36 404.786 628.396 405.025C628.499 405.707 628.645 406.718 628.818 408.035C629.165 410.669 629.619 414.528 630.053 419.415C630.92 429.19 631.701 443.082 631.356 459.543C630.668 492.471 625.478 535.652 607.486 576.72C594.385 606.625 563.261 638.819 535.344 663.574C521.396 675.942 508.269 686.435 498.629 693.836C493.809 697.536 489.86 700.464 487.118 702.466C485.747 703.466 484.678 704.236 483.951 704.755C483.607 705.001 483.339 705.19 483.153 705.321C482.968 705.198 482.703 705.023 482.362 704.795C481.636 704.308 480.565 703.584 479.192 702.641C476.447 700.753 472.492 697.984 467.658 694.46C457.989 687.411 444.803 677.34 430.737 665.255C402.585 641.067 370.982 608.873 356.922 576.72C340.517 539.204 334.767 496.365 333.124 462.88C332.303 446.142 332.508 431.752 332.919 421.547C333.124 416.445 333.381 412.39 333.586 409.611C333.688 408.222 333.779 407.152 333.843 406.43C333.864 406.194 333.882 405.995 333.896 405.835C334.194 405.832 334.618 405.828 335.159 405.818C336.308 405.798 337.987 405.759 340.106 405.68C344.345 405.521 350.35 405.203 357.418 404.567C371.55 403.297 389.954 400.756 406.996 395.668C427.563 390.043 445.729 384.007 458.754 379.377C465.268 377.061 470.497 375.097 474.098 373.712C475.898 373.019 477.291 372.471 478.235 372.096C478.707 371.908 479.067 371.764 479.309 371.667C479.372 371.641 479.427 371.619 479.475 371.6C479.56 371.63 479.672 371.671 479.81 371.721Z" stroke="#F85F00" stroke-width="1.12"/>
</g>
<g style="mix-blend-mode:lighten">
<g filter="url(#filter5_ii_110_3)">
<path d="M399.045 458.785C399.045 458.785 391.612 531.344 416.388 587.919C437.654 636.479 511.877 685 511.877 685C511.877 685 586.099 633.095 605.919 587.919C633.087 525.997 621.58 457.751 621.58 457.751C621.58 457.751 584.654 455.218 564.627 450.534C544.6 445.851 509.089 433 509.089 433C509.089 433 485.346 442.695 454.377 451.153C428.776 458.785 399.045 458.785 399.045 458.785Z" fill="black"/>
</g>
<path d="M509.304 433.673C509.569 433.768 509.961 433.909 510.466 434.089C511.477 434.45 512.944 434.97 514.766 435.609C518.41 436.888 523.477 438.642 529.171 440.542C540.553 444.34 554.459 448.731 564.5 451.079C574.551 453.43 588.82 455.237 600.556 456.456C606.428 457.066 611.674 457.529 615.451 457.84C617.34 457.995 618.862 458.113 619.912 458.191C620.422 458.23 620.82 458.259 621.096 458.278C621.111 458.375 621.129 458.488 621.148 458.616C621.226 459.128 621.336 459.888 621.466 460.878C621.726 462.858 622.069 465.757 622.396 469.432C623.048 476.781 623.637 487.226 623.378 499.603C622.86 524.362 618.95 556.824 605.406 587.694C595.55 610.16 572.124 634.36 551.094 652.981C540.59 662.282 530.704 670.173 523.443 675.739C519.813 678.522 516.839 680.723 514.774 682.229C513.742 682.981 512.937 683.56 512.39 683.95C512.175 684.104 511.999 684.228 511.866 684.322C511.734 684.235 511.561 684.119 511.35 683.978C510.803 683.611 509.997 683.068 508.963 682.358C506.896 680.939 503.917 678.857 500.276 676.207C492.994 670.906 483.065 663.332 472.472 654.244C451.266 636.051 427.48 611.85 416.901 587.694C404.553 559.496 400.223 527.29 398.985 502.109C398.367 489.523 398.522 478.702 398.831 471.029C398.986 467.193 399.179 464.144 399.333 462.055C399.41 461.011 399.477 460.207 399.525 459.664C399.536 459.543 399.546 459.435 399.555 459.341C399.767 459.339 400.045 459.336 400.383 459.33C401.249 459.315 402.514 459.285 404.111 459.226C407.306 459.106 411.833 458.868 417.161 458.39C427.808 457.434 441.676 455.521 454.523 451.692L454.524 451.693C470.026 447.46 483.718 442.917 493.534 439.433C498.442 437.69 502.382 436.212 505.096 435.17C506.452 434.649 507.503 434.236 508.215 433.954C508.571 433.813 508.842 433.704 509.024 433.631C509.052 433.62 509.077 433.608 509.101 433.599C509.157 433.619 509.225 433.644 509.304 433.673Z" stroke="#FBAF00" stroke-width="1.12"/>
</g>
</g>
<defs>
<filter id="filter0_diii_110_3" x="0" y="-14" width="676" height="734" filterUnits="userSpaceOnUse" color-interpolation-filters="sRGB">
<feFlood flood-opacity="0" result="BackgroundImageFix"/>
<feColorMatrix in="SourceAlpha" type="matrix" values="0 0 0 0 0 0 0 0 0 0 0 0 0 0 0 0 0 0 127 0" result="hardAlpha"/>
<feOffset dx="30"/>
<feGaussianBlur stdDeviation="7"/>
<feComposite in2="hardAlpha" operator="out"/>
<feColorMatrix type="matrix" values="0 0 0 0 0.271635 0 0 0 0 0.684375 0 0 0 0 1 0 0 0 0.25 0"/>
<feBlend mode="normal" in2="BackgroundImageFix" result="effect1_dropShadow_110_3"/>
<feBlend mode="normal" in="SourceGraphic" in2="effect1_dropShadow_110_3" result="shape"/>
<feColorMatrix in="SourceAlpha" type="matrix" values="0 0 0 0 0 0 0 0 0 0 0 0 0 0 0 0 0 0 127 0" result="hardAlpha"/>
<feOffset dx="17.94" dy="4"/>
<feGaussianBlur stdDeviation="80.73"/>
<feComposite in2="hardAlpha" operator="arithmetic" k2="-1" k3="1"/>
<feColorMatrix type="matrix" values="0 0 0 0 0.780392 0 0 0 0 0.101961 0 0 0 0 1 0 0 0 1 0"/>
<feBlend mode="normal" in2="shape" result="effect2_innerShadow_110_3"/>
<feColorMatrix in="SourceAlpha" type="matrix" values="0 0 0 0 0 0 0 0 0 0 0 0 0 0 0 0 0 0 127 0" result="hardAlpha"/>
<feOffset dx="8.97" dy="4"/>
<feGaussianBlur stdDeviation="26.91"/>
<feComposite in2="hardAlpha" operator="arithmetic" k2="-1" k3="1"/>
<feColorMatrix type="matrix" values="0 0 0 0 0.262745 0 0 0 0 0.67451 0 0 0 0 1 0 0 0 1 0"/>
<feBlend mode="normal" in2="effect2_innerShadow_110_3" result="effect3_innerShadow_110_3"/>
<feColorMatrix in="SourceAlpha" type="matrix" values="0 0 0 0 0 0 0 0 0 0 0 0 0 0 0 0 0 0 127 0" result="hardAlpha"/>
<feOffset dx="4.48" dy="4"/>
<feGaussianBlur stdDeviation="2.24"/>
<feComposite in2="hardAlpha" operator="arithmetic" k2="-1" k3="1"/>
<feColorMatrix type="matrix" values="0 0 0 0 0.0941176 0 0 0 0 0.984314 0 0 0 0 1 0 0 0 1 0"/>
<feBlend mode="normal" in2="effect3_innerShadow_110_3" result="effect4_innerShadow_110_3"/>
</filter>
<filter id="filter1_ii_110_3" x="70" y="78" width="597.88" height="632" filterUnits="userSpaceOnUse" color-interpolation-filters="sRGB">
<feFlood flood-opacity="0" result="BackgroundImageFix"/>
<feBlend mode="normal" in="SourceGraphic" in2="BackgroundImageFix" result="shape"/>
<feColorMatrix in="SourceAlpha" type="matrix" values="0 0 0 0 0 0 0 0 0 0 0 0 0 0 0 0 0 0 127 0" result="hardAlpha"/>
<feOffset dx="35.88"/>
<feGaussianBlur stdDeviation="44.85"/>
<feComposite in2="hardAlpha" operator="arithmetic" k2="-1" k3="1"/>
<feColorMatrix type="matrix" values="0 0 0 0 0.34902 0 0 0 0 0.0627451 0 0 0 0 0.898039 0 0 0 1 0"/>
<feBlend mode="normal" in2="shape" result="effect1_innerShadow_110_3"/>
<feColorMatrix in="SourceAlpha" type="matrix" values="0 0 0 0 0 0 0 0 0 0 0 0 0 0 0 0 0 0 127 0" result="hardAlpha"/>
<feOffset dx="4.48" dy="4"/>
<feGaussianBlur stdDeviation="2.24"/>
<feComposite in2="hardAlpha" operator="arithmetic" k2="-1" k3="1"/>
<feColorMatrix type="matrix" values="0 0 0 0 0.486275 0 0 0 0 0.27451 0 0 0 0 0.996078 0 0 0 1 0"/>
<feBlend mode="normal" in2="effect1_innerShadow_110_3" result="effect2_innerShadow_110_3"/>
</filter>
<filter id="filter2_ii_110_3" x="157" y="175" width="510.88" height="535" filterUnits="userSpaceOnUse" color-interpolation-filters="sRGB">
<feFlood flood-opacity="0" result="BackgroundImageFix"/>
<feBlend mode="normal" in="SourceGraphic" in2="BackgroundImageFix" result="shape"/>
<feColorMatrix in="SourceAlpha" type="matrix" values="0 0 0 0 0 0 0 0 0 0 0 0 0 0 0 0 0 0 127 0" result="hardAlpha"/>
<feOffset dx="35.88"/>
<feGaussianBlur stdDeviation="44.85"/>
<feComposite in2="hardAlpha" operator="arithmetic" k2="-1" k3="1"/>
<feColorMatrix type="matrix" values="0 0 0 0 0.788235 0 0 0 0 0.0117647 0 0 0 0 0.87451 0 0 0 1 0"/>
<feBlend mode="normal" in2="shape" result="effect1_innerShadow_110_3"/>
<feColorMatrix in="SourceAlpha" type="matrix" values="0 0 0 0 0 0 0 0 0 0 0 0 0 0 0 0 0 0 127 0" result="hardAlpha"/>
<feOffset dx="4.48" dy="4"/>
<feGaussianBlur stdDeviation="2.24"/>
<feComposite in2="hardAlpha" operator="arithmetic" k2="-1" k3="1"/>
<feColorMatrix type="matrix" values="0 0 0 0 0.996078 0 0 0 0 0.0588235 0 0 0 0 0.996078 0 0 0 1 0"/>
<feBlend mode="normal" in2="effect1_innerShadow_110_3" result="effect2_innerShadow_110_3"/>
</filter>
<filter id="filter3_ii_110_3" x="252" y="281" width="415.88" height="429" filterUnits="userSpaceOnUse" color-interpolation-filters="sRGB">
<feFlood flood-opacity="0" result="BackgroundImageFix"/>
<feBlend mode="normal" in="SourceGraphic" in2="BackgroundImageFix" result="shape"/>
<feColorMatrix in="SourceAlpha" type="matrix" values="0 0 0 0 0 0 0 0 0 0 0 0 0 0 0 0 0 0 127 0" result="hardAlpha"/>
<feOffset dx="35.88"/>
<feGaussianBlur stdDeviation="44.85"/>
<feComposite in2="hardAlpha" operator="arithmetic" k2="-1" k3="1"/>
<feColorMatrix type="matrix" values="0 0 0 0 0.937255 0 0 0 0 0.0431373 0 0 0 0 0.27451 0 0 0 1 0"/>
<feBlend mode="normal" in2="shape" result="effect1_innerShadow_110_3"/>
<feColorMatrix in="SourceAlpha" type="matrix" values="0 0 0 0 0 0 0 0 0 0 0 0 0 0 0 0 0 0 127 0" result="hardAlpha"/>
<feOffset dx="4.48" dy="4"/>
<feGaussianBlur stdDeviation="2.24"/>
<feComposite in2="hardAlpha" operator="arithmetic" k2="-1" k3="1"/>
<feColorMatrix type="matrix" values="0 0 0 0 0.984314 0 0 0 0 0.0784314 0 0 0 0 0.290196 0 0 0 1 0"/>
<feBlend mode="normal" in2="effect1_innerShadow_110_3" result="effect2_innerShadow_110_3"/>
</filter>
<filter id="filter4_ii_110_3" x="332" y="371" width="335.88" height="339" filterUnits="userSpaceOnUse" color-interpolation-filters="sRGB">
<feFlood flood-opacity="0" result="BackgroundImageFix"/>
<feBlend mode="normal" in="SourceGraphic" in2="BackgroundImageFix" result="shape"/>
<feColorMatrix in="SourceAlpha" type="matrix" values="0 0 0 0 0 0 0 0 0 0 0 0 0 0 0 0 0 0 127 0" result="hardAlpha"/>
<feOffset dx="35.88"/>
<feGaussianBlur stdDeviation="44.85"/>
<feComposite in2="hardAlpha" operator="arithmetic" k2="-1" k3="1"/>
<feColorMatrix type="matrix" values="0 0 0 0 0.996078 0 0 0 0 0.403922 0 0 0 0 0.00392157 0 0 0 1 0"/>
<feBlend mode="normal" in2="shape" result="effect1_innerShadow_110_3"/>
<feColorMatrix in="SourceAlpha" type="matrix" values="0 0 0 0 0 0 0 0 0 0 0 0 0 0 0 0 0 0 127 0" result="hardAlpha"/>
<feOffset dx="4.48" dy="4"/>
<feGaussianBlur stdDeviation="2.24"/>
<feComposite in2="hardAlpha" operator="arithmetic" k2="-1" k3="1"/>
<feColorMatrix type="matrix" values="0 0 0 0 1 0 0 0 0 0.431373 0 0 0 0 0.0117647 0 0 0 1 0"/>
<feBlend mode="normal" in2="effect1_innerShadow_110_3" result="effect2_innerShadow_110_3"/>
</filter>
<filter id="filter5_ii_110_3" x="398" y="433" width="261.88" height="256" filterUnits="userSpaceOnUse" color-interpolation-filters="sRGB">
<feFlood flood-opacity="0" result="BackgroundImageFix"/>
<feBlend mode="normal" in="SourceGraphic" in2="BackgroundImageFix" result="shape"/>
<feColorMatrix in="SourceAlpha" type="matrix" values="0 0 0 0 0 0 0 0 0 0 0 0 0 0 0 0 0 0 127 0" result="hardAlpha"/>
<feOffset dx="35.88"/>
<feGaussianBlur stdDeviation="44.85"/>
<feComposite in2="hardAlpha" operator="arithmetic" k2="-1" k3="1"/>
<feColorMatrix type="matrix" values="0 0 0 0 0.984314 0 0 0 0 0.623529 0 0 0 0 0.00392157 0 0 0 1 0"/>
<feBlend mode="normal" in2="shape" result="effect1_innerShadow_110_3"/>
<feColorMatrix in="SourceAlpha" type="matrix" values="0 0 0 0 0 0 0 0 0 0 0 0 0 0 0 0 0 0 127 0" result="hardAlpha"/>
<feOffset dx="4.48" dy="4"/>
<feGaussianBlur stdDeviation="2.24"/>
<feComposite in2="hardAlpha" operator="arithmetic" k2="-1" k3="1"/>
<feColorMatrix type="matrix" values="0 0 0 0 0.996078 0 0 0 0 0.756863 0 0 0 0 0.0431373 0 0 0 1 0"/>
<feBlend mode="normal" in2="effect1_innerShadow_110_3" result="effect2_innerShadow_110_3"/>
</filter>
<linearGradient id="paint0_linear_110_3" x1="316" y1="0" x2="316" y2="706" gradientUnits="userSpaceOnUse">
<stop stop-color="#22F2FD"/>
<stop offset="1" stop-color="#5C3EE9"/>
</linearGradient>
</defs>
</svg>
