<svg width="169" height="120" viewBox="0 0 169 120" fill="none" xmlns="http://www.w3.org/2000/svg">
<g clip-path="url(#clip0_2_10)">
<path d="M108.99 0C75.5725 0 48.9902 26.962 48.9902 60C48.9902 93.4177 75.9523 120 108.99 120C142.028 120 168.99 93.038 168.99 60C168.99 26.962 142.028 0 108.99 0ZM108.99 82.4051C96.8383 82.4051 86.5852 72.1519 86.5852 60C86.5852 47.8481 96.8383 37.5949 108.99 37.5949C121.142 37.5949 131.395 47.8481 131.395 60C131.016 72.1519 121.142 82.4051 108.99 82.4051Z" fill="white"/>
<path d="M48.6076 17.4684V104.81H27.3418L0 17.4684H48.6076Z" fill="white"/>
</g>
<defs>
<clipPath id="clip0_2_10">
<rect width="169" height="120" fill="white"/>
</clipPath>
</defs>
</svg>
