<svg width="1440" height="320" viewBox="0 0 1440 320" fill="none" xmlns="http://www.w3.org/2000/svg">
<path d="M1265.12 160.92C1265.12 121.67 1235.42 89.92 1193.47 89.92C1152.35 89.92 1123.07 120.45 1123.07 162.4C1123.07 204.56 1153.18 235.3 1196.38 235.3C1223.79 235.3 1246.84 223.04 1261.17 198.12L1232.1 184.62C1225.25 197.08 1210.29 205.18 1196.38 205.18C1178.73 205.18 1158.38 191.89 1157.13 173.41H1264.08C1264.76 169.281 1265.11 165.104 1265.12 160.92ZM1157.75 148.92C1160.25 130.23 1173.12 117.98 1193.68 117.98C1214.03 117.98 1226.49 129.98 1228.15 148.92H1157.75Z" fill="white"/>
<path d="M864.79 89.89C822.63 89.89 792.73 120.22 792.73 163C792.73 205.36 822.63 235.27 865.21 235.27C907.99 235.27 937.89 205.36 937.89 163.62C937.89 120.63 907.16 89.89 864.79 89.89ZM865.21 203.49C844.02 203.49 830.94 187.71 830.94 163.2C830.94 138.28 844.23 121.25 865.21 121.25C886.39 121.25 899.68 138.07 899.68 163.2C899.68 187.92 886.6 203.49 865.21 203.49Z" fill="white"/>
<path d="M714.67 89.93C697.4 89.93 684.39 95.83 671.38 110.46H667.11C658.37 97.25 644.11 89.93 628.11 89.93C620.121 89.8519 612.229 91.6725 605.081 95.2417C597.934 98.811 591.737 104.027 587 110.46H582.73L582.52 110.26V92.78H546.78V232.22H585.4V160.46C585.4 137.29 595.16 123.67 612.03 123.67C627.68 123.67 637.84 135.26 637.84 152.94V232.22H676.66V160.46C676.66 137.46 686.42 123.67 703.5 123.67C718.94 123.67 728.9 135.26 728.9 153.15V232.22H767.73V148.47C767.73 112.09 748.21 89.93 714.67 89.93Z" fill="white"/>
<path d="M1351 183.86H1348.24C1348.24 181.38 1331.4 137.22 1320.36 109.86L1313.46 92.75H1274.55L1329.75 232.68L1308 286H1346.64L1426.13 92.8H1387.2L1380.85 107.43L1359.32 160.7C1353.25 175.58 1350.76 182.48 1351 183.86Z" fill="white"/>
<path d="M1045 89.93C1027.72 89.93 1012.88 97.45 1002.92 110.87H998.85L998.45 110.67V92.78H962.69V232.22H1001.31V160.87C1001.31 138.11 1012.31 123.87 1030.38 123.87C1047.25 123.87 1059.65 136.47 1059.65 156.39V232.21H1098.27V148.07C1098.27 113.92 1075.91 89.93 1045 89.93Z" fill="white"/>
<path d="M284.49 10C201.05 10 134 77.5 134 160C134 243.18 201.71 310 284.47 310C367.23 310 435 242.5 435 160C435 77.5 367.25 10 284.49 10ZM284.49 215.91C253.71 215.91 228.41 190.68 228.41 160C228.41 129.32 253.71 104.09 284.49 104.09C315.27 104.09 340.58 129.32 340.58 160C339.89 190.68 315.27 215.91 284.49 215.91Z" fill="#8B3FFD"/>
<path d="M134 53.58V271.76H80.68L12.28 53.58H134Z" fill="#8B3FFD"/>
</svg>
