<svg width="26" height="26" viewBox="0 0 26 26" fill="none" xmlns="http://www.w3.org/2000/svg">
<path d="M19.826 3.82281C19.7311 3.82305 19.6378 3.7978 19.5559 3.74969C17.3022 2.54312 15.3537 2.03125 13.0178 2.03125C10.6935 2.03125 8.48658 2.60406 6.47919 3.74969C6.19533 3.91016 5.84544 3.79844 5.68091 3.50391C5.60747 3.36175 5.59091 3.19697 5.63458 3.04303C5.67825 2.8891 5.77888 2.75757 5.91603 2.67516C8.08101 1.44723 10.5288 0.805216 13.0178 0.8125C15.5177 0.8125 17.7013 1.38531 20.0962 2.665C20.2359 2.74183 20.34 2.87035 20.386 3.02301C20.432 3.17567 20.4164 3.34029 20.3425 3.48156C20.298 3.58186 20.2257 3.66731 20.1342 3.7278C20.0427 3.78828 19.9357 3.82125 19.826 3.82281ZM3.0281 10.2212C2.90613 10.2204 2.78737 10.1821 2.68786 10.1116C2.5584 10.0153 2.47133 9.87264 2.445 9.71351C2.41867 9.55437 2.45512 9.39123 2.54669 9.25844C3.70908 7.55219 5.18732 6.21156 6.94892 5.27312C10.6346 3.30078 15.3537 3.28656 19.0511 5.26094C20.8122 6.19937 22.291 7.52781 23.4533 9.22188C23.5445 9.35479 23.5808 9.51782 23.5544 9.67685C23.5281 9.83587 23.4413 9.97855 23.3122 10.075C23.2495 10.1218 23.1779 10.1553 23.1018 10.1734C23.0257 10.1914 22.9467 10.1936 22.8696 10.1799C22.7926 10.1662 22.7192 10.1369 22.654 10.0937C22.5888 10.0505 22.5332 9.99433 22.4905 9.92875C21.4343 8.39313 20.0962 7.18656 18.5113 6.34562C15.1425 4.55406 10.8342 4.55406 7.47704 6.35781C5.88048 7.21094 4.5424 8.42969 3.48615 9.96328C3.4406 10.044 3.37384 10.1107 3.2931 10.1561C3.21236 10.2016 3.12072 10.2241 3.0281 10.2212ZM10.3645 24.9336C10.2869 24.9343 10.2101 24.9184 10.1392 24.8869C10.0683 24.8553 10.005 24.8089 9.95365 24.7508C8.93244 23.6884 8.37892 23.0039 7.59435 21.5312C6.78185 20.0322 6.36189 18.2041 6.36189 16.2419C6.36189 12.6222 9.34326 9.67281 13.0061 9.67281C16.669 9.67281 19.6524 12.6222 19.6524 16.2419C19.6547 16.3204 19.6412 16.3986 19.6127 16.4718C19.5843 16.545 19.5414 16.6117 19.4867 16.6681C19.432 16.7244 19.3666 16.7692 19.2942 16.7998C19.2219 16.8304 19.1441 16.8462 19.0656 16.8462C18.987 16.8462 18.9093 16.8304 18.837 16.7998C18.7646 16.7692 18.6991 16.7244 18.6444 16.6681C18.5897 16.6117 18.5469 16.545 18.5184 16.4718C18.49 16.3986 18.4765 16.3204 18.4788 16.2419C18.4788 13.2925 16.0251 10.8916 13.0086 10.8916C9.99224 10.8916 7.53595 13.2925 7.53595 16.2419C7.53595 17.9969 7.91122 19.6178 8.62724 20.9341C9.3788 22.3356 9.89677 22.9328 10.7992 23.8834C10.9062 24.0017 10.9654 24.1556 10.9654 24.3151C10.9654 24.4746 10.9062 24.6284 10.7992 24.7467C10.6839 24.863 10.5281 24.93 10.3645 24.9336ZM18.7815 22.6789C17.3845 22.6789 16.152 22.3133 15.1425 21.5942C14.2824 20.9914 13.5797 20.1907 13.0937 19.2596C12.6076 18.3285 12.3524 17.2942 12.3495 16.2439C12.3462 16.1648 12.359 16.0858 12.387 16.0117C12.415 15.9376 12.4577 15.8699 12.5125 15.8128C12.5674 15.7556 12.6332 15.7101 12.7061 15.679C12.7789 15.648 12.8573 15.6319 12.9365 15.6319C13.0157 15.6319 13.0941 15.648 13.167 15.679C13.2399 15.7101 13.3057 15.7556 13.3605 15.8128C13.4154 15.8699 13.4581 15.9376 13.4861 16.0117C13.5141 16.0858 13.5269 16.1648 13.5236 16.2439C13.5255 17.097 13.7336 17.9371 14.1301 18.6925C14.5265 19.4479 15.0996 20.0964 15.8006 20.5827C16.6339 21.1677 17.6084 21.4459 18.7825 21.4459C19.1914 21.4387 19.599 21.3979 20.0012 21.3241C20.3181 21.2631 20.6233 21.4825 20.6817 21.8237C20.7114 21.9812 20.6775 22.1441 20.5874 22.2766C20.4972 22.4091 20.3582 22.5005 20.2008 22.5306C19.7332 22.623 19.2581 22.672 18.7815 22.6769V22.6789ZM16.4217 25.1875C16.3701 25.1854 16.319 25.1772 16.2693 25.1631C14.4026 24.6269 13.1818 23.9078 11.9021 22.6037C10.2583 20.9097 9.35494 18.655 9.35494 16.2419C9.35494 14.2675 10.9749 12.6587 12.9701 12.6587C14.9652 12.6587 16.5857 14.2675 16.5857 16.2419C16.5857 17.5459 17.6775 18.6062 19.0272 18.6062C20.377 18.6062 21.4688 17.5459 21.4688 16.2419C21.4688 11.6472 17.6536 7.91781 12.9584 7.91781C9.62458 7.91781 6.57263 9.84344 5.19951 12.8294C4.74247 13.8166 4.50685 14.9744 4.50685 16.2419C4.50685 17.1925 4.58861 18.6916 5.29294 20.6416C5.41076 20.9584 5.2579 21.3119 4.95271 21.4216C4.88018 21.4492 4.80281 21.4619 4.72526 21.4588C4.64771 21.4558 4.57157 21.4371 4.50142 21.4039C4.43126 21.3707 4.36855 21.3237 4.31703 21.2656C4.26552 21.2076 4.22628 21.1397 4.20165 21.0661C3.63528 19.5207 3.34513 17.8878 3.34447 16.2419C3.34447 14.7794 3.61462 13.4489 4.14275 12.2931C5.70427 8.89078 9.16704 6.68687 12.9584 6.68687C18.2995 6.68687 22.6429 10.9647 22.6429 16.2297C22.6429 18.2041 21.0229 19.8128 19.0272 19.8128C17.0315 19.8128 15.4116 18.2041 15.4116 16.2297C15.4121 14.9256 14.3203 13.8633 12.9706 13.8633C11.6208 13.8633 10.529 14.9236 10.529 16.2277C10.529 18.3097 11.3039 20.2617 12.7243 21.7242C13.8415 22.8698 14.9079 23.5016 16.5628 23.9789C16.8797 24.0642 17.0559 24.4055 16.9736 24.7223C16.948 24.851 16.8794 24.9671 16.7791 25.0516C16.6788 25.1361 16.5528 25.184 16.4217 25.1875Z" fill="#19FF00"/>
</svg>
