<svg width="154" height="109" viewBox="0 0 154 109" fill="none" xmlns="http://www.w3.org/2000/svg">
<path d="M98.6762 0C68.4292 0 44.1235 24.4688 44.1235 54.375C44.1235 84.5278 68.6684 108.75 98.6689 108.75C128.669 108.75 153.236 84.2812 153.236 54.375C153.236 24.4688 128.677 0 98.6762 0ZM98.6762 74.6424C87.5184 74.6424 78.3472 65.4965 78.3472 54.375C78.3472 43.2535 87.5184 34.1076 98.6762 34.1076C109.834 34.1076 119.009 43.2535 119.009 54.375C118.759 65.4965 109.834 74.6424 98.6762 74.6424Z" fill="#8B3FFD"/>
<path d="M44.1235 15.7978V94.888H24.795L0 15.7978H44.1235Z" fill="#8B3FFD"/>
</svg>
