<svg width="94" height="115" viewBox="0 0 94 115" fill="none" xmlns="http://www.w3.org/2000/svg">
<path d="M0 25.0298L13.9261 49.9218V65.1052L0.0162912 89.9484L0 25.0298Z" fill="#5B57A2"/>
<path d="M53.4707 40.8689L66.52 32.8709L93.2261 32.846L53.4707 57.2004V40.8689Z" fill="#D90751"/>
<path d="M53.3966 24.8843L53.4704 57.8405L39.5117 49.2637V0L53.3976 24.8843H53.3966Z" fill="#FAB718"/>
<path d="M93.2258 32.8421L66.5187 32.867L53.3966 24.8843L39.5117 0L93.2248 32.8421H93.2258Z" fill="#ED6F26"/>
<path d="M53.4704 90.0863V74.0969L39.5117 65.683L39.5194 114.996L53.4704 90.0863Z" fill="#63B22F"/>
<path d="M66.4873 82.1612L13.9252 49.9218L0 25.0298L93.1694 82.1286L66.4864 82.1612H66.4873Z" fill="#1487C9"/>
<path d="M39.5205 115L53.4696 90.0907L66.4863 82.1655L93.1684 82.133L39.5205 115Z" fill="#017F36"/>
<path d="M0.0161133 89.9513L39.6258 65.687L26.3092 57.5164L13.9259 65.1081L0.0161133 89.9513Z" fill="#984995"/>
</svg>
