<svg width="500" height="197" viewBox="0 0 500 197" fill="none" xmlns="http://www.w3.org/2000/svg">
<g clip-path="url(#clip0_4574_2)">
<path d="M477.99 196.268H22.0097C9.85407 196.268 0 186.414 0 174.258V22.0097C0 9.85407 9.85407 0 22.0097 0H477.99C490.146 0 500 9.85407 500 22.0097V174.258C500 186.414 490.146 196.268 477.99 196.268Z" fill="#FFDD2D"/>
<path d="M66.0859 47.6912H176.143V103.042C176.143 117.231 168.573 130.343 156.286 137.439L121.115 157.748L85.9435 137.439C73.6555 130.343 66.0859 117.231 66.0859 103.042V47.6912Z" fill="white"/>
<path fill-rule="evenodd" clip-rule="evenodd" d="M96.291 76.8237V94.039C98.6451 91.3806 102.925 89.5815 107.819 89.5815H113.137V109.594C113.137 114.918 111.691 119.579 109.544 122.142H132.678C130.536 119.576 129.092 114.922 129.092 109.604V89.5815H134.411C139.305 89.5815 143.585 91.3806 145.939 94.039V76.8237H96.291Z" fill="#333333"/>
<path d="M202.093 122.14V76.8263H248.119V87.1827H215.817V93.6574H231.806C243.134 93.6574 251.55 96.2465 251.55 107.898C251.55 119.55 243.134 122.14 231.806 122.14H202.093ZM215.817 104.014V111.781H231.87C236.532 111.781 237.632 110.877 237.632 107.898C237.632 104.92 236.532 104.014 231.87 104.014H215.817Z" fill="#333333"/>
<path d="M327.528 105.308V122.14H313.804V76.8263H327.528V93.3338H349.99V76.8263H363.714V122.14H349.99V105.308H327.528Z" fill="#333333"/>
<path d="M385.826 105.049V122.14H372.102V76.8263H385.826V93.7218H394.047L408.353 76.8263H423.889L405.958 97.9934V98.8356L424.795 122.14H407.77L393.982 105.049H385.826Z" fill="#333333"/>
<path d="M291.957 115.472H270.529L268.134 122.14H253.764L271.695 76.8263H291.504L309.37 122.14H294.352L291.957 115.472ZM288.267 105.115L281.923 87.249H280.757L274.284 105.115H288.267Z" fill="#333333"/>
</g>
<defs>
<clipPath id="clip0_4574_2">
<rect width="500" height="196.268" fill="white"/>
</clipPath>
</defs>
</svg>
