<svg width="148" height="148" viewBox="0 0 148 148" fill="none" xmlns="http://www.w3.org/2000/svg">
<foreignObject x="-20" y="-25" width="188" height="188"><div xmlns="http://www.w3.org/1999/xhtml" style="backdrop-filter:blur(12.5px);clip-path:url(#bgblur_0_180_319_clip_path);height:100%;width:100%"></div></foreignObject><g filter="url(#filter0_d_180_319)" data-figma-bg-blur-radius="25">
<path d="M97 138C92.7833 138 89.1749 136.5 86.1747 133.5C83.1744 130.499 81.6718 126.888 81.6667 122.667V92C81.6667 87.7833 83.1693 84.1749 86.1747 81.1747C89.18 78.1744 92.7884 76.6718 97 76.6667H127.667C131.883 76.6667 135.494 78.1693 138.5 81.1747C141.505 84.18 143.005 87.7884 143 92V122.667C143 126.883 141.5 130.494 138.5 133.5C135.499 136.505 131.888 138.005 127.667 138H97ZM97 61.3333C92.7833 61.3333 89.1749 59.8332 86.1747 56.833C83.1744 53.8328 81.6718 50.2218 81.6667 46V15.3333C81.6667 11.1167 83.1693 7.50822 86.1747 4.508C89.18 1.50778 92.7884 0.00511111 97 0H127.667C131.883 0 135.494 1.50267 138.5 4.508C141.505 7.51333 143.005 11.1218 143 15.3333V46C143 50.2167 141.5 53.8277 138.5 56.833C135.499 59.8383 131.888 61.3384 127.667 61.3333H97ZM20.3333 61.3333C16.1167 61.3333 12.5082 59.8332 9.508 56.833C6.50778 53.8328 5.00511 50.2218 5 46V15.3333C5 11.1167 6.50267 7.50822 9.508 4.508C12.5133 1.50778 16.1218 0.00511111 20.3333 0H51C55.2167 0 58.8277 1.50267 61.833 4.508C64.8383 7.51333 66.3384 11.1218 66.3333 15.3333V46C66.3333 50.2167 64.8332 53.8277 61.833 56.833C58.8328 59.8383 55.2218 61.3384 51 61.3333H20.3333ZM20.3333 138C16.1167 138 12.5082 136.5 9.508 133.5C6.50778 130.499 5.00511 126.888 5 122.667V92C5 87.7833 6.50267 84.1749 9.508 81.1747C12.5133 78.1744 16.1218 76.6718 20.3333 76.6667H51C55.2167 76.6667 58.8277 78.1693 61.833 81.1747C64.8383 84.18 66.3384 87.7884 66.3333 92V122.667C66.3333 126.883 64.8332 130.494 61.833 133.5C58.8328 136.505 55.2218 138.005 51 138H20.3333Z" fill="url(#paint0_linear_180_319)" shape-rendering="crispEdges"/>
<path d="M20.333 76.7666H51C55.1899 76.7666 58.7759 78.2584 61.7627 81.2451C64.7494 84.2318 66.2385 87.8153 66.2334 92V122.667C66.2333 126.857 64.744 130.442 61.7627 133.429C58.7811 136.415 55.195 137.905 51 137.9H20.333C16.1432 137.9 12.5606 136.41 9.5791 133.429C6.59761 130.447 5.1048 126.862 5.09961 122.667V92C5.09961 87.8101 6.59241 84.2267 9.5791 81.2451C12.5657 78.2638 16.1485 76.7718 20.333 76.7666ZM97 76.7666H127.667C131.857 76.7667 135.442 78.2586 138.429 81.2451C141.415 84.2319 142.905 87.8153 142.9 92V122.667C142.9 126.857 141.41 130.442 138.429 133.429C135.447 136.415 131.862 137.905 127.667 137.9H97C92.81 137.9 89.2267 136.41 86.2451 133.429C83.2638 130.447 81.7718 126.862 81.7666 122.667V92C81.7666 87.8101 83.2584 84.2267 86.2451 81.2451C89.1385 78.3567 92.5918 76.8665 96.6094 76.7715L97 76.7666ZM20.333 0.0996094H51C55.1899 0.0996103 58.7759 1.59236 61.7627 4.5791C64.7491 7.56572 66.2384 11.1486 66.2334 15.333V46C66.2334 50.1899 64.7443 53.776 61.7627 56.7627C58.7811 59.7493 55.195 61.2385 51 61.2334H20.333C16.1434 61.2333 12.5605 59.744 9.5791 56.7627C6.59753 53.7811 5.10472 50.1951 5.09961 46V15.333C5.09969 11.1432 6.59249 7.56064 9.5791 4.5791C12.5658 1.59754 16.1484 0.104793 20.333 0.0996094ZM97 0.0996094H127.667C131.857 0.0996891 135.442 1.59243 138.429 4.5791C141.415 7.56578 142.905 11.1484 142.9 15.333V46C142.9 50.19 141.41 53.776 138.429 56.7627C135.447 59.7491 131.862 61.2384 127.667 61.2334H97C92.8101 61.2334 89.2267 59.7442 86.2451 56.7627C83.2635 53.7811 81.7717 50.1951 81.7666 46V15.333C81.7667 11.1434 83.2587 7.56059 86.2451 4.5791C89.1385 1.69061 92.5918 0.199479 96.6094 0.104492L97 0.0996094Z" stroke="url(#paint1_linear_180_319)" stroke-width="0.2" shape-rendering="crispEdges"/>
</g>
<defs>
<filter id="filter0_d_180_319" x="-20" y="-25" width="188" height="188" filterUnits="userSpaceOnUse" color-interpolation-filters="sRGB">
<feFlood flood-opacity="0" result="BackgroundImageFix"/>
<feColorMatrix in="SourceAlpha" type="matrix" values="0 0 0 0 0 0 0 0 0 0 0 0 0 0 0 0 0 0 127 0" result="hardAlpha"/>
<feOffset dy="5"/>
<feGaussianBlur stdDeviation="2.5"/>
<feComposite in2="hardAlpha" operator="out"/>
<feColorMatrix type="matrix" values="0 0 0 0 0 0 0 0 0 0 0 0 0 0 0 0 0 0 0.1 0"/>
<feBlend mode="normal" in2="BackgroundImageFix" result="effect1_dropShadow_180_319"/>
<feBlend mode="normal" in="SourceGraphic" in2="effect1_dropShadow_180_319" result="shape"/>
</filter>
<clipPath id="bgblur_0_180_319_clip_path" transform="translate(20 25)"><path d="M97 138C92.7833 138 89.1749 136.5 86.1747 133.5C83.1744 130.499 81.6718 126.888 81.6667 122.667V92C81.6667 87.7833 83.1693 84.1749 86.1747 81.1747C89.18 78.1744 92.7884 76.6718 97 76.6667H127.667C131.883 76.6667 135.494 78.1693 138.5 81.1747C141.505 84.18 143.005 87.7884 143 92V122.667C143 126.883 141.5 130.494 138.5 133.5C135.499 136.505 131.888 138.005 127.667 138H97ZM97 61.3333C92.7833 61.3333 89.1749 59.8332 86.1747 56.833C83.1744 53.8328 81.6718 50.2218 81.6667 46V15.3333C81.6667 11.1167 83.1693 7.50822 86.1747 4.508C89.18 1.50778 92.7884 0.00511111 97 0H127.667C131.883 0 135.494 1.50267 138.5 4.508C141.505 7.51333 143.005 11.1218 143 15.3333V46C143 50.2167 141.5 53.8277 138.5 56.833C135.499 59.8383 131.888 61.3384 127.667 61.3333H97ZM20.3333 61.3333C16.1167 61.3333 12.5082 59.8332 9.508 56.833C6.50778 53.8328 5.00511 50.2218 5 46V15.3333C5 11.1167 6.50267 7.50822 9.508 4.508C12.5133 1.50778 16.1218 0.00511111 20.3333 0H51C55.2167 0 58.8277 1.50267 61.833 4.508C64.8383 7.51333 66.3384 11.1218 66.3333 15.3333V46C66.3333 50.2167 64.8332 53.8277 61.833 56.833C58.8328 59.8383 55.2218 61.3384 51 61.3333H20.3333ZM20.3333 138C16.1167 138 12.5082 136.5 9.508 133.5C6.50778 130.499 5.00511 126.888 5 122.667V92C5 87.7833 6.50267 84.1749 9.508 81.1747C12.5133 78.1744 16.1218 76.6718 20.3333 76.6667H51C55.2167 76.6667 58.8277 78.1693 61.833 81.1747C64.8383 84.18 66.3384 87.7884 66.3333 92V122.667C66.3333 126.883 64.8332 130.494 61.833 133.5C58.8328 136.505 55.2218 138.005 51 138H20.3333Z"/>
</clipPath><linearGradient id="paint0_linear_180_319" x1="74" y1="0" x2="74" y2="138" gradientUnits="userSpaceOnUse">
<stop stop-color="white"/>
<stop offset="1" stop-color="white" stop-opacity="0.2"/>
</linearGradient>
<linearGradient id="paint1_linear_180_319" x1="74" y1="0" x2="74" y2="138" gradientUnits="userSpaceOnUse">
<stop stop-color="white"/>
<stop offset="1" stop-color="white" stop-opacity="0"/>
</linearGradient>
</defs>
</svg>
