<svg width="227" height="158" viewBox="0 0 227 158" fill="none" xmlns="http://www.w3.org/2000/svg">
<path d="M167.108 87.0214V87.906C167.108 89.3433 166.777 90.5596 165.229 91.4441L118.238 118.533C115.584 120.081 110.941 119.86 107.845 118.091L62.5125 91.9969C60.854 91.0018 59.8589 89.8962 59.8589 88.6799V65.0187L167.108 65.2398V87.0214Z" fill="#B35959" fill-opacity="0.9"/>
<path d="M166.609 65.7374V87.9064C166.609 88.5913 166.528 89.1712 166.295 89.671C166.068 90.1602 165.676 90.6125 164.981 91.0099L164.979 91.0109L117.989 118.1L117.986 118.101C116.768 118.811 115.048 119.136 113.229 119.056C111.415 118.976 109.56 118.495 108.092 117.656L62.7622 91.5636C61.1277 90.5813 60.3589 89.6065 60.3589 88.6798V65.5197L166.609 65.7374Z" stroke="black" stroke-opacity="0.6"/>
<path d="M90.7069 69.773C88.4956 71.0998 86.5054 70.9893 85.1786 69.9942L56.3207 53.2986C54.9939 52.5246 54.1094 50.9767 54.1094 48.6548C54.1094 44.1216 57.3158 38.4827 61.2962 36.2713C63.5075 34.9445 65.4977 35.0551 66.8245 36.0502L95.6824 52.7458C97.0092 53.5197 97.8938 55.0677 97.8938 57.3896C97.8938 61.9228 94.6873 67.4511 90.7069 69.773Z" fill="url(#paint0_linear_180_204)"/>
<path d="M61.4248 36.4858C63.5729 35.197 65.4495 35.3315 66.6748 36.2505L66.6865 36.2593L66.6992 36.2661L95.5576 52.9624V52.9614C96.7889 53.6801 97.6435 55.1336 97.6436 57.3892C97.6436 59.601 96.86 62.0736 95.5771 64.2847C94.2943 66.4956 92.5254 68.4229 90.5811 69.5571L90.5781 69.5591C88.4302 70.8477 86.5533 70.7133 85.3281 69.7944L85.3164 69.7856L85.3037 69.7778L56.4463 53.0825C55.2147 52.3639 54.3594 50.9108 54.3594 48.6548C54.3594 46.4424 55.1437 43.9422 56.4268 41.7173C57.71 39.4922 59.4776 37.5677 61.418 36.4897L61.4248 36.4858Z" stroke="#A3B1CC" stroke-opacity="0.93" stroke-width="0.5"/>
<path d="M133.165 56.0628C133.165 53.7409 134.05 52.0824 135.376 51.419L158.595 37.9299C160.033 37.0453 161.912 36.8242 164.124 38.151C168.104 40.4729 171.311 46.0012 171.311 50.5345C171.311 52.8564 170.426 54.5149 169.099 55.1783L145.88 68.778C144.443 69.5519 142.563 69.7731 140.352 68.5568C136.371 66.2349 133.165 60.7066 133.165 56.0628Z" fill="url(#paint1_linear_180_204)"/>
<path d="M158.727 38.1428C160.083 37.3084 161.862 37.0856 163.995 38.3655L163.998 38.3665C165.942 39.5006 167.71 41.4281 168.993 43.6389C170.276 45.8501 171.061 48.3224 171.061 50.5344C171.061 52.8025 170.198 54.3489 168.987 54.9543L168.979 54.9583L168.973 54.9622L145.753 68.5618C144.475 69.2469 142.826 69.4808 140.869 68.5422L140.473 68.3381C138.53 67.2036 136.764 65.2783 135.482 63.0559C134.2 60.8315 133.415 58.3309 133.415 56.0627C133.415 53.7947 134.277 52.2482 135.488 51.6428L135.502 51.635L158.721 38.1458L158.727 38.1428Z" stroke="#A3B1CC" stroke-opacity="0.93" stroke-width="0.5"/>
<g filter="url(#filter0_d_180_204)">
<path d="M53.0034 102.832C53.0034 100.51 53.888 98.8519 55.2147 98.1885L78.4337 84.6994C79.8711 83.8149 81.7507 83.5937 83.9621 84.9205C87.9425 87.2424 91.1489 92.7708 91.1489 97.304C91.1489 99.6259 90.2644 101.284 88.9376 101.948L65.7186 115.547C64.2812 116.321 62.4016 116.543 60.1902 115.326C56.2098 113.004 53.0034 107.476 53.0034 102.832Z" fill="url(#paint2_linear_180_204)"/>
<path d="M78.5649 84.9124C79.9209 84.0779 81.7004 83.8551 83.8335 85.135L83.8364 85.137C85.7806 86.2712 87.5488 88.1978 88.8315 90.4084C90.1146 92.6196 90.8989 95.092 90.8989 97.304C90.8989 99.572 90.0365 101.118 88.8257 101.724L88.8179 101.728L88.811 101.732L65.5913 115.331C64.3137 116.016 62.6642 116.25 60.7075 115.312L60.311 115.108C58.3688 113.973 56.6025 112.048 55.3208 109.825C54.038 107.601 53.2534 105.1 53.2534 102.832C53.2534 100.564 54.1158 99.0178 55.3267 98.4124L55.3403 98.4045L78.5591 84.9153L78.5649 84.9124Z" stroke="#A3B1CC" stroke-opacity="0.93" stroke-width="0.5"/>
</g>
<g filter="url(#filter1_d_180_204)">
<path d="M166.777 114.221C164.566 115.548 162.576 115.437 161.249 114.442L138.03 100.953C136.703 100.179 135.819 98.631 135.819 96.3091C135.819 91.7759 139.025 86.137 143.006 83.9256C145.217 82.5988 147.207 82.7094 148.534 83.7045L171.753 97.1936C173.08 97.9676 173.964 99.5155 173.964 101.837C173.964 106.371 170.758 111.899 166.777 114.221Z" fill="url(#paint3_linear_180_204)"/>
<path d="M143.134 84.1401C145.282 82.8513 147.159 82.9858 148.384 83.9048L148.396 83.9136L148.409 83.9204L171.627 97.4097C172.859 98.1283 173.714 99.5814 173.714 101.837C173.714 104.049 172.93 106.522 171.647 108.733C170.364 110.944 168.596 112.871 166.652 114.005L166.649 114.006C164.501 115.295 162.624 115.161 161.399 114.242L161.387 114.233L161.375 114.226L138.156 100.737C136.924 100.018 136.069 98.5651 136.069 96.3091C136.069 94.0967 136.853 91.5965 138.136 89.3716C139.419 87.1465 141.187 85.222 143.127 84.144L143.134 84.1401Z" stroke="#A3B1CC" stroke-opacity="0.93" stroke-width="0.5"/>
</g>
<g filter="url(#filter2_di_180_204)">
<path d="M166.777 99.6261C163.792 101.285 161.47 105.486 161.47 108.803C161.47 112.12 163.902 113.558 166.777 111.899C169.762 110.241 172.084 106.039 172.084 102.722C172.084 99.2944 169.652 97.8571 166.777 99.6261Z" fill="white"/>
</g>
<g filter="url(#filter3_di_180_204)">
<path d="M54.9941 103.827C54.9941 107.255 57.4266 111.346 60.3013 113.004C63.2866 114.663 65.6085 113.336 65.6085 109.909C65.6085 106.481 63.1761 102.39 60.3013 100.731C57.4266 99.073 54.9941 100.51 54.9941 103.827Z" fill="white"/>
</g>
<g filter="url(#filter4_d_180_204)">
<path d="M61.4067 62.144L108.397 35.0552C111.051 33.5072 115.695 33.7284 118.791 35.4974L164.234 61.7017C167.329 63.4708 167.661 66.1244 165.008 67.6723L118.017 94.7612C115.363 96.3091 110.719 96.088 107.623 94.3189L62.1806 68.2252C59.0848 66.4561 58.7531 63.6919 61.4067 62.144Z" fill="url(#paint4_linear_180_204)"/>
<path d="M108.649 35.4868C109.867 34.7764 111.587 34.4516 113.406 34.5317C115.218 34.6117 117.073 35.0912 118.541 35.9292V35.9302L163.984 62.1353L163.986 62.1362C165.464 62.9808 166.171 63.9739 166.281 64.8335C166.386 65.6531 165.967 66.5327 164.758 67.2388L117.767 94.3276L117.765 94.3296C116.547 95.04 114.827 95.3649 113.008 95.2847C111.195 95.2047 109.34 94.7241 107.872 93.8853H107.873L62.4292 67.7915H62.4282C60.9567 66.9506 60.2447 65.931 60.1333 65.0396C60.0265 64.1843 60.4545 63.2783 61.6558 62.5767L61.6567 62.5776L108.647 35.4888L108.649 35.4868Z" stroke="#991F1F" stroke-opacity="0.97"/>
</g>
<path d="M2.60352 69.1893C2.60352 67.1644 2.60352 66.1519 2.89864 65.246C3.15975 64.4445 3.58682 63.707 4.15201 63.0816C4.79081 62.3748 5.66897 61.8708 7.42531 60.8629L103.927 5.48408C107.41 3.48561 109.151 2.48637 111.001 2.09516C112.638 1.74899 114.329 1.74899 115.966 2.09516C117.816 2.48637 119.557 3.48561 123.04 5.48408L219.542 60.863C221.298 61.8708 222.176 62.3748 222.815 63.0816C223.38 63.707 223.807 64.4445 224.068 65.246C224.364 66.1519 224.364 67.1644 224.364 69.1893V87.708C224.364 89.7235 224.364 90.7313 224.071 91.6338C223.812 92.4323 223.388 93.1676 222.827 93.7921C222.193 94.4979 221.321 95.0033 219.577 96.0139L123.111 151.921C119.604 153.953 117.851 154.969 115.986 155.367C114.336 155.718 112.631 155.718 110.981 155.367C109.116 154.969 107.363 153.953 103.856 151.921L7.38985 96.0139C5.646 95.0033 4.77408 94.4979 4.14003 93.7921C3.57901 93.1676 3.15529 92.4323 2.89626 91.6338C2.60352 90.7313 2.60352 89.7235 2.60352 87.708V69.1893Z" fill="url(#paint5_linear_180_204)"/>
<path d="M111.104 2.58398C112.673 2.25233 114.294 2.25236 115.862 2.58398C117.617 2.95503 119.279 3.90281 122.791 5.91797L219.293 61.2969C221.079 62.3215 221.871 62.7831 222.444 63.417C222.962 63.9902 223.353 64.6668 223.593 65.4014C223.857 66.2137 223.863 67.131 223.863 69.1895V87.708C223.863 89.7572 223.857 90.6701 223.595 91.4795C223.357 92.2114 222.969 92.8856 222.455 93.458C221.886 94.091 221.099 94.5535 219.326 95.5811L122.86 151.488C119.324 153.538 117.65 154.501 115.882 154.878C114.301 155.215 112.666 155.215 111.085 154.878C109.316 154.501 107.642 153.537 104.106 151.488L7.64062 95.5811C5.8677 94.5536 5.08038 94.091 4.51172 93.458C3.99752 92.8856 3.6095 92.2114 3.37207 91.4795C3.10951 90.6701 3.10352 89.7572 3.10352 87.708V69.1895C3.10352 67.131 3.10948 66.2137 3.37402 65.4014C3.61338 64.6667 4.00534 63.9903 4.52344 63.417C5.09631 62.7832 5.88857 62.3214 7.67383 61.2969L104.176 5.91797C107.687 3.90281 109.35 2.95503 111.104 2.58398Z" stroke="#E63917" stroke-opacity="0.83"/>
<rect width="131.04" height="131.04" rx="6" transform="matrix(0.866025 0.5 -0.866025 0.5 113.484 0.630005)" fill="url(#paint6_linear_180_204)"/>
<rect x="-2.98023e-08" y="0.5" width="130.04" height="130.04" rx="5.5" transform="matrix(0.866025 0.5 -0.866025 0.5 113.917 0.880005)" stroke="white" stroke-opacity="0.69"/>
<g filter="url(#filter5_i_180_204)">
<path fill-rule="evenodd" clip-rule="evenodd" d="M133.322 63.4547C133.62 66.5335 131.739 69.9797 126.877 72.5675L126.575 72.7248L121.698 71.774C121.501 71.7356 121.322 71.6713 121.175 71.5862C120.679 71.2992 120.65 70.8444 121.088 70.5377L121.175 70.482L133.322 63.4547ZM127.569 64.0125L123.141 54.0784L123.434 54.1748C125.419 54.8418 131.641 57.2491 133.092 62.2365L133.15 62.4487L129.83 64.3696C129.66 64.4683 129.447 64.5387 129.213 64.5735C128.534 64.6749 127.842 64.4583 127.608 64.0844L127.569 64.0125ZM94.3942 66.4634L95.0134 66.0825C104.192 60.4562 108.437 58.7513 111.043 60.3227C111.574 60.63 112.094 59.9076 114.373 59.6804C116.59 59.4593 118.571 59.5582 120.964 61.1532L121.165 61.2896C121.165 61.2896 116.9 60.8194 112.762 65.4054C112.442 65.7599 117.271 62.4001 120.245 63.4206C115.87 64.2387 112.833 66.8004 113.263 69.038C113.682 71.2223 117.27 72.5937 124.954 73.4626C123.015 74.2543 120.886 74.8206 118.673 75.1614L118.446 75.1343C117.135 74.9661 113.325 74.2802 109.873 71.7449L109.92 71.84C110.125 72.2003 111.119 73.5605 115.192 75.5098C112.184 75.6529 109.132 75.4 106.286 74.7502C105.396 73.7556 104.023 71.331 104.597 69.2725C103.55 70.2369 104.006 74.1277 104.006 74.1277L103.626 74.0033C102.061 73.4766 99.9428 72.5931 97.8495 71.0599C98.0185 70.1836 98.5956 68.4495 100.205 66.7864C97.5191 68.2298 96.8253 70.2111 96.8253 70.2111C94.4086 67.8206 94.3942 66.4634 94.3942 66.4634ZM105.048 63.6609L104.787 63.8035C106.673 64.5079 108.302 63.9814 109.153 63.5729C110.003 63.1644 109.838 62.0101 109.838 62.0101C107.71 62.3335 105.739 63.2958 105.048 63.6609V63.6609ZM102.838 54.474C108.254 52.45 115.001 52.1104 120.864 53.4549L121.195 53.5328L122.242 56.2939C122.288 56.4157 122.283 56.5422 122.227 56.6627C122.046 57.0548 121.381 57.2971 120.702 57.2314L120.575 57.2155L102.838 54.474ZM93.8449 65.0796C93.374 61.8902 95.2597 58.0985 100.782 55.3566L101.092 55.2053L106.548 56.0832C106.772 56.1193 106.976 56.1882 107.14 56.2834C107.636 56.5704 107.665 57.0252 107.228 57.3319L107.14 57.3876L93.8449 65.0796Z" fill="white" fill-opacity="0.8"/>
</g>
<defs>
<filter id="filter0_d_180_204" x="53.0034" y="82.9807" width="40.1455" height="33.2025" filterUnits="userSpaceOnUse" color-interpolation-filters="sRGB">
<feFlood flood-opacity="0" result="BackgroundImageFix"/>
<feColorMatrix in="SourceAlpha" type="matrix" values="0 0 0 0 0 0 0 0 0 0 0 0 0 0 0 0 0 0 127 0" result="hardAlpha"/>
<feOffset dx="2" dy="-1"/>
<feComposite in2="hardAlpha" operator="out"/>
<feColorMatrix type="matrix" values="0 0 0 0 0 0 0 0 0 0 0 0 0 0 0 0 0 0 0.1 0"/>
<feBlend mode="normal" in2="BackgroundImageFix" result="effect1_dropShadow_180_204"/>
<feBlend mode="normal" in="SourceGraphic" in2="effect1_dropShadow_180_204" result="shape"/>
</filter>
<filter id="filter1_d_180_204" x="133.819" y="81.9438" width="40.1455" height="33.2588" filterUnits="userSpaceOnUse" color-interpolation-filters="sRGB">
<feFlood flood-opacity="0" result="BackgroundImageFix"/>
<feColorMatrix in="SourceAlpha" type="matrix" values="0 0 0 0 0 0 0 0 0 0 0 0 0 0 0 0 0 0 127 0" result="hardAlpha"/>
<feOffset dx="-2" dy="-1"/>
<feComposite in2="hardAlpha" operator="out"/>
<feColorMatrix type="matrix" values="0 0 0 0 0 0 0 0 0 0 0 0 0 0 0 0 0 0 0.1 0"/>
<feBlend mode="normal" in2="BackgroundImageFix" result="effect1_dropShadow_180_204"/>
<feBlend mode="normal" in="SourceGraphic" in2="effect1_dropShadow_180_204" result="shape"/>
</filter>
<filter id="filter2_di_180_204" x="149.47" y="86.8663" width="34.6143" height="37.7245" filterUnits="userSpaceOnUse" color-interpolation-filters="sRGB">
<feFlood flood-opacity="0" result="BackgroundImageFix"/>
<feColorMatrix in="SourceAlpha" type="matrix" values="0 0 0 0 0 0 0 0 0 0 0 0 0 0 0 0 0 0 127 0" result="hardAlpha"/>
<feOffset/>
<feGaussianBlur stdDeviation="6"/>
<feComposite in2="hardAlpha" operator="out"/>
<feColorMatrix type="matrix" values="0 0 0 0 0.301961 0 0 0 0 1 0 0 0 0 0.882353 0 0 0 0.8 0"/>
<feBlend mode="normal" in2="BackgroundImageFix" result="effect1_dropShadow_180_204"/>
<feBlend mode="normal" in="SourceGraphic" in2="effect1_dropShadow_180_204" result="shape"/>
<feColorMatrix in="SourceAlpha" type="matrix" values="0 0 0 0 0 0 0 0 0 0 0 0 0 0 0 0 0 0 127 0" result="hardAlpha"/>
<feOffset dx="-2" dy="-1"/>
<feComposite in2="hardAlpha" operator="arithmetic" k2="-1" k3="1"/>
<feColorMatrix type="matrix" values="0 0 0 0 0 0 0 0 0 0 0 0 0 0 0 0 0 0 0.25 0"/>
<feBlend mode="normal" in2="shape" result="effect2_innerShadow_180_204"/>
</filter>
<filter id="filter3_di_180_204" x="42.9941" y="88.0397" width="34.6143" height="37.676" filterUnits="userSpaceOnUse" color-interpolation-filters="sRGB">
<feFlood flood-opacity="0" result="BackgroundImageFix"/>
<feColorMatrix in="SourceAlpha" type="matrix" values="0 0 0 0 0 0 0 0 0 0 0 0 0 0 0 0 0 0 127 0" result="hardAlpha"/>
<feOffset/>
<feGaussianBlur stdDeviation="6"/>
<feComposite in2="hardAlpha" operator="out"/>
<feColorMatrix type="matrix" values="0 0 0 0 0.301961 0 0 0 0 1 0 0 0 0 0.882353 0 0 0 0.8 0"/>
<feBlend mode="normal" in2="BackgroundImageFix" result="effect1_dropShadow_180_204"/>
<feBlend mode="normal" in="SourceGraphic" in2="effect1_dropShadow_180_204" result="shape"/>
<feColorMatrix in="SourceAlpha" type="matrix" values="0 0 0 0 0 0 0 0 0 0 0 0 0 0 0 0 0 0 127 0" result="hardAlpha"/>
<feOffset dx="2" dy="-1"/>
<feComposite in2="hardAlpha" operator="arithmetic" k2="-1" k3="1"/>
<feColorMatrix type="matrix" values="0 0 0 0 0 0 0 0 0 0 0 0 0 0 0 0 0 0 0.25 0"/>
<feBlend mode="normal" in2="shape" result="effect2_innerShadow_180_204"/>
</filter>
<filter id="filter4_d_180_204" x="59.6177" y="34.02" width="107.179" height="64.7764" filterUnits="userSpaceOnUse" color-interpolation-filters="sRGB">
<feFlood flood-opacity="0" result="BackgroundImageFix"/>
<feColorMatrix in="SourceAlpha" type="matrix" values="0 0 0 0 0 0 0 0 0 0 0 0 0 0 0 0 0 0 127 0" result="hardAlpha"/>
<feOffset dy="3"/>
<feComposite in2="hardAlpha" operator="out"/>
<feColorMatrix type="matrix" values="0 0 0 0 0 0 0 0 0 0 0 0 0 0 0 0 0 0 0.04 0"/>
<feBlend mode="normal" in2="BackgroundImageFix" result="effect1_dropShadow_180_204"/>
<feBlend mode="normal" in="SourceGraphic" in2="effect1_dropShadow_180_204" result="shape"/>
</filter>
<filter id="filter5_i_180_204" x="83.0249" y="46.4318" width="61.0747" height="35.3352" filterUnits="userSpaceOnUse" color-interpolation-filters="sRGB">
<feFlood flood-opacity="0" result="BackgroundImageFix"/>
<feBlend mode="normal" in="SourceGraphic" in2="BackgroundImageFix" result="shape"/>
<feColorMatrix in="SourceAlpha" type="matrix" values="0 0 0 0 0 0 0 0 0 0 0 0 0 0 0 0 0 0 127 0" result="hardAlpha"/>
<feOffset dy="1"/>
<feComposite in2="hardAlpha" operator="arithmetic" k2="-1" k3="1"/>
<feColorMatrix type="matrix" values="0 0 0 0 0 0 0 0 0 0 0 0 0 0 0 0 0 0 0.05 0"/>
<feBlend mode="normal" in2="shape" result="effect1_innerShadow_180_204"/>
</filter>
<linearGradient id="paint0_linear_180_204" x1="70.9245" y1="61.7953" x2="81.0608" y2="44.2387" gradientUnits="userSpaceOnUse">
<stop offset="0.2" stop-color="#BFC6D8"/>
<stop offset="0.7" stop-color="#ECEFF8"/>
</linearGradient>
<linearGradient id="paint1_linear_180_204" x1="157.302" y1="62.1179" x2="147.109" y2="44.4631" gradientUnits="userSpaceOnUse">
<stop offset="0.2" stop-color="#BFC6D8"/>
<stop offset="0.7" stop-color="#ECEFF8"/>
</linearGradient>
<linearGradient id="paint2_linear_180_204" x1="77.1558" y1="108.915" x2="66.9629" y2="91.2603" gradientUnits="userSpaceOnUse">
<stop offset="0.2" stop-color="#BFC6D8"/>
<stop offset="0.7" stop-color="#ECEFF8"/>
</linearGradient>
<linearGradient id="paint3_linear_180_204" x1="149.832" y1="107.816" x2="160.033" y2="90.147" gradientUnits="userSpaceOnUse">
<stop offset="0.2" stop-color="#BFC6D8"/>
<stop offset="0.7" stop-color="#ECEFF8"/>
</linearGradient>
<linearGradient id="paint4_linear_180_204" x1="113.484" y1="34.02" x2="113.484" y2="95.76" gradientUnits="userSpaceOnUse">
<stop stop-color="#E67373"/>
<stop offset="1" stop-color="#CC6666"/>
</linearGradient>
<linearGradient id="paint5_linear_180_204" x1="113.484" y1="157.5" x2="113.484" y2="1.66827e-06" gradientUnits="userSpaceOnUse">
<stop stop-color="#E62E2E" stop-opacity="0.2"/>
<stop offset="1" stop-color="#E62E2E" stop-opacity="0.2"/>
</linearGradient>
<linearGradient id="paint6_linear_180_204" x1="4.40999" y1="4.41001" x2="106.477" y2="106.463" gradientUnits="userSpaceOnUse">
<stop offset="0.01" stop-color="white" stop-opacity="0.2"/>
<stop offset="1" stop-color="#CC8F99" stop-opacity="0.2"/>
</linearGradient>
</defs>
</svg>
