<svg width="202" height="144" viewBox="0 0 202 144" fill="none" xmlns="http://www.w3.org/2000/svg">
<path d="M201.6 58.6927V85.5711C201.508 86.5836 200.864 87.412 199.943 87.8723C198.931 88.4246 105.777 141.905 104.764 142.458C102.279 143.746 99.3335 143.746 96.8481 142.458C95.8356 141.905 2.68164 88.4246 1.6691 87.8723C0.748602 87.5041 0.104256 86.5836 0.012207 85.5711V58.7847V58.3245H0.104257C0.380405 57.496 0.932701 56.8517 1.6691 56.4835C2.68164 55.9312 95.8356 1.62208 96.8481 1.06979C99.3335 -0.218901 102.279 -0.218901 104.764 1.06979C105.777 1.62208 198.931 55.9312 199.943 56.4835C200.68 56.8517 201.232 57.496 201.508 58.3245H201.6V58.6927Z" fill="#D1D9EB"/>
<path d="M199.942 60.6144C198.929 61.1667 105.775 115.016 104.763 115.66C102.277 116.949 99.3319 116.949 96.8465 115.66C95.834 115.108 2.68013 61.2588 1.66759 60.6144C0.378896 60.1542 -0.265449 58.8655 0.102748 57.5768C0.378896 56.8404 0.931192 56.2881 1.66759 56.012C2.68013 55.4597 95.834 1.61086 96.8465 0.966517C99.3319 -0.322172 102.277 -0.322172 104.763 0.966517C105.775 1.51881 198.929 55.3676 199.942 56.012C201.138 56.3802 201.875 57.7609 201.415 58.9575C201.415 58.9575 201.415 58.9575 201.415 59.0496C201.23 59.786 200.678 60.3383 199.942 60.6144ZM193.314 55.9199C192.394 55.3676 104.947 4.46439 103.934 3.91209C101.633 2.71545 98.7796 2.71545 96.4784 3.91209C95.5579 4.46439 8.11104 55.3676 7.09849 55.9199C5.90185 56.3802 5.25751 57.6689 5.71775 58.8655C5.9939 59.5098 6.45415 59.9701 7.09849 60.2462C8.01899 60.7985 95.5579 111.702 96.4784 112.254C98.7796 113.451 101.633 113.451 103.934 112.254C104.855 111.702 192.394 60.7985 193.314 60.2462C194.511 59.878 195.155 58.5893 194.695 57.3927V57.3007C194.419 56.6563 193.959 56.104 193.314 55.9199Z" fill="white" fill-opacity="0.5"/>
<path d="M96.5724 111.978C95.836 111.61 49.8114 84.8239 24.0376 69.9119C51.9285 53.8033 96.1122 28.3057 96.7565 27.8454C99.2419 26.5567 102.187 26.5567 104.673 27.8454C105.409 28.2136 148.948 53.4351 176.931 69.6358C151.25 84.5477 104.673 111.61 103.936 111.978C101.635 113.267 98.8737 113.267 96.5724 111.978Z" fill="#041A03" fill-opacity="0.6"/>
<path d="M62.4191 105.348C63.1555 105.716 63.7078 106.729 63.7078 107.557C63.7078 108.386 63.1555 108.754 62.4191 108.294C61.6827 107.926 61.1304 106.913 61.1304 106.085C61.1304 105.348 61.6827 104.98 62.4191 105.348Z" fill="black" fill-opacity="0.2"/>
<path d="M62.5104 110.503C63.2468 110.963 63.7991 111.883 63.7991 112.804C63.7991 113.632 63.2468 114.001 62.5104 113.54C61.774 113.172 61.2217 112.16 61.2217 111.331C61.2217 110.503 61.774 110.042 62.5104 110.503Z" fill="#991F1F" fill-opacity="0.4"/>
<path d="M67.2984 108.203C68.0348 108.571 68.5871 109.584 68.5871 110.412C68.5871 111.241 68.0348 111.609 67.2984 111.149C66.5621 110.78 66.0098 109.768 66.0098 108.939C66.0098 108.203 66.5621 107.743 67.2984 108.203Z" fill="black" fill-opacity="0.2"/>
<path d="M67.3898 113.36C68.1261 113.728 68.6784 114.74 68.6784 115.569C68.6784 116.397 68.1261 116.766 67.3898 116.305C66.6534 115.937 66.1011 114.925 66.1011 114.096C66.1011 113.268 66.6534 112.899 67.3898 113.36Z" fill="black" fill-opacity="0.2"/>
<path d="M72.5426 111.425C73.279 111.793 73.8313 112.806 73.8313 113.634C73.8313 114.463 73.279 114.831 72.5426 114.371C71.8062 114.002 71.2539 112.99 71.2539 112.161C71.2539 111.333 71.8062 110.965 72.5426 111.425Z" fill="#991F1F" fill-opacity="0.4"/>
<path d="M72.6344 116.582C73.3708 116.95 73.9231 117.963 73.9231 118.791C73.9231 119.62 73.3708 119.988 72.6344 119.528C71.898 119.159 71.3457 118.147 71.3457 117.318C71.3457 116.49 71.898 116.306 72.6344 116.582Z" fill="black" fill-opacity="0.2"/>
<path d="M77.7931 114.279C78.5295 114.647 79.0818 115.659 79.0818 116.488C79.0818 117.316 78.5295 117.684 77.7931 117.224C77.0567 116.856 76.5044 115.843 76.5044 115.015C76.5044 114.187 77.0567 113.818 77.7931 114.279Z" fill="#991F1F" fill-opacity="0.4"/>
<path d="M77.8839 119.432C78.6203 119.8 79.1726 120.813 79.1726 121.641C79.1726 122.469 78.6203 122.838 77.8839 122.377C77.1475 122.009 76.5952 120.997 76.5952 120.168C76.5952 119.432 77.1475 119.156 77.8839 119.432Z" fill="black" fill-opacity="0.2"/>
<path d="M82.6671 117.226C83.4035 117.594 83.9558 118.607 83.9558 119.435C83.9558 120.264 83.4035 120.632 82.6671 120.172C81.9307 119.803 81.3784 118.791 81.3784 117.963C81.3784 117.042 81.9307 116.858 82.6671 117.226Z" fill="black" fill-opacity="0.2"/>
<path d="M82.7638 122.378C83.5002 122.746 84.0525 123.758 84.0525 124.587C84.0525 125.415 83.5002 125.783 82.7638 125.323C82.0274 124.955 81.4751 123.942 81.4751 123.114C81.4751 122.378 82.0274 122.009 82.7638 122.378Z" fill="#991F1F" fill-opacity="0.4"/>
<path d="M87.9171 120.356C88.6535 120.724 89.2058 121.737 89.2058 122.565C89.2058 123.394 88.6535 123.762 87.9171 123.302C87.1807 122.933 86.6284 121.921 86.6284 121.092C86.6284 120.356 87.1807 120.08 87.9171 120.356Z" fill="black" fill-opacity="0.2"/>
<path d="M88.0084 125.692C88.7448 126.06 89.2971 127.073 89.2971 127.901C89.2971 128.73 88.7448 129.098 88.0084 128.638C87.272 128.27 86.7197 127.257 86.7197 126.429C86.7197 125.6 87.272 125.232 88.0084 125.692Z" fill="#991F1F" fill-opacity="0.4"/>
<path d="M12.5304 76.173C13.2668 76.5412 13.8191 77.5537 13.8191 78.3821C13.8191 79.2106 13.2668 79.4867 12.5304 79.1185C11.794 78.7503 11.2417 77.7378 11.2417 76.9093C11.2417 76.0809 11.886 75.8048 12.5304 76.173Z" fill="black" fill-opacity="0.2"/>
<path d="M12.5299 81.3275C13.2663 81.6957 13.8186 82.7082 13.8186 83.5367C13.8186 84.3651 13.2663 84.6413 12.5299 84.2731C11.7935 83.9049 11.2412 82.8923 11.2412 82.0639C11.2412 81.2354 11.8856 80.8672 12.5299 81.3275Z" fill="#991F1F" fill-opacity="0.4"/>
<path d="M17.4064 79.0223C18.1428 79.3905 18.6951 80.403 18.6951 81.2314C18.6951 82.0599 18.1428 82.336 17.4064 81.9678C16.67 81.5996 16.1177 80.5871 16.1177 79.7587C16.1177 79.0223 16.67 78.7461 17.4064 79.0223Z" fill="#991F1F" fill-opacity="0.4"/>
<path d="M17.4064 84.272C18.1428 84.6402 18.6951 85.6528 18.6951 86.4813C18.6951 87.3097 18.1428 87.5859 17.4064 87.2177C16.67 86.8495 16.1177 85.8369 16.1177 85.0084C16.1177 84.18 16.67 83.8118 17.4064 84.272Z" fill="black" fill-opacity="0.2"/>
<path d="M22.5621 82.4307C23.2985 82.7989 23.8508 83.8115 23.8508 84.64C23.8508 85.4684 23.2985 85.7446 22.5621 85.3764C21.8257 85.0082 21.2734 83.9956 21.2734 83.1671C21.2734 82.4307 21.8257 81.9705 22.5621 82.4307Z" fill="black" fill-opacity="0.2"/>
<path d="M22.5621 87.5828C23.2985 87.951 23.8508 88.9636 23.8508 89.792C23.8508 90.6205 23.2985 90.8966 22.5621 90.5284C21.8257 90.1602 21.2734 89.1477 21.2734 88.3192C21.2734 87.4908 21.8257 87.1226 22.5621 87.5828Z" fill="black" fill-opacity="0.2"/>
<path d="M31.1089 88.9822C31.1089 88.4221 31.1089 88.1421 31.2033 87.9827C31.2863 87.8425 31.4188 87.766 31.5817 87.7642C31.767 87.7622 32.0095 87.9022 32.4945 88.1822L35.5585 89.9512C36.0436 90.2312 36.2861 90.3712 36.4713 90.5872C36.6343 90.7771 36.7668 91.0066 36.8498 91.2427C36.9442 91.5111 36.9442 91.7912 36.9442 92.3512L36.9442 95.8892C36.9442 96.4493 36.9442 96.7293 36.8498 96.8887C36.7668 97.0289 36.6343 97.1054 36.4713 97.1072C36.2861 97.1093 36.0436 96.9692 35.5585 96.6892L32.4945 94.9202C32.0095 94.6402 31.767 94.5002 31.5817 94.2842C31.4188 94.0943 31.2863 93.8648 31.2033 93.6287C31.1089 93.3603 31.1089 93.0803 31.1089 92.5202L31.1089 88.9822Z" fill="black" fill-opacity="0.1"/>
<path d="M39.8125 94.4318C39.8125 93.8717 39.8125 93.5917 39.9069 93.4323C39.9899 93.2921 40.1224 93.2156 40.2854 93.2138C40.4706 93.2117 40.7131 93.3518 41.1981 93.6318L44.2621 95.4008C44.7472 95.6808 44.9897 95.8208 45.1749 96.0368C45.3379 96.2267 45.4704 96.4562 45.5534 96.6923C45.6478 96.9607 45.6478 97.2407 45.6478 97.8008L45.6478 101.339C45.6478 101.899 45.6478 102.179 45.5534 102.338C45.4704 102.479 45.3379 102.555 45.1749 102.557C44.9897 102.559 44.7472 102.419 44.2621 102.139L41.1981 100.37C40.7131 100.09 40.4706 99.9498 40.2854 99.7338C40.1224 99.5439 39.9899 99.3144 39.9069 99.0783C39.8125 98.8099 39.8125 98.5298 39.8125 97.9698L39.8125 94.4318Z" fill="black" fill-opacity="0.1"/>
<path d="M48.5962 99.6929C48.5962 99.1328 48.5962 98.8528 48.6906 98.6934C48.7736 98.5532 48.9061 98.4767 49.069 98.4749C49.2543 98.4729 49.4968 98.6129 49.9818 98.8929L53.0458 100.662C53.5309 100.942 53.7734 101.082 53.9586 101.298C54.1216 101.488 54.2541 101.717 54.3371 101.953C54.4315 102.222 54.4315 102.502 54.4315 103.062L54.4315 106.6C54.4315 107.16 54.4315 107.44 54.3371 107.599C54.2541 107.74 54.1216 107.816 53.9586 107.818C53.7734 107.82 53.5309 107.68 53.0458 107.4L49.9818 105.631C49.4968 105.351 49.2543 105.211 49.069 104.995C48.9061 104.805 48.7736 104.575 48.6906 104.339C48.5962 104.071 48.5962 103.791 48.5962 103.231L48.5962 99.6929Z" fill="black" fill-opacity="0.1"/>
<path d="M155.634 98.0284C155.24 94.667 152.578 93.4193 149.363 95.2754C146.874 96.7124 144.712 99.6406 143.725 102.858C141.786 104.647 140.333 107.601 140.333 109.874C140.333 112.749 142.358 113.919 144.848 112.481L154.782 106.746C156.774 105.596 158.394 102.79 158.394 100.489C158.393 99.5554 158.12 98.8056 157.62 98.3595C157.12 97.9134 156.421 97.7968 155.634 98.0284Z" fill="black" fill-opacity="0.1"/>
</svg>
