<svg width="199" height="142" viewBox="0 0 199 142" fill="none" xmlns="http://www.w3.org/2000/svg">
<path d="M198.4 57.761V84.2128C198.309 85.2093 197.675 86.0245 196.769 86.4775C195.773 87.021 104.098 139.653 103.101 140.196C100.655 141.465 97.7564 141.465 95.3106 140.196C94.3141 139.653 2.63878 87.021 1.64231 86.4775C0.736425 86.1151 0.102307 85.2093 0.0117188 84.2128V57.8516V57.3987H0.102307C0.374072 56.5834 0.917601 55.9493 1.64231 55.5869C2.63878 55.0434 94.3141 1.59633 95.3106 1.0528C97.7564 -0.215435 100.655 -0.215435 103.101 1.0528C104.098 1.59633 195.773 55.0434 196.769 55.5869C197.494 55.9493 198.038 56.5834 198.309 57.3987H198.4V57.761V57.761Z" fill="#D1D9EB"/>
<path d="M196.768 59.6523C195.772 60.1958 104.096 113.19 103.1 113.824C100.654 115.092 97.7552 115.092 95.3093 113.824C94.3128 113.28 2.63759 60.2864 1.64112 59.6523C0.372882 59.1994 -0.261236 57.9311 0.101117 56.6629C0.372882 55.9382 0.916411 55.3947 1.64112 55.1229C2.63759 54.5794 94.3128 1.58529 95.3093 0.951176C97.7552 -0.317059 100.654 -0.317059 103.1 0.951176C104.096 1.4947 195.772 54.4888 196.768 55.1229C197.946 55.4852 198.67 56.8441 198.218 58.0217C198.218 58.0217 198.218 58.0217 198.218 58.1123C198.036 58.837 197.493 59.3805 196.768 59.6523ZM190.246 55.0323C189.34 54.4888 103.281 4.39353 102.285 3.85C100.02 2.67235 97.2117 2.67235 94.947 3.85C94.0411 4.39353 7.98229 54.4888 6.98582 55.0323C5.80817 55.4852 5.17406 56.7535 5.627 57.9311C5.89876 58.5652 6.3517 59.0182 6.98582 59.2899C7.8917 59.8335 94.0411 109.929 94.947 110.472C97.2117 111.65 100.02 111.65 102.285 110.472C103.19 109.929 189.34 59.8335 190.246 59.2899C191.423 58.9276 192.058 57.6594 191.605 56.4817V56.3911C191.333 55.757 190.88 55.2135 190.246 55.0323Z" fill="white" fill-opacity="0.5"/>
<path d="M95.0402 110.201C94.3155 109.839 49.0214 83.4775 23.6567 68.8022C51.105 52.9493 94.5873 27.8564 95.2214 27.4034C97.6673 26.1352 100.566 26.1352 103.012 27.4034C103.737 27.7658 146.585 52.5869 174.124 68.5305C148.85 83.2057 103.012 109.839 102.287 110.201C100.023 111.469 97.3049 111.469 95.0402 110.201Z" fill="#0A1833" fill-opacity="0.6"/>
<path d="M61.4284 103.676C62.1531 104.039 62.6966 105.035 62.6966 105.85C62.6966 106.666 62.1531 107.028 61.4284 106.575C60.7037 106.213 60.1602 105.216 60.1602 104.401C60.1602 103.676 60.7037 103.314 61.4284 103.676Z" fill="black" fill-opacity="0.2"/>
<path d="M61.5182 108.749C62.2429 109.202 62.7865 110.108 62.7865 111.014C62.7865 111.829 62.2429 112.191 61.5182 111.738C60.7935 111.376 60.25 110.38 60.25 109.564C60.25 108.749 60.7935 108.296 61.5182 108.749Z" fill="#1F9939" fill-opacity="0.4"/>
<path d="M66.2301 106.485C66.9548 106.848 67.4983 107.844 67.4983 108.659C67.4983 109.475 66.9548 109.837 66.2301 109.384C65.5054 109.022 64.9619 108.025 64.9619 107.21C64.9619 106.485 65.5054 106.032 66.2301 106.485Z" fill="black" fill-opacity="0.2"/>
<path d="M66.3205 111.56C67.0452 111.923 67.5887 112.919 67.5887 113.734C67.5887 114.55 67.0452 114.912 66.3205 114.459C65.5958 114.097 65.0522 113.1 65.0522 112.285C65.0522 111.47 65.5958 111.107 66.3205 111.56Z" fill="black" fill-opacity="0.2"/>
<path d="M71.3913 109.657C72.116 110.019 72.6596 111.015 72.6596 111.831C72.6596 112.646 72.116 113.008 71.3913 112.555C70.6666 112.193 70.123 111.197 70.123 110.381C70.123 109.566 70.6666 109.204 71.3913 109.657Z" fill="#1F9939" fill-opacity="0.4"/>
<path d="M71.4811 114.732C72.2058 115.094 72.7494 116.09 72.7494 116.906C72.7494 117.721 72.2058 118.083 71.4811 117.63C70.7564 117.268 70.2129 116.272 70.2129 115.456C70.2129 114.641 70.7564 114.46 71.4811 114.732Z" fill="black" fill-opacity="0.2"/>
<path d="M76.5587 112.465C77.2835 112.827 77.827 113.823 77.827 114.639C77.827 115.454 77.2835 115.816 76.5587 115.363C75.834 115.001 75.2905 114.005 75.2905 113.189C75.2905 112.374 75.834 112.012 76.5587 112.465Z" fill="#1F9939" fill-opacity="0.4"/>
<path d="M76.6481 117.536C77.3728 117.898 77.9164 118.895 77.9164 119.71C77.9164 120.525 77.3728 120.888 76.6481 120.435C75.9234 120.073 75.3799 119.076 75.3799 118.261C75.3799 117.536 75.9234 117.264 76.6481 117.536Z" fill="black" fill-opacity="0.2"/>
<path d="M81.3552 115.365C82.0799 115.728 82.6234 116.724 82.6234 117.54C82.6234 118.355 82.0799 118.717 81.3552 118.264C80.6304 117.902 80.0869 116.905 80.0869 116.09C80.0869 115.184 80.6304 115.003 81.3552 115.365Z" fill="black" fill-opacity="0.2"/>
<path d="M81.4504 120.435C82.1751 120.798 82.7186 121.794 82.7186 122.609C82.7186 123.425 82.1751 123.787 81.4504 123.334C80.7257 122.972 80.1821 121.975 80.1821 121.16C80.1821 120.435 80.7257 120.073 81.4504 120.435Z" fill="#1F9939" fill-opacity="0.4"/>
<path d="M86.5217 118.446C87.2464 118.808 87.7899 119.804 87.7899 120.62C87.7899 121.435 87.2464 121.797 86.5217 121.344C85.7969 120.982 85.2534 119.986 85.2534 119.17C85.2534 118.446 85.7969 118.174 86.5217 118.446Z" fill="black" fill-opacity="0.2"/>
<path d="M86.6115 123.697C87.3362 124.059 87.8798 125.056 87.8798 125.871C87.8798 126.687 87.3362 127.049 86.6115 126.596C85.8868 126.234 85.3433 125.237 85.3433 124.422C85.3433 123.606 85.8868 123.244 86.6115 123.697Z" fill="#1F9939" fill-opacity="0.4"/>
<path d="M12.3317 74.9642C13.0564 75.3265 13.5999 76.323 13.5999 77.1383C13.5999 77.9536 13.0564 78.2254 12.3317 77.863C11.607 77.5006 11.0635 76.5042 11.0635 75.6889C11.0635 74.8736 11.6976 74.6018 12.3317 74.9642Z" fill="black" fill-opacity="0.2"/>
<path d="M12.3312 80.0366C13.0559 80.3989 13.5994 81.3954 13.5994 82.2107C13.5994 83.026 13.0559 83.2978 12.3312 82.9354C11.6065 82.5731 11.063 81.5766 11.063 80.7613C11.063 79.946 11.6971 79.5836 12.3312 80.0366Z" fill="#1F9939" fill-opacity="0.4"/>
<path d="M17.1305 77.768C17.8552 78.1304 18.3988 79.1269 18.3988 79.9422C18.3988 80.7574 17.8552 81.0292 17.1305 80.6669C16.4058 80.3045 15.8623 79.308 15.8623 78.4927C15.8623 77.768 16.4058 77.4963 17.1305 77.768Z" fill="#1F9939" fill-opacity="0.4"/>
<path d="M17.1305 82.9344C17.8552 83.2967 18.3988 84.2932 18.3988 85.1085C18.3988 85.9238 17.8552 86.1956 17.1305 85.8333C16.4058 85.4709 15.8623 84.4744 15.8623 83.6591C15.8623 82.8438 16.4058 82.4814 17.1305 82.9344Z" fill="black" fill-opacity="0.2"/>
<path d="M22.2043 81.1223C22.929 81.4847 23.4725 82.4812 23.4725 83.2965C23.4725 84.1118 22.929 84.3836 22.2043 84.0212C21.4796 83.6588 20.936 82.6624 20.936 81.8471C20.936 81.1223 21.4796 80.6694 22.2043 81.1223Z" fill="black" fill-opacity="0.2"/>
<path d="M22.2043 86.1927C22.929 86.555 23.4725 87.5515 23.4725 88.3668C23.4725 89.1821 22.929 89.4539 22.2043 89.0915C21.4796 88.7292 20.936 87.7327 20.936 86.9174C20.936 86.1021 21.4796 85.7397 22.2043 86.1927Z" fill="black" fill-opacity="0.2"/>
<path d="M30.6152 87.5952C30.6152 87.0351 30.6152 86.7551 30.7096 86.5957C30.7927 86.4555 30.9251 86.379 31.0881 86.3772C31.2733 86.3751 31.5159 86.5152 32.0009 86.7952L34.9723 88.5107C35.4573 88.7907 35.6998 88.9307 35.885 89.1467C36.048 89.3366 36.1805 89.5661 36.2635 89.8022C36.3579 90.0706 36.3579 90.3507 36.3579 90.9107L36.3579 94.3418C36.3579 94.9018 36.3579 95.1818 36.2635 95.3413C36.1805 95.4815 36.048 95.558 35.885 95.5598C35.6998 95.5618 35.4573 95.4218 34.9723 95.1418L32.0009 93.4262C31.5159 93.1462 31.2733 93.0062 31.0881 92.7902C30.9251 92.6003 30.7927 92.3708 30.7096 92.1347C30.6152 91.8663 30.6152 91.5863 30.6152 91.0262L30.6152 87.5952Z" fill="#9665FF"/>
<path d="M39.1807 92.9585C39.1807 92.3985 39.1807 92.1184 39.2751 91.959C39.3581 91.8188 39.4906 91.7423 39.6535 91.7405C39.8388 91.7385 40.0813 91.8785 40.5663 92.1585L43.5377 93.874C44.0227 94.1541 44.2652 94.2941 44.4505 94.51C44.6134 94.7 44.7459 94.9295 44.8289 95.1656C44.9233 95.434 44.9233 95.714 44.9233 96.274L44.9233 99.7051C44.9233 100.265 44.9233 100.545 44.8289 100.705C44.7459 100.845 44.6134 100.921 44.4505 100.923C44.2652 100.925 44.0227 100.785 43.5377 100.505L40.5663 98.7896C40.0813 98.5095 39.8388 98.3695 39.6535 98.1536C39.4906 97.9636 39.3581 97.7342 39.2751 97.4981C39.1807 97.2297 39.1807 96.9496 39.1807 96.3896L39.1807 92.9585Z" fill="black" fill-opacity="0.1"/>
<path d="M47.8252 98.1359C47.8252 97.5758 47.8252 97.2958 47.9196 97.1364C48.0026 96.9962 48.1351 96.9197 48.2981 96.9179C48.4833 96.9158 48.7258 97.0559 49.2108 97.3359L52.1822 99.0514C52.6672 99.3314 52.9097 99.4715 53.095 99.6874C53.258 99.8774 53.3904 100.107 53.4735 100.343C53.5679 100.611 53.5679 100.891 53.5679 101.451L53.5679 104.882C53.5679 105.443 53.5679 105.723 53.4735 105.882C53.3904 106.022 53.258 106.099 53.095 106.1C52.9097 106.103 52.6672 105.962 52.1822 105.682L49.2108 103.967C48.7258 103.687 48.4833 103.547 48.2981 103.331C48.1351 103.141 48.0026 102.912 47.9196 102.675C47.8252 102.407 47.8252 102.127 47.8252 101.567L47.8252 98.1359Z" fill="black" fill-opacity="0.1"/>
<path d="M153.164 96.4724C152.776 93.1643 150.157 91.9364 146.993 93.7631C144.544 95.1773 142.416 98.0589 141.444 101.225C139.535 102.986 138.105 105.893 138.105 108.13C138.105 110.96 140.099 112.111 142.549 110.696L152.325 105.052C154.286 103.92 155.88 101.158 155.88 98.8943C155.879 97.9752 155.611 97.2372 155.118 96.7982C154.626 96.3592 153.938 96.2445 153.164 96.4724V96.4724Z" fill="black" fill-opacity="0.1"/>
<path d="M11.2002 99.6329L31.9223 87.56L35.8739 94.6166L18.028 105.13L11.2002 99.6329Z" fill="url(#paint0_linear_180_264)"/>
<defs>
<linearGradient id="paint0_linear_180_264" x1="31.1502" y1="92.2468" x2="15.0494" y2="101.613" gradientUnits="userSpaceOnUse">
<stop stop-color="white" stop-opacity="0.3"/>
<stop offset="1" stop-color="#4DA0FF" stop-opacity="0"/>
<stop offset="1" stop-color="#337EFF" stop-opacity="0"/>
</linearGradient>
</defs>
</svg>
