<svg width="62" height="62" viewBox="0 0 62 62" fill="none" xmlns="http://www.w3.org/2000/svg">
<path fill-rule="evenodd" clip-rule="evenodd" d="M53.8341 51.3915C48.2973 57.5865 39.6578 62.0787 29.3677 61.6493L28.7357 61.6168L25.1718 54.4299C25.0278 54.1394 24.9528 53.8195 24.9528 53.4953C24.9528 52.4017 25.7872 51.503 26.854 51.4011L27.0566 51.3915H53.8341ZM46.4307 46.1135L60.4762 22.3056L60.6162 22.8126C61.5332 26.2714 63.805 37.7163 55.902 48.8174L55.562 49.2863H48.2427C47.8667 49.2863 47.4976 49.1855 47.1737 48.9944C46.2318 48.4388 45.8818 47.2635 46.336 46.2929L46.4307 46.1135ZM5.19283 14.2146L6.60114 14.1715C27.438 13.5698 35.3658 15.0011 35.2438 20.8665C35.2438 22.0375 37.1936 21.2347 40.1383 23.3135C43.0033 25.3362 44.9984 27.7082 44.5978 33.3854L44.5588 33.8662C44.5588 33.8662 40.7533 28.2687 27.4548 32.4451C26.4267 32.768 38.1514 31.6904 39.4849 36.9123C33.1036 33.6483 24.8758 35.1817 21.0862 39.9187C17.3871 44.5426 18.7284 51.1097 25.543 61.2352C21.8973 60.6063 18.4715 59.3385 15.3836 57.5492L15.1841 57.2463C14.06 55.4813 11.1667 49.9743 12.1921 41.3392L12.0633 41.5726C11.6029 42.4849 10.1063 46.1717 10.8829 54.3759C7.29432 51.3327 4.41129 47.486 2.5121 43.1109C3.4262 40.2347 6.53285 34.1028 11.087 30.8129C8.0956 31.4965 1.18524 39.4117 1.18524 39.4117L1.00396 38.7564C0.281945 36.0276 -0.369508 32.0094 0.244129 26.7808C2.09997 25.2975 6.04001 22.6299 10.9821 21.2347C5.27196 21.0246 0.732277 24.0348 0.732277 24.0348C2.62293 16.8163 5.19283 14.2146 5.19283 14.2146ZM22.2755 20.6188L21.7158 20.6025C22.4527 24.0234 25.2525 24.817 26.9678 24.9757C28.6831 25.1345 30.7006 22.7534 30.7006 22.7534C27.7393 21.0245 23.7333 20.6853 22.2755 20.6188ZM37.3429 0.679747C47.1686 2.79288 55.2532 9.58355 59.1548 18.6081L59.3711 19.1213L55.264 25.5354C55.0828 25.8184 54.8365 26.0539 54.5456 26.2221C53.5989 26.7696 52.4033 26.4973 51.7809 25.6248L51.6712 25.4542L37.3429 0.679747ZM7.22378 10.9729C12.7814 4.37724 22.084 -0.768271 33.395 0.0947245L34.0254 0.148879L38.3659 7.8346C38.5442 8.15026 38.6378 8.50662 38.6378 8.86914C38.6378 9.96269 37.8035 10.8614 36.7366 10.9633L36.534 10.9729L7.22378 10.9729Z" fill="white"/>
</svg>
