<svg width="126" height="116" viewBox="0 0 126 116" fill="none" xmlns="http://www.w3.org/2000/svg">
<g clip-path="url(#clip0_191_380)">
<mask id="mask0_191_380" style="mask-type:luminance" maskUnits="userSpaceOnUse" x="0" y="0" width="126" height="116">
<path d="M126 0H0V116H126V0Z" fill="white"/>
</mask>
<g mask="url(#mask0_191_380)">
<path d="M52.4444 111.167V110.24L54.6147 108.236C54.7994 108.058 54.9542 107.897 55.0792 107.755C55.2062 107.612 55.3024 107.473 55.3681 107.336C55.4335 107.198 55.4662 107.048 55.4662 106.888C55.4662 106.71 55.4255 106.556 55.3441 106.428C55.2629 106.297 55.1517 106.197 55.0107 106.128C54.8699 106.056 54.7099 106.021 54.5314 106.021C54.3448 106.021 54.182 106.058 54.0431 106.134C53.9043 106.209 53.7969 106.317 53.7216 106.457C53.6462 106.598 53.6084 106.765 53.6084 106.959H52.3848C52.3848 106.561 52.4751 106.216 52.6557 105.923C52.8364 105.63 53.0894 105.403 53.4151 105.243C53.7405 105.082 54.1156 105.002 54.5403 105.002C54.977 105.002 55.3572 105.08 55.6806 105.234C56.0061 105.386 56.2593 105.598 56.4398 105.869C56.6203 106.14 56.7107 106.451 56.7107 106.802C56.7107 107.031 56.6651 107.258 56.5738 107.482C56.4844 107.705 56.3247 107.954 56.0945 108.227C55.8643 108.498 55.5396 108.824 55.1209 109.204L54.2307 110.074V110.115H56.7911V111.167H52.4444ZM60.1158 111.3C59.6038 111.298 59.1633 111.173 58.794 110.923C58.4269 110.674 58.1439 110.312 57.9455 109.839C57.749 109.366 57.6518 108.797 57.6537 108.132C57.6537 107.469 57.7521 106.904 57.9484 106.436C58.1471 105.969 58.4299 105.614 58.797 105.37C59.1662 105.125 59.6058 105.002 60.1158 105.002C60.6261 105.002 61.0647 105.125 61.4318 105.37C61.8011 105.616 62.0848 105.972 62.2833 106.439C62.4817 106.905 62.5801 107.469 62.5782 108.132C62.5782 108.799 62.4788 109.369 62.2804 109.842C62.0839 110.315 61.8021 110.677 61.4347 110.926C61.0676 111.176 60.6281 111.3 60.1158 111.3ZM60.1158 110.234C60.4652 110.234 60.7441 110.059 60.9525 109.709C61.1609 109.358 61.2641 108.833 61.2622 108.132C61.2622 107.671 61.2145 107.287 61.1192 106.98C61.0259 106.673 60.8929 106.442 60.7204 106.288C60.5496 106.134 60.3482 106.056 60.1158 106.056C59.7686 106.056 59.4907 106.23 59.2823 106.576C59.0739 106.922 58.9688 107.441 58.9668 108.132C58.9668 108.599 59.0133 108.989 59.1066 109.302C59.2018 109.613 59.3358 109.846 59.5086 110.003C59.6811 110.157 59.8837 110.234 60.1158 110.234ZM63.4972 111.167V110.24L65.6676 108.236C65.8522 108.058 66.0071 107.897 66.1321 107.755C66.2591 107.612 66.3555 107.473 66.4209 107.336C66.4863 107.198 66.5191 107.048 66.5191 106.888C66.5191 106.71 66.4786 106.556 66.3972 106.428C66.3158 106.297 66.2045 106.197 66.0638 106.128C65.9227 106.056 65.7631 106.021 65.5842 106.021C65.3977 106.021 65.2351 106.058 65.096 106.134C64.9571 106.209 64.85 106.317 64.7744 106.457C64.6991 106.598 64.6613 106.765 64.6613 106.959H63.4376C63.4376 106.561 63.528 106.216 63.7088 105.923C63.8893 105.63 64.1423 105.403 64.4679 105.243C64.7933 105.082 65.1684 105.002 65.5932 105.002C66.0298 105.002 66.41 105.08 66.7335 105.234C67.0592 105.386 67.3121 105.598 67.4926 105.869C67.6734 106.14 67.7635 106.451 67.7635 106.802C67.7635 107.031 67.718 107.258 67.6266 107.482C67.5375 107.705 67.3776 107.954 67.1474 108.227C66.9172 108.498 66.5927 108.824 66.1738 109.204L65.2835 110.074V110.115H67.844V111.167H63.4972ZM71.1183 111.25C70.8045 111.248 70.5019 111.195 70.2101 111.092C69.9203 110.989 69.6603 110.822 69.4301 110.59C69.1999 110.359 69.0173 110.052 68.8823 109.67C68.7493 109.288 68.6829 108.819 68.6829 108.263C68.6848 107.752 68.7434 107.296 68.8585 106.894C68.9756 106.49 69.1423 106.147 69.3587 105.866C69.577 105.585 69.8379 105.371 70.1418 105.225C70.4454 105.077 70.7859 105.002 71.1629 105.002C71.5697 105.002 71.9291 105.081 72.2407 105.24C72.5523 105.396 72.8023 105.609 72.9909 105.878C73.1815 106.147 73.2966 106.449 73.3361 106.784H72.065C72.0153 106.572 71.9111 106.406 71.7524 106.285C71.5937 106.164 71.3972 106.104 71.1629 106.104C70.766 106.104 70.4643 106.276 70.2579 106.621C70.0534 106.965 69.9492 107.433 69.9453 108.025H69.987C70.0781 107.845 70.2012 107.691 70.356 107.565C70.5128 107.436 70.6904 107.338 70.8891 107.271C71.0895 107.202 71.3008 107.167 71.5232 107.167C71.8845 107.167 72.206 107.252 72.4878 107.422C72.7696 107.59 72.9918 107.822 73.1547 108.117C73.3175 108.412 73.3989 108.749 73.3989 109.13C73.3989 109.541 73.3025 109.908 73.1101 110.228C72.9194 110.549 72.6526 110.801 72.309 110.982C71.9678 111.163 71.5707 111.252 71.1183 111.25ZM71.1122 110.24C71.3107 110.24 71.4883 110.193 71.6453 110.098C71.8021 110.003 71.9249 109.874 72.0144 109.712C72.1038 109.549 72.1483 109.367 72.1483 109.165C72.1483 108.963 72.1038 108.782 72.0144 108.622C71.9271 108.462 71.806 108.334 71.6511 108.239C71.4963 108.144 71.3197 108.096 71.1212 108.096C70.9724 108.096 70.8343 108.124 70.7073 108.179C70.5823 108.235 70.4721 108.312 70.3768 108.411C70.2835 108.51 70.2101 108.625 70.1566 108.756C70.103 108.884 70.0761 109.022 70.0761 109.168C70.0761 109.364 70.121 109.543 70.2101 109.706C70.3015 109.868 70.4246 109.998 70.5794 110.095C70.7362 110.192 70.9138 110.24 71.1122 110.24Z" fill="white"/>
<path d="M8.62465 55.1039C7.94999 48.3771 1.20663 46.7809 3.59289 37.4612C3.67598 37.1355 3.46992 36.4286 4.13462 36.7022C4.8824 37.0084 7.14238 39.9956 7.5711 40.8296L9.61838 46.1458C9.36245 43.7482 10.5556 41.2073 10.2565 38.8457C9.98063 36.6826 7.90677 34.1451 7.62428 31.653C7.32183 28.9592 7.71069 25.8482 9.45552 23.6755C12.3436 26.275 11.8883 29.5454 12.7092 32.8616C12.789 33.1874 12.8056 33.842 13.2742 33.7671C13.4736 31.9138 14.4574 30.0798 14.8628 28.3173C15.7203 24.5843 15.3979 20.7535 18.6018 17.6491C18.9142 17.3461 21.563 15.4926 21.7491 15.5285C22.9954 15.7793 22.0416 20.1704 21.7424 21.0532C20.1605 25.7083 15.0456 28.1643 14.6136 33.4447C15.8732 32.487 16.2587 30.8517 17.2757 29.7083C19.0837 27.6757 22.8292 26.4475 25.5744 26.6073C24.5741 28.9331 23.0619 31.8029 20.9382 33.298C18.645 34.9138 14.5571 35.2461 13.0017 37.5719C11.556 39.7348 11.5526 43.0382 10.9544 45.4974C12.4167 43.7451 13.344 41.4582 15.1619 40.0152C16.3218 39.0932 18.645 37.8585 20.1106 37.6925C20.9382 37.598 20.6158 38.5166 20.5061 39.064C19.8913 42.1554 17.9371 44.6083 15.6073 46.6409C14.1516 47.908 9.95405 50.1524 9.95405 52.1754V59.1791C10.8148 59.2441 10.5091 59.2311 10.6088 58.6904C11.084 56.1039 11.2502 54.3547 12.9518 52.185C13.4038 51.6086 17.9071 47.0578 18.2229 49.2372C17.3388 51.273 17.7443 53.397 17.0032 55.5046C15.481 59.8403 9.69815 62.7915 11.4396 67.9905L13.2775 74.1668V68.4661C13.2775 66.7201 16.0128 62.4658 17.3621 61.241C18.8211 59.9152 19.2432 64.0523 19.2764 64.8764C19.4625 69.8733 17.1959 71.7953 15.7768 75.8021C14.8961 78.2874 15.4976 79.2681 16.5412 81.5548C17.2391 83.0792 18.5453 85.1933 19.5888 86.5452C19.4559 84.9067 18.4821 83.418 18.2993 81.7892C17.9969 79.0953 19.2066 73.9094 20.9215 71.7465C21.4832 71.0362 22.3407 73.9125 22.4171 74.1668C24.4942 81.0139 22.3673 82.7699 22.221 88.6658C22.1446 91.8256 24.973 94.2589 27.0566 96.3276L30.5562 98.9204C26.9703 95.2461 25.7605 91.1383 26.2424 86.0631C26.2923 85.542 26.6413 82.6623 27.5586 83.2909C29.2933 86.2813 31.8526 88.6269 32.2148 92.2492C32.3808 93.9105 32.0186 95.7901 32.248 97.4286C32.6103 100.038 35.0065 102.031 37.1002 103.422C38.1373 104.11 42.9529 106.182 43.1325 106.465C43.6176 107.23 43.2321 108.582 41.8495 108.227C38.8051 107.452 34.3452 103.487 31.9056 102.976C29.1172 102.393 25.375 103.364 22.3207 102.595C19.0338 101.768 15.5109 98.8685 13.6032 96.1582C16.8835 95.5782 20.2236 95.7933 23.3311 97.0475C25.2388 97.8163 26.4518 99.2266 27.9873 99.9761C28.2863 100.122 29.0309 100.474 29.2235 100.067C26.0231 98.0833 23.6036 93.6043 20.0641 92.4315C15.7701 91.0047 13.5035 91.7475 9.77457 88.1837C8.96032 87.4053 5.63683 83.3269 5.30116 82.4702C5.02863 81.7699 5.67671 82.0369 6.0423 82.0661C11.3865 82.5222 14.5936 84.5256 18.2561 88.174C17.2757 86.0242 15.6538 82.1118 13.9057 80.5514C12.4832 79.2778 9.92747 78.7046 8.18927 77.685C4.63646 75.6032 2.14717 71.6585 0.987277 67.8015C0.831073 67.2805 1.02051 67.2967 1.47251 67.3228C3.75906 67.4562 5.72323 68.9905 7.70405 69.9255L11.9382 75.1441L9.09991 66.3651C6.13203 63.9252 2.84842 61.9413 1.47915 58.1984C1.17339 57.3613 -0.0961783 51.6966 0.00020279 51.2176C0.0533787 50.9506 0.448874 50.6932 0.771252 50.742C1.02051 50.7812 4.56999 53.1169 4.96217 53.4849C7.21881 55.6056 7.68743 58.674 8.62465 61.4592C9.44222 61.4592 8.62133 60.5015 8.62133 60.3224C8.62133 58.674 8.78084 56.6967 8.62133 55.1104L8.62465 55.1039Z" fill="white"/>
<path d="M113.647 72.5317C114.152 72.5317 114.271 71.5479 114.398 71.1506C115.053 69.1242 115.664 66.0524 115.232 63.9743C114.916 62.4561 112.351 60.0781 111.383 58.6255C109.33 55.5341 108.143 52.1691 108.329 48.4293C110.622 49.0386 112.942 51.3709 114.109 53.3482C114.454 53.9379 115.471 56.7262 115.644 56.8956C116.199 57.43 116.216 56.8111 116.292 56.4005C116.528 55.153 116.708 53.863 116.548 52.5826C115.92 47.4619 111.064 47.5011 108.386 43.9732C107.089 42.2661 106.335 39.7578 106.003 37.6795C110.602 38.1781 113.145 41.7774 115.355 45.286C115.551 45.5953 116.056 46.2925 115.95 45.3575C115.013 42.3509 115.548 37.9859 112.434 36.0966C109.486 34.308 106.681 34.2592 104.201 31.1354C103.62 30.4024 101.13 26.3826 102.556 25.9753C104.151 25.5227 109.216 28.2622 110.16 29.8551L112.646 33.4416C111.702 26.262 103.537 23.0306 104.673 15.1996C105.777 14.1539 109.928 18.9979 110.506 20.0696C111.749 22.3726 111.506 23.933 112.068 26.0307C112.703 28.3956 113.74 30.6533 113.982 33.1159L115.578 26.7052C115.661 26.1481 117.412 23.9199 117.964 24.3238C119.273 27.4575 119.971 31.3894 118.705 34.6567C118.313 35.6729 117.356 36.5101 116.914 37.4581C115.448 40.5918 117.894 44.6736 117.306 48.1004L118.113 43.5235C119.13 40.709 120.752 38.2269 123.119 36.3832C124.206 36.3897 124.042 41.7874 123.946 42.7255C123.574 46.351 121.238 48.2338 119.353 50.9279C116.994 54.3025 118.127 58.8142 117.306 62.7623L119.456 57.8729C120.832 55.2214 123.082 53.0812 125.94 52.0159C126.316 55.8826 124.913 60.2964 122.085 63.0555C120.586 64.5183 118.379 65.2317 117.293 67.1534C115.993 69.4468 115.76 72.8705 114.664 75.3331C114.624 76.2159 114.717 76.0562 115.056 75.3918C117.339 70.9128 120.28 69.1177 124.784 67.0101C126.452 69.8671 122.926 74.4276 120.6 76.2582C118.273 78.0888 115.265 78.8675 113.142 80.6754C111.054 82.4541 109.705 85.5225 107.99 87.6823C108.05 88.7311 108.313 87.8647 108.559 87.6301C109.865 86.4087 110.842 85.1448 112.473 84.2586C114.846 82.9654 117.578 82.3369 120.29 82.3139C120.038 84.9655 116.98 88.0668 114.75 89.4218C111.629 91.3177 107.282 91.6272 104.361 93.5719C103.048 94.4448 101.779 96.432 100.526 97.6307C99.7511 98.3734 98.6845 98.8424 98.0264 99.7417L102.683 97.4645C103.626 97.1029 107.046 95.9922 107.827 95.9922H112.979C111.889 100.087 105.484 102.82 101.506 103.152C99.6084 103.312 97.2619 102.739 95.6867 102.96C93.7855 103.227 85.0348 109.306 83.7453 108.361C83.2136 107.973 83.4894 107.042 84.0777 106.592C87.1286 104.256 93.2006 103.383 94.2808 99.0022C95.5204 93.9692 94.1313 91.4967 97.2919 86.3173C98.3453 84.5909 99.5352 82.1674 100.502 84.92C101.47 87.6726 100.924 90.8713 99.914 93.4479C99.6714 94.0637 97.1722 97.761 97.3583 97.9434C97.983 98.0836 98.1461 97.5981 98.5214 97.2953C99.9673 96.1191 103.852 91.8747 104.248 90.2036C104.766 87.9984 103.543 85.6269 103.347 83.4442C102.958 79.0988 103.576 75.4015 105.999 71.7173C106.571 71.3231 107.691 74.4438 107.814 74.8314C109.017 78.6589 108.203 81.3953 107.668 85.2393C109.273 83.3726 111.988 79.4245 111.639 76.9586C111.314 74.6654 107.664 69.9551 107.664 67.4857V60.808C109.752 60.3616 113.647 66.0393 113.647 67.4857V72.5348V72.5317Z" fill="white"/>
<path d="M37.7082 3.77222L39.6724 9.70088H46.0337L40.8888 13.3656L42.8529 19.2942L37.7082 15.6295L32.5602 19.2942L34.5277 13.3656L29.3796 9.70088H35.7407L37.7082 3.77222Z" fill="white"/>
<path d="M63.5717 0L65.5392 5.92866H71.9003L66.7522 9.59335L68.7197 15.5252L63.5717 11.8606L58.427 15.5252L60.3911 9.59335L55.2462 5.92866H61.6075L63.5717 0Z" fill="white"/>
<path d="M89.5913 3.85693L91.5555 9.78884H97.9165L92.7719 13.4535L94.736 19.3822L89.5913 15.7175L84.4464 19.3822L86.4108 13.4535L81.2659 9.78884H87.6272L89.5913 3.85693Z" fill="white"/>
</g>
<path d="M33.0968 60.3652L31.318 57.9802C30.7912 58.0853 30.2773 58.138 29.7767 58.138C28.4723 58.138 27.2736 57.8357 26.1801 57.2313C25.0996 56.6269 24.2368 55.7861 23.5913 54.7085C22.9589 53.6179 22.6427 52.396 22.6427 51.0427C22.6427 49.6891 22.9589 48.4738 23.5913 47.3964C24.2368 46.3188 25.0996 45.4781 26.1801 44.8737C27.2736 44.2692 28.4723 43.9669 29.7767 43.9669C31.081 43.9669 32.2731 44.2692 33.3536 44.8737C34.4471 45.4781 35.3034 46.3188 35.9225 47.3964C36.555 48.4738 36.8712 49.6891 36.8712 51.0427C36.8712 52.2252 36.6274 53.3093 36.1399 54.2945C35.6657 55.267 35.0003 56.0751 34.144 56.7189L37.1874 60.3652H33.0968ZM26.1011 51.0427C26.1011 52.2645 26.4304 53.2435 27.089 53.9794C27.7609 54.702 28.6569 55.0633 29.7767 55.0633C30.8833 55.0633 31.766 54.6955 32.4248 53.9596C33.0967 53.2237 33.4326 52.2515 33.4326 51.0427C33.4326 49.8206 33.0967 48.8483 32.4248 48.1255C31.766 47.3899 30.8833 47.0218 29.7767 47.0218C28.6569 47.0218 27.7609 47.3831 27.089 48.1059C26.4304 48.8285 26.1011 49.8075 26.1011 51.0427ZM57.8795 44.1641L54.2631 58H50.1724L47.9592 48.8943L45.6667 58H41.5761L38.0585 44.1641H41.6749L43.6708 54.2356L46.1411 44.1641H49.8562L52.2277 54.2356L54.2434 44.1641H57.8795ZM98.096 58.138C97.0815 58.138 96.1724 57.9737 95.3689 57.6453C94.5651 57.3168 93.9196 56.8306 93.4321 56.1868C92.9579 55.543 92.7076 54.7677 92.6812 53.861H96.2778C96.3306 54.3736 96.5084 54.7677 96.8113 55.0437C97.1144 55.3064 97.5096 55.4379 97.9972 55.4379C98.4978 55.4379 98.893 55.3262 99.1828 55.1027C99.4726 54.8663 99.6175 54.5442 99.6175 54.137C99.6175 53.7953 99.499 53.5128 99.2618 53.2895C99.0379 53.0662 98.7546 52.8822 98.4122 52.7375C98.0827 52.593 97.6085 52.4289 96.9892 52.245C96.0934 51.969 95.3623 51.693 94.7958 51.417C94.2293 51.141 93.7418 50.7338 93.3335 50.1952C92.9249 49.6565 92.7207 48.9535 92.7207 48.0861C92.7207 46.7985 93.1886 45.7934 94.1239 45.0706C95.0592 44.3347 96.2778 43.9669 97.7798 43.9669C99.3081 43.9669 100.54 44.3347 101.475 45.0706C102.411 45.7934 102.911 46.8051 102.977 48.1059H99.3211C99.2947 47.6591 99.1302 47.3109 98.8271 47.0612C98.5242 46.7985 98.1355 46.6671 97.6611 46.6671C97.2528 46.6671 96.9235 46.7787 96.6732 47.0023C96.4229 47.2125 96.2976 47.5211 96.2976 47.9286C96.2976 48.3752 96.5084 48.7234 96.93 48.973C97.3517 49.2227 98.0103 49.4921 98.9061 49.7812C99.8021 50.0835 100.527 50.3725 101.08 50.6485C101.647 50.9243 102.134 51.3252 102.542 51.8506C102.951 52.3762 103.155 53.0529 103.155 53.8808C103.155 54.6691 102.951 55.3852 102.542 56.029C102.147 56.673 101.567 57.1854 100.803 57.5665C100.039 57.9476 99.1367 58.138 98.096 58.138ZM56.4346 63.4975L51.5141 77.3334H47.2851L42.3643 63.4975H45.9609L49.3995 73.9433L52.8579 63.4975H56.4346ZM68.4194 67.9516C68.4194 68.7532 68.235 69.4891 67.8662 70.1592C67.4974 70.8161 66.9309 71.3482 66.1667 71.7557C65.4027 72.1629 64.454 72.3666 63.321 72.3666H61.2263V77.3334H57.847V63.4975H63.321C64.4276 63.4975 65.3629 63.6879 66.1272 64.069C66.8912 64.4499 67.4645 64.9755 67.8463 65.6456C68.2285 66.3158 68.4194 67.0845 68.4194 67.9516ZM63.0642 69.6861C63.7097 69.6861 64.1904 69.535 64.5066 69.2327C64.8228 68.9306 64.9811 68.5036 64.9811 67.9516C64.9811 67.3999 64.8228 66.9729 64.5066 66.6705C64.1904 66.3685 63.7097 66.2172 63.0642 66.2172H61.2263V69.6861H63.0642ZM82.5891 77.3334H79.2098L73.558 68.7991V77.3334H70.1788V63.4975H73.558L79.2098 72.0708V63.4975H82.5891V77.3334Z" fill="white"/>
<g filter="url(#filter0_i_191_380)">
<path d="M81.8377 43.6788H67.466C62.9853 43.6788 59.353 47.3015 59.353 51.7703V51.7704C59.353 56.2392 62.9853 59.8619 67.466 59.8619H81.8377C86.3184 59.8619 89.9507 56.2392 89.9507 51.7704V51.7703C89.9507 47.3015 86.3184 43.6788 81.8377 43.6788Z" fill="#34C759"/>
</g>
<path d="M81.8374 43.8405H67.4659C63.0748 43.8405 59.5151 47.3907 59.5151 51.7701C59.5151 56.1496 63.0748 59.6998 67.4659 59.6998H81.8374C86.2284 59.6998 89.7881 56.1496 89.7881 51.7701C89.7881 47.3907 86.2284 43.8405 81.8374 43.8405Z" stroke="#E3E3E3" stroke-width="0.133929"/>
<g filter="url(#filter1_d_191_380)">
<path d="M67.8525 59.0526C72.0771 59.0526 75.5019 55.7922 75.5019 51.7703C75.5019 47.7483 72.0771 44.4879 67.8525 44.4879C63.6279 44.4879 60.2031 47.7483 60.2031 51.7703C60.2031 55.7922 63.6279 59.0526 67.8525 59.0526Z" fill="white"/>
</g>
</g>
<defs>
<filter id="filter0_i_191_380" x="59.353" y="43.6788" width="30.5977" height="16.4508" filterUnits="userSpaceOnUse" color-interpolation-filters="sRGB">
<feFlood flood-opacity="0" result="BackgroundImageFix"/>
<feBlend mode="normal" in="SourceGraphic" in2="BackgroundImageFix" result="shape"/>
<feColorMatrix in="SourceAlpha" type="matrix" values="0 0 0 0 0 0 0 0 0 0 0 0 0 0 0 0 0 0 127 0" result="hardAlpha"/>
<feOffset dy="0.267857"/>
<feGaussianBlur stdDeviation="0.133929"/>
<feComposite in2="hardAlpha" operator="arithmetic" k2="-1" k3="1"/>
<feColorMatrix type="matrix" values="0 0 0 0 0 0 0 0 0 0 0 0 0 0 0 0 0 0 0.25 0"/>
<feBlend mode="normal" in2="shape" result="effect1_innerShadow_191_380"/>
</filter>
<filter id="filter1_d_191_380" x="59.9353" y="44.4879" width="15.8345" height="15.1004" filterUnits="userSpaceOnUse" color-interpolation-filters="sRGB">
<feFlood flood-opacity="0" result="BackgroundImageFix"/>
<feColorMatrix in="SourceAlpha" type="matrix" values="0 0 0 0 0 0 0 0 0 0 0 0 0 0 0 0 0 0 127 0" result="hardAlpha"/>
<feOffset dy="0.267857"/>
<feGaussianBlur stdDeviation="0.133929"/>
<feComposite in2="hardAlpha" operator="out"/>
<feColorMatrix type="matrix" values="0 0 0 0 0 0 0 0 0 0 0 0 0 0 0 0 0 0 0.25 0"/>
<feBlend mode="normal" in2="BackgroundImageFix" result="effect1_dropShadow_191_380"/>
<feBlend mode="normal" in="SourceGraphic" in2="effect1_dropShadow_191_380" result="shape"/>
</filter>
<clipPath id="clip0_191_380">
<rect width="126" height="116" fill="white"/>
</clipPath>
</defs>
</svg>
