<?xml version="1.0" encoding="utf-8"?>
<!-- Generator: Adobe Illustrator 28.0.0, SVG Export Plug-In . SVG Version: 6.00 Build 0)  -->
<svg version="1.1" id="Слой_1" xmlns="http://www.w3.org/2000/svg" xmlns:xlink="http://www.w3.org/1999/xlink" x="0px" y="0px"
	 viewBox="0 0 1000 398.9" style="enable-background:new 0 0 1000 398.9;" xml:space="preserve">
<style type="text/css">
	.st0{fill:#8F4794;}
	.st1{fill:#E40646;}
	.st2{fill:#F9B429;}
	.st3{fill:#EF8019;}
	.st4{fill:#78B72A;}
	.st5{fill:#00853F;}
	.st6{fill:#5B57A2;}
	.st7{fill:#0698D6;}
	.st8{fill:#FFFFFF;}
</style>
<g>
	<g>
		<g>
			<path class="st0" d="M100.3,199.4l-52,30L0,313.1l196.9-113.7L100.3,199.4z"/>
		</g>
	</g>
	<g>
		<g>
			<path class="st1" d="M248.9,113.7l-52,30l-48.3,83.7l196.9-113.7L248.9,113.7z"/>
		</g>
	</g>
	<g>
		<g>
			<polygon class="st2" points="196.9,83.7 148.6,0 148.6,171.5 148.6,227.4 148.6,398.9 196.9,315.2 			"/>
		</g>
	</g>
	<g>
		<g>
			<polygon class="st3" points="148.6,0 196.9,83.7 248.9,113.7 345.5,113.7 			"/>
		</g>
	</g>
	<g>
		<g>
			<polygon class="st4" points="148.6,171.5 148.6,398.9 196.9,315.2 196.9,255.2 			"/>
		</g>
	</g>
	<g>
		<g>
			<path class="st5" d="M248.9,285.2l-52,30l-48.3,83.7l196.9-113.7L248.9,285.2z"/>
		</g>
	</g>
	<g>
		<g>
			<polygon class="st6" points="0,85.8 0,313.1 48.3,229.5 48.3,169.4 			"/>
		</g>
	</g>
	<g>
		<g>
			<polygon class="st7" points="148.6,171.5 148.7,171.6 0,85.8 48.3,169.4 248.9,285.2 345.5,285.2 			"/>
		</g>
	</g>
	<g>
		<g>
			<g>
				<path class="st8" d="M918.1,236.7h6.2v10.5h5.8c2.7,0,4.9,0.3,6.7,1c1.8,0.7,3.2,1.6,4.2,2.7c1.1,1.1,1.8,2.4,2.3,3.9
					c0.4,1.5,0.7,3,0.7,4.5c0,1.6-0.2,3.1-0.7,4.6c-0.5,1.5-1.3,2.8-2.4,4c-1.1,1.2-2.6,2.1-4.5,2.8c-1.9,0.7-4.2,1.1-6.9,1.1h-11.3
					V236.7z M924.3,253v12.9h4.5c3.1,0,5.3-0.5,6.6-1.6c1.3-1.1,1.9-2.7,1.9-4.8c0-2.1-0.6-3.7-1.9-4.8c-1.3-1.1-3.5-1.6-6.5-1.6
					H924.3z M950.6,236.7h6.2v35h-6.2V236.7z"/>
			</g>
		</g>
		<g>
			<g>
				<path class="st8" d="M986.7,253.6l13.3,18.1h-7.6l-10.3-14.2l-10.4,14.2h-7.2l13.2-17.8l-12.5-17.2h7.6l9.5,13.2l9.7-13.2h7.2
					L986.7,253.6z"/>
			</g>
		</g>
		<g>
			<g>
				<path class="st8" d="M444.6,266.7c-1.5,1.9-3.5,3.4-5.8,4.4c-2.4,1-4.9,1.5-7.6,1.5c-2.8,0-5.3-0.4-7.6-1.3
					c-2.3-0.9-4.3-2.1-5.9-3.7c-1.7-1.6-2.9-3.5-3.9-5.8c-0.9-2.3-1.4-4.8-1.4-7.5c0-2.5,0.4-4.9,1.3-7.2c0.9-2.2,2.1-4.2,3.7-5.8
					c1.6-1.6,3.5-2.9,5.6-3.9c2.2-1,4.5-1.4,7.1-1.4c2.8,0,5.4,0.4,7.7,1.1c2.4,0.7,4.4,1.9,6,3.5l-2.9,4.9
					c-1.5-1.3-3.1-2.3-4.8-2.8c-1.7-0.5-3.4-0.8-5.3-0.8c-1.6,0-3.1,0.3-4.5,0.9c-1.5,0.6-2.7,1.4-3.9,2.5c-1.1,1.1-2,2.4-2.6,3.9
					c-0.6,1.5-1,3.2-1,5.1c0,1.9,0.3,3.6,1,5.2c0.7,1.5,1.6,2.8,2.7,3.9c1.1,1.1,2.5,1.9,4,2.5c1.5,0.6,3.2,0.9,4.9,0.9
					c2.1,0,4-0.4,5.7-1.2c1.7-0.8,3.1-1.9,4.3-3.3L444.6,266.7z"/>
			</g>
		</g>
		<g>
			<g>
				<path class="st8" d="M452.7,271.7v-35h6.2v26.1l20.3-26.1h6.2v35h-6.2v-26.1L459,271.7H452.7z"/>
			</g>
		</g>
		<g>
			<g>
				<path class="st8" d="M526.6,266.7c-1.5,1.9-3.5,3.4-5.8,4.4c-2.4,1-4.9,1.5-7.6,1.5c-2.8,0-5.3-0.4-7.6-1.3
					c-2.3-0.9-4.3-2.1-5.9-3.7s-2.9-3.5-3.9-5.8c-0.9-2.3-1.4-4.8-1.4-7.5c0-2.5,0.4-4.9,1.3-7.2c0.9-2.2,2.1-4.2,3.7-5.8
					c1.6-1.6,3.5-2.9,5.6-3.9c2.2-1,4.5-1.4,7.1-1.4c2.8,0,5.4,0.4,7.7,1.1c2.4,0.7,4.4,1.9,6,3.5l-2.9,4.9
					c-1.5-1.3-3.1-2.3-4.8-2.8c-1.7-0.5-3.4-0.8-5.3-0.8c-1.6,0-3.1,0.3-4.5,0.9c-1.5,0.6-2.7,1.4-3.9,2.5c-1.1,1.1-2,2.4-2.6,3.9
					c-0.6,1.5-1,3.2-1,5.1c0,1.9,0.3,3.6,1,5.2c0.7,1.5,1.6,2.8,2.7,3.9c1.1,1.1,2.5,1.9,4,2.5c1.5,0.6,3.2,0.9,4.9,0.9
					c2.1,0,4-0.4,5.7-1.2c1.7-0.8,3.1-1.9,4.3-3.3L526.6,266.7z"/>
			</g>
		</g>
		<g>
			<g>
				<path class="st8" d="M529.8,236.7h31.9v6.2h-12.9v28.8h-6.2v-28.8h-12.8V236.7z"/>
			</g>
		</g>
		<g>
			<g>
				<path class="st8" d="M597,267.9c-1.7,1.6-3.8,2.7-6.1,3.5c-2.4,0.8-4.7,1.1-7,1.1c-2.9,0-5.4-0.4-7.7-1.3
					c-2.3-0.9-4.3-2.1-5.9-3.7s-2.9-3.5-3.8-5.8c-0.9-2.3-1.3-4.8-1.3-7.5c0-2.5,0.4-4.9,1.2-7.2c0.8-2.2,2-4.2,3.5-5.8
					c1.5-1.6,3.4-2.9,5.6-3.9c2.2-1,4.8-1.4,7.7-1.4c2.2,0,4.3,0.4,6.3,1.2c2,0.8,3.7,1.9,5.2,3.3c1.5,1.4,2.6,3.1,3.5,5.1
					c0.9,2,1.3,4.2,1.3,6.5c0,1.6-0.1,3-0.4,4.2H572c0.3,3.3,1.5,5.9,3.7,7.7c2.2,1.8,5.1,2.8,8.5,2.8c2.3,0,4.4-0.3,6.2-1.1
					c1.9-0.7,3.4-1.6,4.5-2.6L597,267.9z M582.8,241.7c-3.2,0-5.8,0.9-7.7,2.6c-1.9,1.8-3.1,4-3.4,6.7h21.3
					c-0.2-2.9-1.1-5.2-2.9-6.9C588.3,242.6,585.8,241.7,582.8,241.7z"/>
			</g>
		</g>
		<g>
			<g>
				<path class="st8" d="M607.9,236.7h5.7L627,254l12.8-17.4h5.5v35h-6.2v-25.5l-12.1,16.3h-0.2l-12.6-16.3v25.5h-6.2V236.7z"/>
			</g>
		</g>
		<g>
			<g>
				<path class="st8" d="M656.9,239.1c1.6-1,3.3-1.8,5.4-2.3c2-0.6,4.1-0.9,6.3-0.9c5,0,8.4,1.2,10.4,3.7c2,2.5,3,6,3,10.6v21.5
					h-5.8v-4.5c-1,1.3-2.4,2.5-4.2,3.5c-1.8,1-4.1,1.5-7,1.5c-3.2,0-5.8-0.9-7.8-2.8c-2-1.9-3-4.6-3-8c0-1.8,0.3-3.3,1-4.8
					c0.7-1.4,1.6-2.6,2.8-3.5s2.6-1.6,4.2-2.1c1.6-0.5,3.4-0.7,5.3-0.7c1.3,0,2.8,0.2,4.5,0.5c1.6,0.3,3,0.9,4.2,1.8
					c0-1.6-0.1-3.1-0.3-4.5c-0.2-1.4-0.5-2.5-1.1-3.5c-0.5-1-1.4-1.7-2.4-2.3c-1.1-0.5-2.5-0.8-4.2-0.8c-2.2,0-4,0.2-5.4,0.7
					c-1.4,0.5-2.8,1.1-4.2,1.8L656.9,239.1z M667.1,266.7c2.3,0,4.1-0.5,5.6-1.5c1.4-1,2.6-2,3.5-3v-4.4c-2.2-1.6-4.8-2.3-7.9-2.3
					c-0.9,0-1.9,0.1-2.8,0.4c-0.9,0.2-1.7,0.6-2.4,1c-0.7,0.5-1.3,1.1-1.7,1.8c-0.4,0.7-0.6,1.6-0.6,2.6c0,1.7,0.5,3,1.6,4
					C663.5,266.1,665,266.7,667.1,266.7z"/>
			</g>
		</g>
		<g>
			<g>
				<path class="st8" d="M740.4,221.3c-1.1,1.4-2.3,2.4-3.5,3c-1.3,0.6-2.6,1-4.1,1.3c-1.5,0.3-3.1,0.6-4.8,0.9
					c-1.7,0.3-3.5,0.9-5.4,1.8c-1.7,0.7-3,1.7-4.1,3c-1.1,1.2-1.9,2.6-2.6,4.2c-0.7,1.5-1.2,3.2-1.5,4.8s-0.6,3.3-0.7,5h0.2
					c0.6-1.2,1.3-2.4,2.3-3.3c1-1,2-1.8,3.3-2.6c1.2-0.7,2.5-1.3,3.9-1.7c1.4-0.4,2.9-0.6,4.4-0.6c2.5,0,4.7,0.4,6.8,1.2
					c2,0.8,3.7,2,5.1,3.5c1.4,1.5,2.5,3.4,3.2,5.5c0.8,2.1,1.1,4.5,1.1,7.2c0,2.4-0.4,4.7-1.3,6.9c-0.9,2.2-2.1,4.1-3.7,5.7
					c-1.6,1.6-3.5,2.9-5.7,3.9c-2.2,1-4.6,1.4-7.3,1.4c-2.9,0-5.4-0.5-7.7-1.5c-2.3-1-4.2-2.5-5.8-4.3c-1.6-1.9-2.8-4.2-3.7-6.9
					s-1.3-5.7-1.3-9.1c0-2.6,0.2-5.3,0.5-8.1c0.3-2.8,0.9-5.5,1.9-8.1s2.2-4.9,3.9-7c1.7-2.1,3.9-3.7,6.7-4.9c2-0.9,3.9-1.5,5.5-1.8
					c1.7-0.3,3.2-0.5,4.5-0.8c1.3-0.2,2.5-0.6,3.6-1c1.1-0.4,2.1-1.3,3-2.5L740.4,221.3z M714.1,251.9c0,2.3,0.3,4.3,0.9,6.2
					c0.6,1.8,1.4,3.4,2.4,4.6c1,1.3,2.3,2.3,3.7,3c1.5,0.7,3,1.1,4.7,1.1c1.7,0,3.3-0.3,4.7-0.9c1.4-0.6,2.6-1.5,3.6-2.5
					c1-1.1,1.8-2.3,2.4-3.7c0.6-1.4,0.9-3,0.9-4.6c0-3.4-1-6.3-2.9-8.5c-1.9-2.3-4.7-3.4-8.3-3.4c-1.7,0-3.2,0.3-4.5,0.8
					s-2.5,1.2-3.6,2c-1,0.8-1.9,1.8-2.6,2.8C714.8,249.6,714.4,250.7,714.1,251.9z"/>
			</g>
		</g>
		<g>
			<g>
				<path class="st8" d="M753,236.7h6.2v10.5h5.8c2.7,0,4.9,0.3,6.7,1c1.8,0.7,3.2,1.6,4.2,2.7c1.1,1.1,1.8,2.4,2.3,3.9
					c0.4,1.5,0.7,3,0.7,4.5c0,1.6-0.2,3.1-0.7,4.6c-0.5,1.5-1.3,2.8-2.4,4c-1.1,1.2-2.6,2.1-4.5,2.8c-1.9,0.7-4.2,1.1-6.9,1.1H753
					V236.7z M759.2,253v12.9h4.5c3.1,0,5.3-0.5,6.6-1.6c1.3-1.1,1.9-2.7,1.9-4.8c0-2.1-0.6-3.7-1.9-4.8c-1.3-1.1-3.5-1.6-6.5-1.6
					H759.2z M785.5,236.7h6.2v35h-6.2V236.7z"/>
			</g>
		</g>
		<g>
			<g>
				<path class="st8" d="M832.9,266.7c-1.5,1.9-3.5,3.4-5.8,4.4c-2.4,1-4.9,1.5-7.6,1.5c-2.8,0-5.3-0.4-7.6-1.3
					c-2.3-0.9-4.3-2.1-5.9-3.7c-1.7-1.6-2.9-3.5-3.9-5.8c-0.9-2.3-1.4-4.8-1.4-7.5c0-2.5,0.4-4.9,1.3-7.2c0.9-2.2,2.1-4.2,3.7-5.8
					c1.6-1.6,3.5-2.9,5.6-3.9c2.2-1,4.5-1.4,7.1-1.4c2.8,0,5.4,0.4,7.7,1.1c2.4,0.7,4.4,1.9,6,3.5l-2.9,4.9
					c-1.5-1.3-3.1-2.3-4.8-2.8c-1.7-0.5-3.4-0.8-5.3-0.8c-1.6,0-3.1,0.3-4.5,0.9c-1.5,0.6-2.7,1.4-3.9,2.5c-1.1,1.1-2,2.4-2.6,3.9
					c-0.6,1.5-1,3.2-1,5.1c0,1.9,0.3,3.6,1,5.2c0.7,1.5,1.6,2.8,2.7,3.9s2.5,1.9,4,2.5c1.5,0.6,3.2,0.9,4.9,0.9c2.1,0,4-0.4,5.7-1.2
					c1.7-0.8,3.1-1.9,4.3-3.3L832.9,266.7z"/>
			</g>
		</g>
		<g>
			<g>
				<path class="st8" d="M836.1,236.7H868v6.2h-12.9v28.8h-6.2v-28.8h-12.8V236.7z"/>
			</g>
		</g>
		<g>
			<g>
				<path class="st8" d="M874.8,236.7h6.2v4.1c1.2-1.4,2.9-2.6,5-3.5c2.2-0.9,4.5-1.4,6.9-1.4c2.5,0,4.7,0.4,6.7,1.3
					c2,0.9,3.7,2.1,5.1,3.7c1.4,1.6,2.5,3.4,3.2,5.6c0.8,2.2,1.1,4.6,1.1,7.2c0,2.6-0.4,5.1-1.3,7.4c-0.9,2.3-2.1,4.3-3.7,6
					c-1.6,1.7-3.5,3-5.8,4c-2.2,1-4.7,1.4-7.5,1.4c-1.9,0-3.7-0.2-5.4-0.6c-1.7-0.4-3.2-1-4.5-1.8v17.2h-6.2V236.7z M891.1,241.7
					c-2.1,0-4,0.5-5.8,1.4c-1.8,0.9-3.2,2.1-4.3,3.4v17.4c1.6,1,3.1,1.8,4.6,2.1c1.5,0.4,3.1,0.6,4.7,0.6c1.9,0,3.6-0.3,5.1-1
					c1.5-0.6,2.8-1.5,3.8-2.6c1-1.1,1.8-2.5,2.4-4c0.6-1.6,0.9-3.3,0.9-5.1c0-1.8-0.2-3.4-0.7-4.9c-0.5-1.5-1.2-2.8-2.2-3.9
					c-1-1.1-2.2-1.9-3.6-2.5C894.5,242,892.9,241.7,891.1,241.7z"/>
			</g>
		</g>
		<g>
			<g>
				<path class="st8" d="M440,315h-19.1v29.2h-6.2v-35h31.5v35H440V315z"/>
			</g>
		</g>
		<g>
			<g>
				<path class="st8" d="M481.5,315.4h-12.3l-0.4,5.9c-0.4,5-1,9-1.9,12.1c-0.8,3.1-1.8,5.4-3,7.1c-1.2,1.7-2.6,2.8-4.1,3.3
					c-1.6,0.6-3.2,0.9-5.1,0.9l-0.5-6.1c0.7,0.1,1.4-0.1,2.3-0.5c0.9-0.4,1.7-1.2,2.6-2.6c0.8-1.3,1.6-3.2,2.3-5.7
					c0.7-2.5,1.1-5.7,1.3-9.8l0.6-10.9h24.4v35h-6.2V315.4z"/>
			</g>
		</g>
		<g>
			<g>
				<path class="st8" d="M499.2,311.6c1.6-1,3.3-1.8,5.4-2.3c2-0.6,4.1-0.9,6.3-0.9c5,0,8.4,1.2,10.4,3.7c2,2.5,3,6,3,10.6v21.5
					h-5.8v-4.5c-1,1.3-2.4,2.5-4.2,3.5c-1.8,1-4.1,1.5-7,1.5c-3.2,0-5.8-0.9-7.8-2.8c-2-1.9-3-4.6-3-8c0-1.8,0.3-3.3,1-4.8
					c0.7-1.4,1.6-2.6,2.8-3.5c1.2-0.9,2.6-1.6,4.2-2.1c1.6-0.5,3.4-0.7,5.3-0.7c1.3,0,2.8,0.2,4.5,0.5c1.6,0.3,3,0.9,4.2,1.8
					c0-1.6-0.1-3.1-0.3-4.5c-0.2-1.4-0.5-2.5-1.1-3.5c-0.5-1-1.4-1.7-2.4-2.3c-1.1-0.5-2.5-0.8-4.2-0.8c-2.2,0-4,0.2-5.4,0.7
					c-1.4,0.5-2.8,1.1-4.2,1.8L499.2,311.6z M509.4,339.2c2.3,0,4.1-0.5,5.6-1.5c1.4-1,2.6-2,3.5-3v-4.4c-2.2-1.6-4.8-2.3-7.9-2.3
					c-0.9,0-1.9,0.1-2.8,0.4c-0.9,0.2-1.7,0.6-2.4,1c-0.7,0.5-1.3,1.1-1.7,1.8c-0.4,0.7-0.6,1.6-0.6,2.6c0,1.7,0.5,3,1.6,4
					C505.8,338.7,507.4,339.2,509.4,339.2z"/>
			</g>
		</g>
		<g>
			<g>
				<path class="st8" d="M530.4,309.2h31.9v6.2h-12.9v28.8h-6.2v-28.8h-12.8V309.2z"/>
			</g>
		</g>
		<g>
			<g>
				<path class="st8" d="M597.5,340.4c-1.7,1.6-3.8,2.7-6.1,3.5c-2.4,0.8-4.7,1.1-7,1.1c-2.9,0-5.4-0.4-7.7-1.3
					c-2.3-0.9-4.3-2.1-5.9-3.7c-1.6-1.6-2.9-3.5-3.8-5.8c-0.9-2.3-1.3-4.8-1.3-7.5c0-2.5,0.4-4.9,1.2-7.2c0.8-2.2,2-4.2,3.5-5.8
					c1.5-1.6,3.4-2.9,5.6-3.9c2.2-1,4.8-1.4,7.7-1.4c2.2,0,4.3,0.4,6.3,1.2c2,0.8,3.7,1.9,5.2,3.3c1.5,1.4,2.6,3.1,3.5,5.1
					c0.9,2,1.3,4.2,1.3,6.5c0,1.6-0.1,3-0.4,4.2h-26.9c0.3,3.3,1.5,5.9,3.7,7.7c2.2,1.8,5.1,2.8,8.5,2.8c2.3,0,4.4-0.3,6.2-1.1
					c1.9-0.7,3.4-1.6,4.5-2.6L597.5,340.4z M583.3,314.3c-3.2,0-5.8,0.9-7.7,2.6c-1.9,1.8-3.1,4-3.4,6.7h21.3
					c-0.2-2.9-1.1-5.2-2.9-6.9C588.8,315.1,586.4,314.3,583.3,314.3z"/>
			</g>
		</g>
		<g>
			<g>
				<path class="st8" d="M603,309.2h7.9l12,16.9L610,344.2h-7.6l13.5-18.1L603,309.2z M624.4,309.2h6.2v35h-6.2V309.2z M639.2,326.1
					l13.7,18.1h-7.7l-13-18.1l12.1-16.9h7.7L639.2,326.1z"/>
			</g>
		</g>
		<g>
			<g>
				<path class="st8" d="M687.4,340.4c-1.7,1.6-3.8,2.7-6.1,3.5c-2.4,0.8-4.7,1.1-7,1.1c-2.9,0-5.4-0.4-7.7-1.3
					c-2.3-0.9-4.3-2.1-5.9-3.7c-1.6-1.6-2.9-3.5-3.8-5.8c-0.9-2.3-1.3-4.8-1.3-7.5c0-2.5,0.4-4.9,1.2-7.2c0.8-2.2,2-4.2,3.5-5.8
					c1.5-1.6,3.4-2.9,5.6-3.9c2.2-1,4.8-1.4,7.7-1.4c2.2,0,4.3,0.4,6.3,1.2c2,0.8,3.7,1.9,5.2,3.3c1.5,1.4,2.6,3.1,3.5,5.1
					c0.9,2,1.3,4.2,1.3,6.5c0,1.6-0.1,3-0.4,4.2h-26.9c0.3,3.3,1.5,5.9,3.7,7.7c2.2,1.8,5.1,2.8,8.5,2.8c2.3,0,4.4-0.3,6.2-1.1
					c1.9-0.7,3.4-1.6,4.5-2.6L687.4,340.4z M673.2,314.3c-3.2,0-5.8,0.9-7.7,2.6c-1.9,1.8-3.1,4-3.4,6.7h21.3
					c-0.2-2.9-1.1-5.2-2.9-6.9C678.7,315.1,676.3,314.3,673.2,314.3z"/>
			</g>
		</g>
		<g>
			<g>
				<path class="st8" d="M698.3,344.2v-35h6.2v26.1l20.3-26.1h6.2v35h-6.2v-26.1l-20.3,26.1H698.3z M709.1,291.3
					c0.3,4.1,2.3,6.2,6,6.2c3.5,0,5.4-2,5.7-6.2h5.8c0,1.6-0.3,3-0.8,4.3c-0.5,1.3-1.3,2.5-2.3,3.4c-1,1-2.2,1.7-3.6,2.3
					c-1.4,0.6-3,0.9-4.8,0.9c-1.9,0-3.6-0.3-5.1-0.9c-1.5-0.6-2.7-1.3-3.7-2.3c-1-1-1.7-2.1-2.3-3.4c-0.5-1.3-0.8-2.8-0.8-4.3H709.1
					z"/>
			</g>
		</g>
		<g>
			<g>
				<path class="st8" d="M754,89.9v102.3h-36v-71.9h-34.6v71.9h-36V89.9H754z"/>
			</g>
		</g>
		<g>
			<g>
				<path class="st8" d="M629.7,144.3c0.5,29.7-23.5,50.9-57.5,50.9c-32.2,0-59.4-19.5-59.4-67c0-40.3,25.8-73.6,63.9-74.2
					c16.7,0,53-0.1,53-0.1l-16.8,30.3c0,0-28.6,0-32.4,0c-16.4,0-31.1,11.1-33.2,28c8.8-8.2,22.4-13.1,36.4-13.1
					C610,99.2,629.3,121.5,629.7,144.3z M593.8,146.6c0-11.8-9.1-21.7-21.4-21.7c-12.2,0-21.8,10-21.6,21.9
					c0,12.6,11.2,21.1,20.9,21.1C584.1,167.9,593.8,158.6,593.8,146.6z"/>
			</g>
		</g>
		<g>
			<g>
				<path class="st8" d="M485.1,157.2c0,0-12.1,8.1-28.2,7.8c-10.1,0-23.6-8.8-23.6-24.3c0.2-15.8,13.6-24.3,23.7-24.3
					c15.7-0.5,28.1,7.8,28.1,7.8l13.4-24.2C486.6,91.5,475.2,87,459,86.9c-35.1,0-59.2,28.5-59.2,53.9c0,29.7,26.8,54.2,59,54.4
					c14.2,0.2,28.7-4.5,39.9-13.4L485.1,157.2z"/>
			</g>
		</g>
	</g>
</g>
</svg>
