<svg width="360" height="720" viewBox="0 0 360 720" fill="none" xmlns="http://www.w3.org/2000/svg">
<path d="M502.65 168.358C501.074 165.243 498.789 162.652 496.027 160.85C493.265 159.047 490.125 158.097 486.928 158.097H250.193L289.882 -181.521C290.308 -186.066 289.356 -190.64 287.179 -194.505C285.001 -198.37 281.726 -201.303 277.88 -202.83C274.033 -204.357 269.84 -204.39 265.975 -202.924C262.11 -201.458 258.798 -198.577 256.572 -194.747L-31.3231 370.121C-33.0067 373.188 -33.9294 376.702 -33.9961 380.301C-34.0628 383.9 -33.2712 387.454 -31.7028 390.596C-30.1345 393.738 -27.8461 396.355 -25.0737 398.177C-22.3013 399.999 -19.1452 400.959 -15.9308 400.96H217.267L185.814 741.089C185.505 745.618 186.557 750.134 188.804 753.916C191.05 757.698 194.362 760.531 198.211 761.962C202.061 763.394 206.228 763.343 210.048 761.817C213.869 760.291 217.124 757.377 219.296 753.54L502.434 188.733C504.076 185.662 504.961 182.158 504.999 178.578C505.037 174.999 504.227 171.472 502.65 168.358Z" fill="url(#paint0_linear_11_850)"/>
<defs>
<linearGradient id="paint0_linear_11_850" x1="229.482" y1="-72.1439" x2="229.482" y2="567.324" gradientUnits="userSpaceOnUse">
<stop stop-color="#62FE5F"/>
<stop offset="0.9999" stop-color="#53F9FF" stop-opacity="0"/>
<stop offset="1" stop-color="#57AE4C" stop-opacity="0"/>
</linearGradient>
</defs>
</svg>
