<svg width="344" height="209" viewBox="0 0 344 209" fill="none" xmlns="http://www.w3.org/2000/svg">
<path d="M318.832 44.4073L315.634 51.6369L321.593 56.8323L314.363 53.6341L309.168 59.5926L312.366 52.363L306.407 47.1676L313.637 50.3658L318.832 44.4073Z" fill="#FAFAFA"/>
<path opacity="0.7" d="M111.127 167.217L108.276 159.844L100.389 160.383L107.763 157.533L107.223 149.646L110.074 157.019L117.961 156.48L110.587 159.33L111.127 167.217Z" fill="#FAFAFA"/>
<path d="M329.088 194.481L331.78 197.705L335.657 196.088L332.433 198.78L334.049 202.657L331.357 199.433L327.481 201.049L330.705 198.357L329.088 194.481Z" fill="#FAFAFA"/>
<path d="M200.426 6.91835L196.243 6.54198L194.645 10.4264L195.021 6.24296L191.137 4.64482L195.32 5.02118L196.918 1.13679L196.542 5.3202L200.426 6.91835Z" fill="#FAFAFA"/>
<path opacity="0.5" d="M242.724 112.702L248.511 113.043L250.55 107.618L250.209 113.404L255.634 115.444L249.848 115.102L247.808 120.528L248.15 114.741L242.724 112.702Z" fill="#FAFAFA"/>
<path opacity="0.3" d="M101.662 67.5337L97.3292 71.3837L99.7235 76.6624L95.8736 72.3293L90.5948 74.7236L94.9279 70.8737L92.5336 65.5949L96.3836 69.928L101.662 67.5337Z" fill="#FAFAFA"/>
<path d="M8.03059 135.8L7.04966 139.885L10.6602 142.031L6.57608 141.05L4.42986 144.66L5.4108 140.576L1.80022 138.43L5.88437 139.411L8.03059 135.8Z" fill="#FAFAFA"/>
<circle cx="66" cy="133" r="1" fill="#FAFAFA"/>
<circle cx="36" cy="208" r="1" fill="#FAFAFA"/>
<circle cx="343" cy="118" r="1" fill="#FAFAFA"/>
<circle cx="266" cy="174" r="1" fill="#FAFAFA"/>
<circle cx="253" cy="42" r="1" fill="#FAFAFA"/>
<circle cx="119" cy="9" r="1" fill="#FAFAFA"/>
</svg>
