<svg width="23" height="24" viewBox="0 0 23 24" fill="none" xmlns="http://www.w3.org/2000/svg">
<path d="M14.5347 9.87898L10.2036 5.29298C10.0239 5.12082 9.78863 5.02847 9.54644 5.03506C9.30425 5.04165 9.07372 5.14667 8.9026 5.32837C8.73147 5.51008 8.63284 5.75456 8.62714 6.01118C8.62143 6.26781 8.70909 6.51693 8.87195 6.70698L13.2002 11.293C13.3771 11.4805 13.4765 11.7348 13.4765 12C13.4765 12.2651 13.3771 12.5194 13.2002 12.707L8.87195 17.293C8.69498 17.4806 8.59561 17.7351 8.5957 18.0003C8.59579 18.2656 8.69533 18.52 8.87242 18.7075C9.04952 18.895 9.28966 19.0003 9.54001 19.0002C9.79037 19.0001 10.0304 18.8946 10.2074 18.707L14.5347 14.121C15.0655 13.5584 15.3637 12.7955 15.3637 12C15.3637 11.2045 15.0655 10.4416 14.5347 9.87898Z" fill="white"/>
</svg>
