<svg width="28" height="28" viewBox="0 0 28 28" fill="none" xmlns="http://www.w3.org/2000/svg">
<g clip-path="url(#clip0_180_322)">
<path fill-rule="evenodd" clip-rule="evenodd" d="M6.52167 13.3945C6.57922 14.1054 6.69589 14.8062 6.87167 15.4968C7.175 17.108 7.32783 18.1592 7.6195 19.327C7.7945 20.062 8.02783 20.8448 8.36617 21.8377C8.39549 21.9209 8.45518 21.99 8.53327 22.0311C8.61137 22.0722 8.70212 22.0823 8.78733 22.0593C8.87203 22.0325 8.94276 21.9733 8.98424 21.8947C9.02572 21.8162 9.03461 21.7244 9.009 21.6393C8.729 20.6593 8.554 19.8882 8.414 19.152C8.21567 17.9842 8.12233 16.9447 7.93567 15.3335C7.93567 14.9485 7.72567 14.2707 7.70233 13.6512C7.66494 13.4175 7.71033 13.1782 7.83067 12.9745C7.90067 12.8812 8.05233 12.8578 8.204 12.8112C8.43422 12.7412 8.66756 12.6867 8.904 12.6478L12.4658 11.9467C13.6337 11.7017 14.8015 11.41 15.911 11.165C16.6625 10.9946 17.4227 10.8657 18.1883 10.7788C18.4333 10.7788 18.935 10.6272 19.3562 10.5688C19.5545 10.5688 19.7295 10.5105 19.8345 10.5688C20.0702 10.7847 20.2312 11.0717 20.2907 11.3855C20.3918 11.7083 20.4696 12.0353 20.524 12.3667C20.2673 12.3667 20.0223 12.425 19.7657 12.4833C19.2523 12.5883 18.7495 12.7167 18.2467 12.8333L16.6355 13.2428C16.3314 13.3152 16.0397 13.4202 15.7605 13.5578C15.5373 13.6862 15.3463 13.8495 15.1877 14.0478C15.0198 14.2885 14.9014 14.5601 14.8393 14.8469C14.7772 15.1337 14.7727 15.4299 14.826 15.7185C14.9123 16.289 15.1982 16.8093 15.631 17.1897C16.044 17.5128 16.555 17.682 17.0788 17.668C17.6622 17.6159 18.2385 17.5225 18.8078 17.388L20.7923 16.9913C21.028 16.9727 21.2578 16.926 21.4818 16.8513C21.5824 16.8089 21.6734 16.7468 21.7496 16.6687C21.8257 16.5905 21.8854 16.4979 21.9252 16.3963C21.9974 16.1501 22.0212 15.8921 21.9952 15.6368C21.9234 15.1821 21.8181 14.7332 21.6802 14.294L21.4235 13.1262C21.3549 12.3765 21.2222 11.6341 21.0268 10.9072C20.9101 10.5292 20.6922 10.1903 20.3968 9.92715C20.1407 9.75851 19.8374 9.67632 19.5312 9.69265C19.0489 9.71365 18.5706 9.76421 18.0962 9.84432H17.4183C17.4138 9.77466 17.3878 9.70812 17.3439 9.65381C17.3001 9.59951 17.2405 9.5601 17.1733 9.54099C16.0199 9.14645 14.8507 8.79966 13.6687 8.50149C12.8753 8.31482 12.0703 8.15149 11.263 8.02316C10.9421 7.97523 10.6188 7.94408 10.2947 7.92982C10.3382 7.91096 10.3768 7.88213 10.4072 7.84565C10.4376 7.80918 10.459 7.76608 10.4697 7.71982L11.228 6.07249C11.228 6.07249 11.3447 5.92082 11.3913 5.82749C11.4455 5.86015 11.5046 5.8838 11.5663 5.89749C11.781 5.93404 11.9914 5.98849 12.1975 6.06082C12.5133 6.15416 12.8209 6.27082 13.1203 6.41082L14.7432 7.11082C15.5493 7.45032 16.3672 7.76532 17.1605 8.13982C17.7205 8.39649 18.3283 8.67649 18.8312 8.97982C18.8723 9.0081 18.9187 9.02783 18.9676 9.03787C19.0165 9.0479 19.0669 9.04803 19.1159 9.03824C19.1648 9.02845 19.2113 9.00894 19.2526 8.98087C19.2938 8.9528 19.3291 8.91674 19.3562 8.87482C19.4091 8.7894 19.4265 8.68667 19.4047 8.58857C19.3829 8.49048 19.3236 8.4048 19.2395 8.34982C18.3694 7.715 17.4565 7.14119 16.5072 6.63249C15.5727 6.13082 14.6032 5.69916 13.6337 5.24416C13.3266 5.11645 13.0108 5.01079 12.6887 4.92799C12.3429 4.85343 11.9911 4.81047 11.6375 4.79965C11.4474 4.78166 11.256 4.78166 11.0658 4.79965C10.9543 4.81256 10.8467 4.8483 10.7497 4.90466C10.6301 4.96739 10.5324 5.06505 10.4697 5.18466C10.3997 5.34799 10.3413 5.61632 10.3063 5.72132L9.80467 7.52032C9.77835 7.60082 9.78432 7.68839 9.82132 7.76457C9.85832 7.84075 9.92346 7.89958 10.003 7.92866H9.30183C9.14258 7.91775 8.98276 7.91775 8.8235 7.92866C8.72646 7.94104 8.63198 7.96859 8.5435 8.01032C8.35129 8.1236 8.20601 8.30199 8.134 8.51315C8.05311 8.78227 7.987 9.05449 7.93567 9.32982L7.23333 11.8417C7.09722 11.9202 6.97667 12.0174 6.87167 12.1333C6.60945 12.4991 6.48543 12.9459 6.52167 13.3945ZM21.0618 15.8818L20.6302 15.9635L18.6912 16.1968C18.1662 16.3018 17.6365 16.3718 17.1022 16.4068C16.872 16.4154 16.6457 16.3455 16.4605 16.2085C16.2661 16.0213 16.139 15.7753 16.0988 15.5085C16.0599 15.3877 16.046 15.2602 16.0581 15.1338C16.0701 15.0074 16.1078 14.8848 16.1688 14.7735C16.2424 14.661 16.3426 14.5685 16.4605 14.504C16.6316 14.4068 16.8105 14.329 16.9972 14.2707L18.5162 13.7223C19.0062 13.559 19.4845 13.3723 19.9745 13.2312C20.2016 13.1612 20.4314 13.1028 20.664 13.0562V13.3012L20.8157 14.469C20.8973 14.8198 20.9596 15.1737 21.0023 15.5307C21.0396 15.644 21.0605 15.7625 21.0618 15.8818ZM8.92733 9.73932C9.06733 9.36599 9.13733 9.19099 9.40567 9.17932C9.68178 9.16066 9.95789 9.16066 10.234 9.17932C10.5257 9.17932 10.8068 9.17932 11.0868 9.26099C12.2547 9.38932 13.4225 9.56432 14.5903 9.77432C14.9987 9.84432 15.3953 9.93766 15.7582 10.0193H15.6298C14.4632 10.2177 13.2942 10.4743 12.1263 10.6843L8.5295 11.3855L8.13283 11.5138L8.92733 9.73932ZM22.148 19.1637C22.1851 18.6199 22.1458 18.0737 22.0313 17.5408C22.0187 17.454 21.9767 17.3741 21.9124 17.3143C21.8481 17.2546 21.7654 17.2186 21.6778 17.2123C21.5903 17.2061 21.5032 17.2299 21.4311 17.2799C21.359 17.3299 21.3061 17.403 21.2812 17.4872C21.2677 17.5349 21.2645 17.585 21.2718 17.6342C21.3418 18.0903 21.3418 18.5558 21.2718 19.0108C21.2228 19.2442 21.105 19.4553 20.9335 19.6187C20.6093 19.8358 20.2433 19.9829 19.859 20.0503C19.1917 20.1981 18.5181 20.3113 17.8383 20.3898C16.6705 20.5998 15.5843 20.7515 14.4748 20.9498C12.782 21.2648 11.1113 21.6393 9.43017 22.036C9.3865 22.0444 9.34493 22.0614 9.30781 22.0859C9.27069 22.1103 9.23876 22.1419 9.21385 22.1787C9.16353 22.2531 9.14482 22.3445 9.16183 22.4327C9.17885 22.5208 9.2302 22.5987 9.30459 22.649C9.37898 22.6993 9.47032 22.718 9.5585 22.701C11.2513 22.4793 12.957 22.3743 14.6615 22.1643C15.8293 22.0243 16.9272 21.826 18.06 21.6277C18.8795 21.4793 19.6873 21.2727 20.4773 21.0093C20.8822 20.867 21.2532 20.6395 21.5635 20.3432C21.8808 20.0235 22.0873 19.6093 22.148 19.1637ZM6.48667 3.83016C6.53627 3.80511 6.57986 3.76962 6.61444 3.72613C6.64903 3.68264 6.67379 3.63218 6.68703 3.57822C6.70027 3.52425 6.70167 3.46806 6.69113 3.4135C6.6806 3.35895 6.65838 3.30732 6.626 3.26216C6.59362 3.217 6.55186 3.17939 6.50357 3.1519C6.45528 3.12441 6.40161 3.1077 6.34625 3.10292C6.29089 3.09814 6.23515 3.1054 6.18286 3.12419C6.13058 3.14299 6.08298 3.17289 6.04333 3.21182C5.50356 3.48016 4.98983 3.79127 4.50217 4.14515C4.28851 4.30228 4.08582 4.47379 3.8955 4.65849C3.71117 4.84164 3.53929 5.03691 3.381 5.24299C3.031 5.74621 2.72728 6.27588 2.46983 6.83199C2.42369 6.90721 2.40767 6.99709 2.42498 7.08363C2.44229 7.17016 2.49164 7.24696 2.56317 7.29866C2.63616 7.34884 2.72592 7.3684 2.81318 7.35313C2.90044 7.33786 2.97822 7.28898 3.02983 7.21699C3.4265 6.80632 3.84339 6.41704 4.2805 6.04916L4.79383 5.55915L5.2955 5.04466C5.6805 4.65966 6.055 4.21632 6.48667 3.83016ZM10.7263 1.79782C11.3164 1.65264 11.9179 1.55896 12.5242 1.51782L13.4003 1.38949C13.692 1.38949 13.9837 1.28449 14.287 1.26116C14.5915 1.23782 14.9065 1.26116 15.2227 1.26116C15.2711 1.2694 15.3207 1.2677 15.3684 1.25615C15.4162 1.24459 15.4611 1.22343 15.5004 1.19396C15.5397 1.16448 15.5726 1.12731 15.597 1.0847C15.6215 1.0421 15.637 0.994957 15.6427 0.946155C15.651 0.897056 15.6493 0.846794 15.6379 0.79833C15.6265 0.749866 15.6055 0.704177 15.5761 0.663954C15.5468 0.623731 15.5097 0.589786 15.467 0.564117C15.4243 0.538448 15.377 0.521574 15.3277 0.514489C14.7541 0.33154 14.1628 0.209916 13.5637 0.151655C13.307 0.128322 13.0503 0.128322 12.7937 0.151655C12.5308 0.178877 12.2737 0.233322 12.0225 0.314989C11.4693 0.523441 10.9469 0.80602 10.4697 1.15499C10.3897 1.19298 10.3278 1.2608 10.2973 1.3439C10.2667 1.427 10.27 1.51876 10.3063 1.59949C10.3378 1.6799 10.3988 1.74524 10.4769 1.78211C10.555 1.81899 10.6442 1.82461 10.7263 1.79782ZM19.3095 2.25399C19.5654 2.41032 19.8065 2.58532 20.0328 2.77899C20.2207 2.93066 20.3607 3.10566 20.5357 3.25732L21.0257 3.73566C21.5771 4.22099 22.099 4.7351 22.5913 5.27799C22.6386 5.35439 22.7118 5.41123 22.7976 5.43815C22.8833 5.46506 22.9758 5.46025 23.0583 5.4246C23.1408 5.38895 23.2077 5.32483 23.2469 5.24394C23.286 5.16305 23.2947 5.07079 23.2715 4.98399C23.2611 4.93415 23.24 4.88717 23.2097 4.84632C22.9639 4.32288 22.68 3.82082 22.358 3.34016C22.2101 3.12991 22.0421 2.93455 21.8563 2.75682C21.6697 2.5913 21.466 2.44619 21.2485 2.32399C20.7207 2.01442 20.1438 1.79741 19.5428 1.68232C19.4591 1.65503 19.3682 1.66028 19.2882 1.69704C19.2082 1.7338 19.145 1.79936 19.1112 1.88066C19.0969 1.95616 19.1088 2.03426 19.1448 2.10211C19.1809 2.16996 19.239 2.22353 19.3095 2.25399ZM27.041 11.6667C27.0654 11.7584 27.1233 11.8378 27.2032 11.8891C27.2832 11.9404 27.3794 11.9599 27.473 11.9438C27.5666 11.9277 27.6508 11.8772 27.709 11.8021C27.7673 11.7271 27.7953 11.633 27.7877 11.5383C27.7723 10.9444 27.698 10.3535 27.566 9.77432C27.4525 9.27934 27.2678 8.80343 27.0177 8.36149C26.7016 7.87762 26.3461 7.42068 25.9548 6.99532C25.9322 6.95819 25.9023 6.92596 25.8671 6.90051C25.8318 6.87507 25.7918 6.85692 25.7494 6.84714C25.707 6.83736 25.6631 6.83614 25.6203 6.84356C25.5774 6.85097 25.5365 6.86687 25.4998 6.89032C25.4253 6.9363 25.3714 7.00942 25.3497 7.09428C25.3279 7.17914 25.3399 7.26913 25.3832 7.34532C25.6282 7.92866 25.7682 8.51315 25.9782 9.14316C26.1065 9.48149 26.2582 9.82099 26.4098 10.1593C26.6463 10.6509 26.8574 11.1533 27.041 11.6667ZM27.7993 15.7185C27.8085 15.6696 27.8068 15.6193 27.7944 15.5712C27.7819 15.523 27.759 15.4782 27.7273 15.4399C27.6955 15.4017 27.6557 15.3709 27.6107 15.3497C27.5657 15.3286 27.5166 15.3176 27.4668 15.3176C27.4171 15.3176 27.368 15.3286 27.323 15.3497C27.278 15.3709 27.2382 15.4017 27.2064 15.4399C27.1747 15.4782 27.1518 15.523 27.1393 15.5712C27.1268 15.6193 27.1251 15.6696 27.1343 15.7185C26.9943 16.2785 26.831 16.793 26.726 17.318C26.726 17.5747 26.656 17.8313 26.621 18.0775C26.586 18.3225 26.621 18.5675 26.5277 18.8242C26.4787 19.0723 26.4087 19.3138 26.3177 19.5487C26.2829 19.6016 26.2622 19.6625 26.2575 19.7257C26.2528 19.7888 26.2642 19.8521 26.2907 19.9096C26.3172 19.9672 26.3578 20.017 26.4089 20.0545C26.4599 20.0919 26.5197 20.1158 26.5825 20.1238C26.6558 20.135 26.7308 20.1242 26.7979 20.0926C26.8651 20.061 26.9212 20.0101 26.9593 19.9465C27.3093 19.5358 27.5823 19.0645 27.7643 18.5558C27.8662 18.331 27.9401 18.0977 27.986 17.8558C28.004 17.6384 28.004 17.4199 27.986 17.2025C27.951 16.7047 27.8888 16.21 27.7993 15.7185ZM24.6237 22.5272C24.1803 22.7838 23.7242 22.9938 23.2925 23.2505C23.111 23.3614 22.9358 23.4821 22.7675 23.6122C22.5909 23.7366 22.4233 23.8692 22.2647 24.01C21.8797 24.325 21.5297 24.6633 21.0968 24.9783C21.045 24.9986 20.9981 25.0299 20.9595 25.07C20.9209 25.1102 20.8914 25.1582 20.8732 25.2108C20.8549 25.2634 20.8483 25.3194 20.8538 25.3748C20.8593 25.4303 20.8767 25.4838 20.9049 25.5319C20.9331 25.5799 20.9714 25.6212 21.0172 25.653C21.0629 25.6848 21.115 25.7063 21.1698 25.716C21.2247 25.7257 21.281 25.7234 21.3348 25.7093C21.3887 25.6951 21.4389 25.6694 21.4818 25.634C21.9726 25.452 22.4513 25.2416 22.918 25.0028C23.1163 24.8978 23.3069 24.7812 23.4897 24.6528C23.6724 24.5222 23.8439 24.3783 24.0042 24.2212C24.3721 23.8525 24.7147 23.4628 25.032 23.0522C25.0919 22.9892 25.1253 22.9057 25.1253 22.8188C25.1253 22.7319 25.0919 22.6484 25.032 22.5855C24.9789 22.5338 24.9107 22.5003 24.8373 22.4898C24.764 22.4793 24.6891 22.4924 24.6237 22.5272ZM18.6433 26.5323H17.01C16.6959 26.557 16.3835 26.5999 16.0743 26.6607C15.6077 26.7307 15.1527 26.8473 14.6743 26.9057C14.5752 26.9057 14.4801 26.945 14.4099 27.0152C14.3398 27.0853 14.3004 27.1804 14.3004 27.2796C14.3004 27.3787 14.3398 27.4738 14.4099 27.544C14.4801 27.6141 14.5752 27.6535 14.6743 27.6535C15.1643 27.7643 15.666 27.8343 16.1677 27.8635C16.5961 27.8753 17.0242 27.8322 17.4417 27.7352C17.9114 27.5835 18.3703 27.4046 18.8183 27.1985C18.8837 27.1881 18.9443 27.1581 18.9922 27.1125C19.0401 27.0668 19.0731 27.0077 19.0867 26.943C19.0953 26.8999 19.0957 26.8556 19.0878 26.8123C19.0799 26.7634 19.0617 26.7167 19.0343 26.6753C19.007 26.634 18.9712 26.5989 18.9292 26.5724C18.8873 26.546 18.8403 26.5287 18.7912 26.5218C18.7421 26.5149 18.6921 26.5185 18.6445 26.5323M10.5863 26.7773C9.92133 26.5323 9.4185 26.2173 8.799 25.949L7.72567 25.5173C7.18783 25.2957 6.63833 25.1078 6.07833 24.8395C6.03663 24.8027 5.98744 24.7753 5.93415 24.7593C5.88085 24.7433 5.82473 24.7391 5.76964 24.7469C5.71455 24.7546 5.6618 24.7743 5.61502 24.8044C5.56825 24.8345 5.52856 24.8744 5.49869 24.9214C5.46882 24.9683 5.44948 25.0212 5.44199 25.0763C5.43451 25.1314 5.43907 25.1875 5.45535 25.2407C5.47163 25.2939 5.49925 25.343 5.53631 25.3845C5.57337 25.426 5.61898 25.459 5.67 25.4812C6.13278 25.8802 6.62278 26.2422 7.14 26.5673C7.36944 26.7081 7.60706 26.8325 7.85283 26.9407C8.09394 27.0495 8.34322 27.1351 8.60067 27.1973C9.21511 27.3397 9.83811 27.4178 10.4697 27.4318C10.5562 27.4492 10.6461 27.4321 10.7202 27.3842C10.7943 27.3362 10.8468 27.2612 10.8663 27.1752C10.8747 27.1307 10.874 27.0849 10.8644 27.0407C10.8548 26.9965 10.8363 26.9546 10.8102 26.9176C10.7841 26.8806 10.7508 26.8492 10.7124 26.8253C10.6739 26.8015 10.6311 26.7843 10.5863 26.7773ZM2.71483 21.0093C2.57483 20.706 2.39983 20.4132 2.22483 20.1098C2.04983 19.8065 1.6765 19.2337 1.45483 18.767C1.43086 18.6957 1.38653 18.633 1.32733 18.5866C1.26812 18.5403 1.19663 18.5123 1.12169 18.506C1.04674 18.4998 0.971617 18.5157 0.905594 18.5517C0.83957 18.5877 0.785537 18.6423 0.750167 18.7087C0.727409 18.7534 0.713922 18.8024 0.710514 18.8525C0.707106 18.9026 0.713847 18.9529 0.730333 19.0003C0.813556 19.5564 0.945778 20.1013 1.127 20.6348C1.20167 20.8557 1.29111 21.0696 1.39533 21.2765C1.50267 21.4803 1.62322 21.6751 1.757 21.861C2.09144 22.281 2.45739 22.6703 2.85483 23.0288C2.87677 23.0722 2.9078 23.1103 2.9458 23.1406C2.98379 23.1709 3.02787 23.1927 3.07503 23.2044C3.12219 23.2161 3.17133 23.2176 3.21909 23.2086C3.26686 23.1997 3.31213 23.1805 3.35183 23.1525C3.39155 23.1247 3.42482 23.0886 3.44939 23.0468C3.47396 23.005 3.48925 22.9584 3.49423 22.9101C3.49921 22.8619 3.49376 22.8132 3.47825 22.7672C3.46274 22.7213 3.43753 22.6792 3.40433 22.6438C3.136 22.1772 2.97267 21.5927 2.716 21.0093M0.917 15.2402C0.979222 14.6257 1.08033 14.0183 1.22033 13.4178C1.22033 13.1145 1.302 12.8112 1.337 12.5195C1.372 12.2278 1.39533 11.9 1.442 11.5967C1.48867 11.2933 1.547 10.9896 1.617 10.6855C1.63539 10.6395 1.64454 10.5904 1.64393 10.5409C1.64333 10.4914 1.63298 10.4425 1.61348 10.397C1.59398 10.3515 1.56571 10.3103 1.53028 10.2757C1.49485 10.2411 1.45296 10.2139 1.407 10.1955C1.36104 10.1771 1.3119 10.168 1.2624 10.1686C1.2129 10.1692 1.16401 10.1795 1.11851 10.199C1.07301 10.2185 1.03179 10.2468 0.997218 10.2822C0.962643 10.3176 0.935385 10.3595 0.917 10.4055C0.617261 10.9181 0.374325 11.4619 0.1925 12.0272C0.108492 12.2901 0.04989 12.5604 0.0175 12.8345C-0.00583333 13.0912 -0.00583333 13.3478 0.0175 13.6045C0.0431667 14.2018 0.141167 14.7945 0.309167 15.3685C0.320841 15.4572 0.366035 15.538 0.435466 15.5945C0.504897 15.6509 0.593294 15.6785 0.6825 15.6718C0.726814 15.6598 0.768228 15.639 0.804219 15.6105C0.840211 15.582 0.870029 15.5465 0.891857 15.5061C0.913685 15.4657 0.927067 15.4213 0.931189 15.3756C0.935311 15.3299 0.931253 15.2838 0.917 15.2402Z" fill="#34D399"/>
</g>
<defs>
<clipPath id="clip0_180_322">
<rect width="28" height="28" fill="white"/>
</clipPath>
</defs>
</svg>
