<svg width="28" height="28" viewBox="0 0 28 28" fill="none" xmlns="http://www.w3.org/2000/svg">
<path d="M10.5 23.3334V21H5.38533C4.84789 21 4.3995 20.8204 4.04017 20.461C3.68083 20.1017 3.50078 19.6529 3.5 19.1147V6.55202C3.5 6.01458 3.68006 5.56619 4.04017 5.20685C4.40028 4.84752 4.84828 4.66746 5.38417 4.66669H13.9102V5.83335H5.38533C5.20567 5.83335 5.04078 5.90802 4.89067 6.05735C4.74056 6.20669 4.66589 6.37158 4.66667 6.55202V19.1159C4.66667 19.2947 4.74133 19.4592 4.89067 19.6094C5.04 19.7595 5.2045 19.8341 5.38417 19.8334H22.6158C22.7947 19.8334 22.9592 19.7587 23.1093 19.6094C23.2594 19.46 23.3341 19.2955 23.3333 19.1159V16.9167H24.5V19.1159C24.5 19.6525 24.3203 20.1005 23.961 20.4599C23.6017 20.8192 23.1533 20.9992 22.6158 21H17.5V23.3334H10.5ZM19.6537 15.4584L14.63 10.4324L15.4327 9.62969L19.0727 13.2615V4.66669H20.2393V13.2615L23.8782 9.62969L24.6808 10.4324L19.6537 15.4584Z" fill="white"/>
</svg>
