<svg width="28" height="28" viewBox="0 0 28 28" fill="none" xmlns="http://www.w3.org/2000/svg">
<path d="M21.8283 15.505L26.0166 11.3167C26.1246 11.2087 26.2103 11.0804 26.2687 10.9393C26.3272 10.7982 26.3573 10.6469 26.3573 10.4942C26.3573 10.3414 26.3272 10.1902 26.2687 10.049C26.2103 9.90791 26.1246 9.77968 26.0166 9.67167C25.9086 9.56365 25.7804 9.47797 25.6392 9.41952C25.4981 9.36106 25.3469 9.33098 25.1941 9.33098C25.0413 9.33098 24.8901 9.36106 24.749 9.41952C24.6078 9.47797 24.4796 9.56365 24.3716 9.67167L22.1666 11.865V4.66667C22.1666 4.025 21.6416 3.5 20.9999 3.5C20.3583 3.5 19.8333 4.025 19.8333 4.66667V11.865L17.6283 9.67167C17.5203 9.56365 17.392 9.47797 17.2509 9.41952C17.1098 9.36106 16.9585 9.33098 16.8058 9.33098C16.653 9.33098 16.5018 9.36106 16.3606 9.41952C16.2195 9.47797 16.0913 9.56365 15.9833 9.67167C15.8753 9.77968 15.7896 9.90791 15.7311 10.049C15.6727 10.1902 15.6426 10.3414 15.6426 10.4942C15.6426 10.6469 15.6727 10.7982 15.7311 10.9393C15.7896 11.0804 15.8753 11.2087 15.9833 11.3167L20.1716 15.505C20.6383 15.96 21.3733 15.96 21.8283 15.505Z" fill="white"/>
<path d="M19.833 21H8.16634V7.00002H16.333V1.16669H8.16634C6.88301 1.16669 5.83301 2.21669 5.83301 3.50002V24.5C5.83301 25.7834 6.88301 26.8334 8.16634 26.8334H19.833C21.1163 26.8334 22.1663 25.7834 22.1663 24.5V18.6667H19.833V21Z" fill="white"/>
</svg>
