<svg width="25" height="23" viewBox="0 0 25 23" fill="none" xmlns="http://www.w3.org/2000/svg">
<rect x="1.8877" y="14" width="2.83136" height="6" rx="1.41568" fill="#FF6378"/>
<rect x="6.60645" y="10" width="2.83136" height="10" rx="1.41568" fill="#FF6378"/>
<rect x="11.3252" y="6" width="2.83136" height="14" rx="1.41568" fill="#FF6378"/>
<rect x="16.0449" y="2" width="2.83136" height="18" rx="1.41568" fill="#C7B4E3"/>
<path d="M20.75 15C22.8238 15 24.5 16.6762 24.5 18.75C24.5 20.8238 22.8238 22.5 20.75 22.5C18.6762 22.5 17 20.8238 17 18.75C17 16.6762 18.6762 15 20.75 15ZM22.0963 16.875L20.75 18.2213L19.4037 16.875L18.875 17.4037L20.2213 18.75L18.875 20.0963L19.4037 20.625L20.75 19.2787L22.0963 20.625L22.625 20.0963L21.2787 18.75L22.625 17.4037L22.0963 16.875Z" fill="#FF6378"/>
</svg>
