<svg width="48" height="49" viewBox="0 0 48 49" fill="none" xmlns="http://www.w3.org/2000/svg">
<foreignObject x="-20" y="-20" width="78" height="78.8505"><div xmlns="http://www.w3.org/1999/xhtml" style="backdrop-filter:blur(12.5px);clip-path:url(#bgblur_0_180_308_clip_path);height:100%;width:100%"></div></foreignObject><g filter="url(#filter0_d_180_308)" data-figma-bg-blur-radius="25">
<path fill-rule="evenodd" clip-rule="evenodd" d="M19.0102 17.2516C15.6642 17.2516 12.9518 14.509 12.9518 11.1258C12.9518 7.74261 15.6642 5 19.0102 5C22.3562 5 25.0687 7.74261 25.0687 11.1258C25.0687 14.509 22.3562 17.2516 19.0102 17.2516ZM12.1016 20.0599C13.4303 20.0868 14.3639 20.2067 14.9024 20.4197C16.9512 21.2302 20.5589 21.2302 22.7561 20.4197C23.4077 20.1793 24.4453 20.0459 25.8687 20.0194C29.7357 19.9474 32.928 23.0748 32.9988 27.0047C32.9996 27.0482 33 27.0916 33 27.1351V30.6888C33 32.4349 31.6071 33.8505 29.8889 33.8505H8.11111C6.39289 33.8505 5 32.4349 5 30.6888V27.1351C5 23.2268 8.11759 20.0585 11.9633 20.0585C12.0094 20.0585 12.0555 20.059 12.1016 20.0599V20.0599Z" fill="url(#paint0_linear_180_308)"/>
<path d="M25.8701 20.1191C29.6804 20.0482 32.8286 23.1307 32.8984 27.0068C32.8992 27.0495 32.9004 27.0921 32.9004 27.1348V30.6885C32.9004 32.3809 31.5501 33.75 29.8887 33.75H8.11133C6.44985 33.75 5.09961 32.3809 5.09961 30.6885V27.1348C5.09978 23.2805 8.1742 20.1584 11.9629 20.1582C12.0083 20.1582 12.0542 20.1592 12.0996 20.1602C13.4275 20.187 14.3449 20.307 14.8652 20.5127C15.9054 20.9242 17.3336 21.1279 18.7734 21.1279C20.2137 21.1279 21.678 20.9242 22.791 20.5137C23.426 20.2795 24.4491 20.1456 25.8701 20.1191ZM19.0098 5.09961C22.2995 5.09961 24.9688 7.79698 24.9688 11.126C24.9686 14.4549 22.2994 17.1514 19.0098 17.1514C15.7203 17.1511 13.0519 14.4547 13.0518 11.126C13.0518 7.79714 15.7202 5.09987 19.0098 5.09961Z" stroke="url(#paint1_linear_180_308)" stroke-width="0.2"/>
</g>
<defs>
<filter id="filter0_d_180_308" x="-20" y="-20" width="78" height="78.8505" filterUnits="userSpaceOnUse" color-interpolation-filters="sRGB">
<feFlood flood-opacity="0" result="BackgroundImageFix"/>
<feColorMatrix in="SourceAlpha" type="matrix" values="0 0 0 0 0 0 0 0 0 0 0 0 0 0 0 0 0 0 127 0" result="hardAlpha"/>
<feOffset dx="5" dy="5"/>
<feGaussianBlur stdDeviation="5"/>
<feColorMatrix type="matrix" values="0 0 0 0 0 0 0 0 0 0 0 0 0 0 0 0 0 0 0.1 0"/>
<feBlend mode="normal" in2="BackgroundImageFix" result="effect1_dropShadow_180_308"/>
<feBlend mode="normal" in="SourceGraphic" in2="effect1_dropShadow_180_308" result="shape"/>
</filter>
<clipPath id="bgblur_0_180_308_clip_path" transform="translate(20 20)"><path fill-rule="evenodd" clip-rule="evenodd" d="M19.0102 17.2516C15.6642 17.2516 12.9518 14.509 12.9518 11.1258C12.9518 7.74261 15.6642 5 19.0102 5C22.3562 5 25.0687 7.74261 25.0687 11.1258C25.0687 14.509 22.3562 17.2516 19.0102 17.2516ZM12.1016 20.0599C13.4303 20.0868 14.3639 20.2067 14.9024 20.4197C16.9512 21.2302 20.5589 21.2302 22.7561 20.4197C23.4077 20.1793 24.4453 20.0459 25.8687 20.0194C29.7357 19.9474 32.928 23.0748 32.9988 27.0047C32.9996 27.0482 33 27.0916 33 27.1351V30.6888C33 32.4349 31.6071 33.8505 29.8889 33.8505H8.11111C6.39289 33.8505 5 32.4349 5 30.6888V27.1351C5 23.2268 8.11759 20.0585 11.9633 20.0585C12.0094 20.0585 12.0555 20.059 12.1016 20.0599V20.0599Z"/>
</clipPath><linearGradient id="paint0_linear_180_308" x1="13.3993" y1="8.43458" x2="35.2764" y2="36.9986" gradientUnits="userSpaceOnUse">
<stop stop-color="white"/>
<stop offset="1" stop-color="white" stop-opacity="0.2"/>
</linearGradient>
<linearGradient id="paint1_linear_180_308" x1="19" y1="5" x2="19" y2="33.8505" gradientUnits="userSpaceOnUse">
<stop stop-color="white"/>
<stop offset="1" stop-color="white" stop-opacity="0"/>
</linearGradient>
</defs>
</svg>
