<svg width="25" height="25" viewBox="0 0 25 25" fill="none" xmlns="http://www.w3.org/2000/svg">
<path d="M12.499 15.625C13.5777 15.625 14.4521 14.7506 14.4521 13.6719C14.4521 12.5932 13.5777 11.7188 12.499 11.7188C11.4203 11.7188 10.5459 12.5932 10.5459 13.6719C10.5459 14.7506 11.4203 15.625 12.499 15.625Z" stroke="#93A7C8" stroke-width="1.5" stroke-linecap="round" stroke-linejoin="round"/>
<path d="M12.499 15.625V17.9688" stroke="#93A7C8" stroke-width="1.5" stroke-linecap="round" stroke-linejoin="round"/>
<path d="M20.3115 8.59375H4.68652C4.25505 8.59375 3.90527 8.94353 3.90527 9.375V20.3125C3.90527 20.744 4.25505 21.0938 4.68652 21.0938H20.3115C20.743 21.0938 21.0928 20.744 21.0928 20.3125V9.375C21.0928 8.94353 20.743 8.59375 20.3115 8.59375Z" stroke="#93A7C8" stroke-width="1.5" stroke-linecap="round" stroke-linejoin="round"/>
<path d="M8.9834 8.59375V5.07812C8.9834 4.14572 9.35379 3.25151 10.0131 2.5922C10.6724 1.9329 11.5666 1.5625 12.499 1.5625C13.4314 1.5625 14.3256 1.9329 14.9849 2.5922C15.6443 3.25151 16.0146 4.14572 16.0146 5.07812" stroke="#93A7C8" stroke-width="1.5" stroke-linecap="round" stroke-linejoin="round"/>
</svg>
