<svg width="38" height="38" viewBox="0 0 38 38" fill="none" xmlns="http://www.w3.org/2000/svg">
<foreignObject x="-20" y="-25" width="78" height="78"><div xmlns="http://www.w3.org/1999/xhtml" style="backdrop-filter:blur(12.5px);clip-path:url(#bgblur_0_180_319_clip_path);height:100%;width:100%"></div></foreignObject><g filter="url(#filter0_d_180_319)" data-figma-bg-blur-radius="25">
<path d="M23.6667 28C22.8111 28 22.079 27.6956 21.4702 27.0869C20.8615 26.4781 20.5566 25.7455 20.5556 24.8889V18.6667C20.5556 17.8111 20.8604 17.079 21.4702 16.4702C22.08 15.8615 22.8121 15.5566 23.6667 15.5556H29.8889C30.7444 15.5556 31.4771 15.8604 32.0869 16.4702C32.6967 17.08 33.001 17.8121 33 18.6667V24.8889C33 25.7444 32.6956 26.4771 32.0869 27.0869C31.4781 27.6967 30.7455 28.001 29.8889 28H23.6667ZM23.6667 12.4444C22.8111 12.4444 22.079 12.1401 21.4702 11.5313C20.8615 10.9226 20.5566 10.1899 20.5556 9.33333V3.11111C20.5556 2.25556 20.8604 1.52341 21.4702 0.914667C22.08 0.305926 22.8121 0.00103704 23.6667 0H29.8889C30.7444 0 31.4771 0.304889 32.0869 0.914667C32.6967 1.52444 33.001 2.25659 33 3.11111V9.33333C33 10.1889 32.6956 10.9216 32.0869 11.5313C31.4781 12.1411 30.7455 12.4455 29.8889 12.4444H23.6667ZM8.11111 12.4444C7.25556 12.4444 6.52341 12.1401 5.91467 11.5313C5.30593 10.9226 5.00104 10.1899 5 9.33333V3.11111C5 2.25556 5.30489 1.52341 5.91467 0.914667C6.52444 0.305926 7.25659 0.00103704 8.11111 0H14.3333C15.1889 0 15.9216 0.304889 16.5313 0.914667C17.1411 1.52444 17.4455 2.25659 17.4444 3.11111V9.33333C17.4444 10.1889 17.1401 10.9216 16.5313 11.5313C15.9226 12.1411 15.1899 12.4455 14.3333 12.4444H8.11111ZM8.11111 28C7.25556 28 6.52341 27.6956 5.91467 27.0869C5.30593 26.4781 5.00104 25.7455 5 24.8889V18.6667C5 17.8111 5.30489 17.079 5.91467 16.4702C6.52444 15.8615 7.25659 15.5566 8.11111 15.5556H14.3333C15.1889 15.5556 15.9216 15.8604 16.5313 16.4702C17.1411 17.08 17.4455 17.8121 17.4444 18.6667V24.8889C17.4444 25.7444 17.1401 26.4771 16.5313 27.0869C15.9226 27.6967 15.1899 28.001 14.3333 28H8.11111Z" fill="url(#paint0_linear_180_319)" shape-rendering="crispEdges"/>
<path d="M8.11133 15.6553H14.333C15.1618 15.6553 15.8697 15.9498 16.4609 16.541C17.052 17.1322 17.3457 17.8394 17.3447 18.667V24.8887C17.3447 25.7175 17.0511 26.4254 16.4609 27.0166C15.8709 27.6077 15.1628 27.9014 14.333 27.9004H8.11133C7.28257 27.9004 6.57543 27.6066 5.98535 27.0166C5.39523 26.4265 5.10061 25.7186 5.09961 24.8887V18.667C5.09961 17.8382 5.39421 17.1311 5.98535 16.541C6.57658 15.9508 7.28351 15.6563 8.11133 15.6553ZM23.667 15.6553H29.8887C30.7175 15.6553 31.4254 15.9498 32.0166 16.541C32.6076 17.1322 32.9014 17.8394 32.9004 18.667V24.8887C32.9004 25.7175 32.6067 26.4254 32.0166 27.0166C31.4265 27.6077 30.7185 27.9014 29.8887 27.9004H23.667C22.8383 27.9004 22.1311 27.6065 21.541 27.0166C20.9509 26.4265 20.6563 25.7186 20.6553 24.8887V18.667C20.6553 17.8382 20.9499 17.1311 21.541 16.541C22.1322 15.9508 22.8392 15.6563 23.667 15.6553ZM8.11133 0.0996094H14.333C15.1618 0.0996094 15.8697 0.39416 16.4609 0.985352C17.052 1.57651 17.3457 2.28371 17.3447 3.11133V9.33301C17.3447 10.1618 17.0511 10.8698 16.4609 11.4609C15.8709 12.052 15.1628 12.3457 14.333 12.3447H8.11133C7.28255 12.3447 6.57544 12.051 5.98535 11.4609C5.39523 10.8708 5.10061 10.163 5.09961 9.33301V3.11133C5.09961 2.28253 5.39421 1.57548 5.98535 0.985352C6.57657 0.395164 7.28353 0.100614 8.11133 0.0996094ZM23.667 0.0996094H29.8887C30.7175 0.0996094 31.4254 0.39416 32.0166 0.985352C32.6077 1.5765 32.9014 2.28374 32.9004 3.11133V9.33301C32.9004 10.1618 32.6067 10.8698 32.0166 11.4609C31.4265 12.052 30.7185 12.3457 29.8887 12.3447H23.667C22.8382 12.3447 22.1311 12.0509 21.541 11.4609C20.9509 10.8708 20.6563 10.163 20.6553 9.33301V3.11133C20.6553 2.28253 20.9499 1.57548 21.541 0.985352C22.1322 0.3952 22.8392 0.100614 23.667 0.0996094Z" stroke="url(#paint1_linear_180_319)" stroke-width="0.2" shape-rendering="crispEdges"/>
</g>
<defs>
<filter id="filter0_d_180_319" x="-20" y="-25" width="78" height="78" filterUnits="userSpaceOnUse" color-interpolation-filters="sRGB">
<feFlood flood-opacity="0" result="BackgroundImageFix"/>
<feColorMatrix in="SourceAlpha" type="matrix" values="0 0 0 0 0 0 0 0 0 0 0 0 0 0 0 0 0 0 127 0" result="hardAlpha"/>
<feOffset dy="5"/>
<feGaussianBlur stdDeviation="2.5"/>
<feComposite in2="hardAlpha" operator="out"/>
<feColorMatrix type="matrix" values="0 0 0 0 0 0 0 0 0 0 0 0 0 0 0 0 0 0 0.1 0"/>
<feBlend mode="normal" in2="BackgroundImageFix" result="effect1_dropShadow_180_319"/>
<feBlend mode="normal" in="SourceGraphic" in2="effect1_dropShadow_180_319" result="shape"/>
</filter>
<clipPath id="bgblur_0_180_319_clip_path" transform="translate(20 25)"><path d="M23.6667 28C22.8111 28 22.079 27.6956 21.4702 27.0869C20.8615 26.4781 20.5566 25.7455 20.5556 24.8889V18.6667C20.5556 17.8111 20.8604 17.079 21.4702 16.4702C22.08 15.8615 22.8121 15.5566 23.6667 15.5556H29.8889C30.7444 15.5556 31.4771 15.8604 32.0869 16.4702C32.6967 17.08 33.001 17.8121 33 18.6667V24.8889C33 25.7444 32.6956 26.4771 32.0869 27.0869C31.4781 27.6967 30.7455 28.001 29.8889 28H23.6667ZM23.6667 12.4444C22.8111 12.4444 22.079 12.1401 21.4702 11.5313C20.8615 10.9226 20.5566 10.1899 20.5556 9.33333V3.11111C20.5556 2.25556 20.8604 1.52341 21.4702 0.914667C22.08 0.305926 22.8121 0.00103704 23.6667 0H29.8889C30.7444 0 31.4771 0.304889 32.0869 0.914667C32.6967 1.52444 33.001 2.25659 33 3.11111V9.33333C33 10.1889 32.6956 10.9216 32.0869 11.5313C31.4781 12.1411 30.7455 12.4455 29.8889 12.4444H23.6667ZM8.11111 12.4444C7.25556 12.4444 6.52341 12.1401 5.91467 11.5313C5.30593 10.9226 5.00104 10.1899 5 9.33333V3.11111C5 2.25556 5.30489 1.52341 5.91467 0.914667C6.52444 0.305926 7.25659 0.00103704 8.11111 0H14.3333C15.1889 0 15.9216 0.304889 16.5313 0.914667C17.1411 1.52444 17.4455 2.25659 17.4444 3.11111V9.33333C17.4444 10.1889 17.1401 10.9216 16.5313 11.5313C15.9226 12.1411 15.1899 12.4455 14.3333 12.4444H8.11111ZM8.11111 28C7.25556 28 6.52341 27.6956 5.91467 27.0869C5.30593 26.4781 5.00104 25.7455 5 24.8889V18.6667C5 17.8111 5.30489 17.079 5.91467 16.4702C6.52444 15.8615 7.25659 15.5566 8.11111 15.5556H14.3333C15.1889 15.5556 15.9216 15.8604 16.5313 16.4702C17.1411 17.08 17.4455 17.8121 17.4444 18.6667V24.8889C17.4444 25.7444 17.1401 26.4771 16.5313 27.0869C15.9226 27.6967 15.1899 28.001 14.3333 28H8.11111Z"/>
</clipPath><linearGradient id="paint0_linear_180_319" x1="19" y1="0" x2="19" y2="28" gradientUnits="userSpaceOnUse">
<stop stop-color="white"/>
<stop offset="1" stop-color="white" stop-opacity="0.2"/>
</linearGradient>
<linearGradient id="paint1_linear_180_319" x1="19" y1="0" x2="19" y2="28" gradientUnits="userSpaceOnUse">
<stop stop-color="white"/>
<stop offset="1" stop-color="white" stop-opacity="0"/>
</linearGradient>
</defs>
</svg>
