<svg width="28" height="46" viewBox="0 0 28 46" fill="none" xmlns="http://www.w3.org/2000/svg">
<foreignObject x="-30" y="-30" width="88" height="105.246"><div xmlns="http://www.w3.org/1999/xhtml" style="backdrop-filter:blur(15px);clip-path:url(#bgblur_0_180_293_clip_path);height:100%;width:100%"></div></foreignObject><path data-figma-bg-blur-radius="30" d="M15.6318 0.192383C15.8004 0.134812 15.9836 0.136285 16.1514 0.196289C16.319 0.256335 16.4624 0.371224 16.5576 0.523438C16.6529 0.675842 16.6944 0.856672 16.6758 1.03613L14.6143 16.9229L14.5928 17.0928H27.0615C27.2007 17.0928 27.3376 17.1304 27.458 17.2012C27.5783 17.272 27.6782 17.3735 27.7471 17.4961C27.816 17.6188 27.8513 17.7582 27.8496 17.8994C27.8479 18.0405 27.8091 18.1789 27.7373 18.2998L27.7354 18.3027L13.0312 44.7236C12.9362 44.8749 12.7937 44.9898 12.627 45.0498C12.4603 45.1097 12.2783 45.1119 12.1104 45.0557C11.9424 44.9994 11.7975 44.8874 11.6992 44.7383C11.6017 44.5903 11.5558 44.4137 11.5684 44.2363L13.2021 28.3213L13.2188 28.1562H0.938477C0.798503 28.1562 0.66093 28.1184 0.540039 28.0469C0.419281 27.9754 0.319561 27.8726 0.250977 27.749C0.182385 27.6252 0.147488 27.4847 0.150391 27.3428C0.153314 27.2008 0.193945 27.0622 0.267578 26.9414L0.269531 26.9375L15.2207 0.514648C15.3181 0.36361 15.4632 0.250016 15.6318 0.192383Z" fill="url(#paint0_linear_180_293)" stroke="url(#paint1_linear_180_293)" stroke-width="0.3"/>
<defs>
<clipPath id="bgblur_0_180_293_clip_path" transform="translate(30 30)"><path d="M15.6318 0.192383C15.8004 0.134812 15.9836 0.136285 16.1514 0.196289C16.319 0.256335 16.4624 0.371224 16.5576 0.523438C16.6529 0.675842 16.6944 0.856672 16.6758 1.03613L14.6143 16.9229L14.5928 17.0928H27.0615C27.2007 17.0928 27.3376 17.1304 27.458 17.2012C27.5783 17.272 27.6782 17.3735 27.7471 17.4961C27.816 17.6188 27.8513 17.7582 27.8496 17.8994C27.8479 18.0405 27.8091 18.1789 27.7373 18.2998L27.7354 18.3027L13.0312 44.7236C12.9362 44.8749 12.7937 44.9898 12.627 45.0498C12.4603 45.1097 12.2783 45.1119 12.1104 45.0557C11.9424 44.9994 11.7975 44.8874 11.6992 44.7383C11.6017 44.5903 11.5558 44.4137 11.5684 44.2363L13.2021 28.3213L13.2188 28.1562H0.938477C0.798503 28.1562 0.66093 28.1184 0.540039 28.0469C0.419281 27.9754 0.319561 27.8726 0.250977 27.749C0.182385 27.6252 0.147488 27.4847 0.150391 27.3428C0.153314 27.2008 0.193945 27.0622 0.267578 26.9414L0.269531 26.9375L15.2207 0.514648C15.3181 0.36361 15.4632 0.250016 15.6318 0.192383Z"/>
</clipPath><linearGradient id="paint0_linear_180_293" x1="15.9592" y1="1.79117" x2="13.0937" y2="42.5073" gradientUnits="userSpaceOnUse">
<stop stop-color="white"/>
<stop offset="1" stop-color="white" stop-opacity="0.2"/>
</linearGradient>
<linearGradient id="paint1_linear_180_293" x1="13.1428" y1="43.4577" x2="15.0532" y2="1.79267" gradientUnits="userSpaceOnUse">
<stop stop-color="white" stop-opacity="0.3"/>
<stop offset="1" stop-color="white" stop-opacity="0"/>
</linearGradient>
</defs>
</svg>
