<svg width="28" height="26" viewBox="0 0 28 26" fill="none" xmlns="http://www.w3.org/2000/svg">
<mask id="path-1-inside-1_180_281" fill="white">
<path d="M16.796 18.1159C17.6181 17.4878 18.2193 16.6981 18.5998 15.7468H9.39242C9.77289 16.6981 10.3726 17.4883 11.1916 18.1174C12.0106 18.7445 12.9436 19.058 13.9907 19.058C15.0398 19.058 15.9754 18.744 16.7975 18.1159M11.9411 13.1484C12.2749 12.8149 12.4419 12.4102 12.4419 11.934C12.4419 11.4578 12.2724 11.0556 11.9334 10.7273C11.5944 10.399 11.1833 10.2348 10.7002 10.2348C10.2171 10.2348 9.80814 10.4015 9.47329 10.7349C9.13843 11.0684 8.97153 11.4726 8.97257 11.9478C8.9736 12.4229 9.1431 12.8251 9.48106 13.1545C9.81902 13.4838 10.2301 13.648 10.7142 13.6469C11.1983 13.6459 11.6073 13.4797 11.9411 13.1484ZM18.5189 13.1484C18.8538 12.8149 19.0212 12.4102 19.0212 11.934C19.0212 11.4589 18.8517 11.0571 18.5127 10.7288C18.1737 10.3995 17.7627 10.2348 17.2796 10.2348C16.7954 10.2348 16.3865 10.4015 16.0526 10.7349C15.7188 11.0684 15.5519 11.4726 15.5519 11.9478C15.5519 12.4229 15.7214 12.8251 16.0604 13.1545C16.3994 13.4838 16.8105 13.648 17.2936 13.6469C17.7767 13.6459 18.1841 13.4797 18.5189 13.1484ZM7.96957 6.25835L12.0251 0.951294C12.2718 0.62298 12.5652 0.382353 12.9053 0.229412C13.2453 0.0764707 13.6086 0 13.9953 0C14.382 0 14.7454 0.0764707 15.0854 0.229412C15.4255 0.382353 15.7188 0.622471 15.9656 0.949765L20.0211 6.25835L26.2724 8.35059C26.8259 8.53412 27.252 8.84255 27.5506 9.27588C27.8502 9.71023 28 10.1895 28 10.7135C28 10.9552 27.9637 11.1953 27.8911 11.4339C27.8186 11.6725 27.7004 11.9014 27.5366 12.1206L23.4391 17.5852L23.5946 23.4428C23.6205 24.1627 23.3789 24.7688 22.8699 25.2613C22.3609 25.7538 21.7684 26 21.0925 26L20.3865 25.9144L13.9953 24.0622L7.60413 25.9144C7.47558 25.9653 7.35118 25.9924 7.23092 25.9954C7.10963 25.9985 6.9987 26 6.89814 26C6.20874 26 5.61265 25.7538 5.10985 25.2613C4.60706 24.7688 4.36914 24.1632 4.39609 23.4444L4.55159 17.5469L0.463401 12.1206C0.298567 11.8993 0.179866 11.6684 0.107298 11.4278C0.0357659 11.1871 0 10.9465 0 10.7059C0 10.19 0.153949 9.70973 0.461846 9.26518C0.768707 8.82165 1.1979 8.50659 1.74942 8.32L7.96957 6.25835Z"/>
</mask>
<path d="M16.796 18.1159C17.6181 17.4878 18.2193 16.6981 18.5998 15.7468H9.39242C9.77289 16.6981 10.3726 17.4883 11.1916 18.1174C12.0106 18.7445 12.9436 19.058 13.9907 19.058C15.0398 19.058 15.9754 18.744 16.7975 18.1159M11.9411 13.1484C12.2749 12.8149 12.4419 12.4102 12.4419 11.934C12.4419 11.4578 12.2724 11.0556 11.9334 10.7273C11.5944 10.399 11.1833 10.2348 10.7002 10.2348C10.2171 10.2348 9.80814 10.4015 9.47329 10.7349C9.13843 11.0684 8.97153 11.4726 8.97257 11.9478C8.9736 12.4229 9.1431 12.8251 9.48106 13.1545C9.81902 13.4838 10.2301 13.648 10.7142 13.6469C11.1983 13.6459 11.6073 13.4797 11.9411 13.1484ZM18.5189 13.1484C18.8538 12.8149 19.0212 12.4102 19.0212 11.934C19.0212 11.4589 18.8517 11.0571 18.5127 10.7288C18.1737 10.3995 17.7627 10.2348 17.2796 10.2348C16.7954 10.2348 16.3865 10.4015 16.0526 10.7349C15.7188 11.0684 15.5519 11.4726 15.5519 11.9478C15.5519 12.4229 15.7214 12.8251 16.0604 13.1545C16.3994 13.4838 16.8105 13.648 17.2936 13.6469C17.7767 13.6459 18.1841 13.4797 18.5189 13.1484ZM7.96957 6.25835L12.0251 0.951294C12.2718 0.62298 12.5652 0.382353 12.9053 0.229412C13.2453 0.0764707 13.6086 0 13.9953 0C14.382 0 14.7454 0.0764707 15.0854 0.229412C15.4255 0.382353 15.7188 0.622471 15.9656 0.949765L20.0211 6.25835L26.2724 8.35059C26.8259 8.53412 27.252 8.84255 27.5506 9.27588C27.8502 9.71023 28 10.1895 28 10.7135C28 10.9552 27.9637 11.1953 27.8911 11.4339C27.8186 11.6725 27.7004 11.9014 27.5366 12.1206L23.4391 17.5852L23.5946 23.4428C23.6205 24.1627 23.3789 24.7688 22.8699 25.2613C22.3609 25.7538 21.7684 26 21.0925 26L20.3865 25.9144L13.9953 24.0622L7.60413 25.9144C7.47558 25.9653 7.35118 25.9924 7.23092 25.9954C7.10963 25.9985 6.9987 26 6.89814 26C6.20874 26 5.61265 25.7538 5.10985 25.2613C4.60706 24.7688 4.36914 24.1632 4.39609 23.4444L4.55159 17.5469L0.463401 12.1206C0.298567 11.8993 0.179866 11.6684 0.107298 11.4278C0.0357659 11.1871 0 10.9465 0 10.7059C0 10.19 0.153949 9.70973 0.461846 9.26518C0.768707 8.82165 1.1979 8.50659 1.74942 8.32L7.96957 6.25835Z" fill="url(#paint0_linear_180_281)"/>
<path d="M18.5998 15.7468L18.7855 15.8211L18.8952 15.5468H18.5998V15.7468ZM9.39242 15.7468V15.5468H9.09703L9.20673 15.8211L9.39242 15.7468ZM11.1916 18.1174L11.0698 18.276L11.07 18.2762L11.1916 18.1174ZM11.9411 13.1484L12.082 13.2903L12.0825 13.2899L11.9411 13.1484ZM18.5189 13.1484L18.6596 13.2905L18.6601 13.2901L18.5189 13.1484ZM18.5127 10.7288L18.3734 10.8723L18.3736 10.8725L18.5127 10.7288ZM7.96957 6.25835L8.03249 6.4482L8.09103 6.42879L8.12848 6.37979L7.96957 6.25835ZM12.0251 0.951294L12.184 1.07274L12.185 1.07145L12.0251 0.951294ZM15.9656 0.949765L15.8059 1.07016L15.8066 1.07118L15.9656 0.949765ZM20.0211 6.25835L19.8622 6.37977L19.8994 6.42853L19.9576 6.44801L20.0211 6.25835ZM26.2724 8.35059L26.2089 8.54025L26.2094 8.54043L26.2724 8.35059ZM27.5506 9.27588L27.3859 9.38936L27.386 9.38944L27.5506 9.27588ZM27.5366 12.1206L27.6966 12.2406L27.6968 12.2403L27.5366 12.1206ZM23.4391 17.5852L23.2791 17.4652L23.2373 17.5209L23.2391 17.5905L23.4391 17.5852ZM23.5946 23.4428L23.3946 23.4481L23.3947 23.45L23.5946 23.4428ZM21.0925 26L21.0684 26.1985L21.0804 26.2H21.0925V26ZM20.3865 25.9144L20.3309 26.1065L20.3464 26.111L20.3625 26.1129L20.3865 25.9144ZM13.9953 24.0622L14.051 23.8701L13.9953 23.854L13.9397 23.8701L13.9953 24.0622ZM7.60413 25.9144L7.54846 25.7223L7.53928 25.7249L7.5304 25.7284L7.60413 25.9144ZM7.23092 25.9954L7.23596 26.1953L7.23601 26.1953L7.23092 25.9954ZM4.39609 23.4444L4.59596 23.4518L4.59602 23.4496L4.39609 23.4444ZM4.55159 17.5469L4.75152 17.5522L4.75337 17.4824L4.71133 17.4266L4.55159 17.5469ZM0.463401 12.1206L0.303014 12.2401L0.303662 12.2409L0.463401 12.1206ZM0.107298 11.4278L-0.0844125 11.4848L-0.0841842 11.4855L0.107298 11.4278ZM0.461846 9.26518L0.626261 9.37905L0.626319 9.37897L0.461846 9.26518ZM1.74942 8.32L1.68649 8.13015L1.68532 8.13055L1.74942 8.32ZM16.796 18.1159L16.9174 18.2748C17.7678 17.6251 18.3915 16.8062 18.7855 15.8211L18.5998 15.7468L18.4141 15.6726C18.0472 16.59 17.4683 17.3506 16.6745 17.957L16.796 18.1159ZM18.5998 15.7468V15.5468H9.39242V15.7468V15.9468H18.5998V15.7468ZM9.39242 15.7468L9.20673 15.8211C9.60064 16.806 10.2225 17.6252 11.0698 18.276L11.1916 18.1174L11.3134 17.9588C10.5227 17.3514 9.94514 16.5902 9.57812 15.6726L9.39242 15.7468ZM11.1916 18.1174L11.07 18.2762C11.9245 18.9304 12.9004 19.258 13.9907 19.258V19.058V18.858C12.9868 18.858 12.0967 18.5585 11.3132 17.9586L11.1916 18.1174ZM13.9907 19.058V19.258C15.083 19.258 16.0614 18.9299 16.9189 18.2748L16.7975 18.1159L16.6761 17.957C15.8894 18.558 14.9966 18.858 13.9907 18.858V19.058ZM11.9411 13.1484L12.0825 13.2899C12.4542 12.9185 12.6419 12.4627 12.6419 11.934H12.4419H12.2419C12.2419 12.3576 12.0957 12.7113 11.7998 13.0068L11.9411 13.1484ZM12.4419 11.934H12.6419C12.6419 11.4042 12.4508 10.95 12.0725 10.5836L11.9334 10.7273L11.7942 10.871C12.0939 11.1612 12.2419 11.5114 12.2419 11.934H12.4419ZM11.9334 10.7273L12.0725 10.5836C11.6952 10.2182 11.2339 10.0348 10.7002 10.0348V10.2348V10.4348C11.1327 10.4348 11.4935 10.5797 11.7942 10.871L11.9334 10.7273ZM10.7002 10.2348V10.0348C10.1655 10.0348 9.70543 10.2216 9.33217 10.5932L9.47329 10.7349L9.6144 10.8767C9.91084 10.5815 10.2687 10.4348 10.7002 10.4348V10.2348ZM9.47329 10.7349L9.33217 10.5932C8.95928 10.9645 8.77141 11.4201 8.77257 11.9482L8.97256 11.9478L9.17256 11.9473C9.17164 11.5252 9.31759 11.1722 9.6144 10.8767L9.47329 10.7349ZM8.97256 11.9478L8.77257 11.9482C8.77372 12.4767 8.9647 12.9305 9.34148 13.2977L9.48106 13.1545L9.62064 13.0112C9.3215 12.7197 9.17348 12.3691 9.17256 11.9473L8.97256 11.9478ZM9.48106 13.1545L9.34148 13.2977C9.71797 13.6646 10.1797 13.8481 10.7146 13.8469L10.7142 13.6469L10.7138 13.4469C10.2804 13.4479 9.92008 13.303 9.62064 13.0112L9.48106 13.1545ZM10.7142 13.6469L10.7146 13.8469C11.2497 13.8458 11.7097 13.6599 12.082 13.2903L11.9411 13.1484L11.8002 13.0064C11.505 13.2995 11.147 13.446 10.7138 13.4469L10.7142 13.6469ZM18.5189 13.1484L18.6601 13.2901C19.0329 12.9188 19.2212 12.4629 19.2212 11.934H19.0212H18.8212C18.8212 12.3574 18.6747 12.7111 18.3778 13.0066L18.5189 13.1484ZM19.0212 11.934H19.2212C19.2212 11.4051 19.0301 10.9514 18.6519 10.5852L18.5127 10.7288L18.3736 10.8725C18.6734 11.1628 18.8212 11.5126 18.8212 11.934H19.0212ZM18.5127 10.7288L18.6521 10.5854C18.2748 10.2189 17.8134 10.0348 17.2796 10.0348V10.2348V10.4348C17.7119 10.4348 18.0726 10.5801 18.3734 10.8723L18.5127 10.7288ZM17.2796 10.2348V10.0348C16.744 10.0348 16.2837 10.2215 15.9113 10.5934L16.0526 10.7349L16.194 10.8764C16.4892 10.5816 16.8469 10.4348 17.2796 10.4348V10.2348ZM16.0526 10.7349L15.9113 10.5934C15.5396 10.9647 15.3519 11.42 15.3519 11.9478H15.5519H15.7519C15.7519 11.5253 15.898 11.172 16.194 10.8764L16.0526 10.7349ZM15.5519 11.9478H15.3519C15.3519 12.4766 15.5431 12.9307 15.9211 13.2979L16.0604 13.1545L16.1998 13.011C15.8998 12.7196 15.7519 12.3692 15.7519 11.9478H15.5519ZM16.0604 13.1545L15.9211 13.2979C16.2984 13.6645 16.76 13.8481 17.294 13.8469L17.2936 13.6469L17.2931 13.4469C16.8609 13.4479 16.5004 13.3031 16.1998 13.011L16.0604 13.1545ZM17.2936 13.6469L17.294 13.8469C17.8283 13.8458 18.2865 13.6597 18.6596 13.2905L18.5189 13.1484L18.3783 13.0062C18.0817 13.2997 17.725 13.446 17.2931 13.4469L17.2936 13.6469ZM7.96957 6.25835L8.12848 6.37979L12.184 1.07273L12.0251 0.951294L11.8662 0.829857L7.81065 6.13692L7.96957 6.25835ZM12.0251 0.951294L12.185 1.07145C12.4135 0.767319 12.6811 0.549536 12.9873 0.411811L12.9053 0.229412L12.8232 0.0470127C12.4493 0.21517 12.1301 0.478642 11.8652 0.831139L12.0251 0.951294ZM12.9053 0.229412L12.9873 0.411811C13.3006 0.270905 13.6359 0.2 13.9953 0.2V0V-0.2C13.5814 -0.2 13.19 -0.117964 12.8232 0.0470127L12.9053 0.229412ZM13.9953 0V0.2C14.3548 0.2 14.6901 0.270905 15.0034 0.411811L15.0854 0.229412L15.1675 0.0470127C14.8007 -0.117964 14.4092 -0.2 13.9953 -0.2V0ZM15.0854 0.229412L15.0034 0.411811C15.3097 0.54961 15.5773 0.767008 15.8059 1.07016L15.9656 0.949765L16.1253 0.829371C15.8603 0.477934 15.5412 0.215097 15.1675 0.0470127L15.0854 0.229412ZM15.9656 0.949765L15.8066 1.07118L19.8622 6.37977L20.0211 6.25835L20.18 6.13694L16.1245 0.82835L15.9656 0.949765ZM20.0211 6.25835L19.9576 6.44801L26.2089 8.54025L26.2724 8.35059L26.3358 8.16093L20.0846 6.06869L20.0211 6.25835ZM26.2724 8.35059L26.2094 8.54043C26.7264 8.71182 27.1147 8.99576 27.3859 9.38936L27.5506 9.27588L27.7153 9.16241C27.3893 8.68933 26.9255 8.35641 26.3353 8.16075L26.2724 8.35059ZM27.5506 9.27588L27.386 9.38944C27.6627 9.79065 27.8 10.2303 27.8 10.7135H28H28.2C28.2 10.1486 28.0377 9.62982 27.7152 9.16232L27.5506 9.27588ZM28 10.7135H27.8C27.8 10.9348 27.7668 11.1554 27.6998 11.3757L27.8911 11.4339L28.0825 11.4921C28.1606 11.2352 28.2 10.9755 28.2 10.7135H28ZM27.8911 11.4339L27.6998 11.3757C27.6346 11.5901 27.5277 11.7984 27.3764 12.0009L27.5366 12.1206L27.6968 12.2403C27.8731 12.0043 28.0026 11.7549 28.0825 11.4921L27.8911 11.4339ZM27.5366 12.1206L27.3766 12.0006L23.2791 17.4652L23.4391 17.5852L23.5991 17.7052L27.6966 12.2406L27.5366 12.1206ZM23.4391 17.5852L23.2391 17.5905L23.3946 23.4481L23.5946 23.4428L23.7945 23.4375L23.639 17.5799L23.4391 17.5852ZM23.5946 23.4428L23.3947 23.45C23.4186 24.1143 23.1984 24.6653 22.7309 25.1176L22.8699 25.2613L23.009 25.405C23.5595 24.8724 23.8224 24.211 23.7944 23.4356L23.5946 23.4428ZM22.8699 25.2613L22.7309 25.1176C22.2572 25.5759 21.7139 25.8 21.0925 25.8V26V26.2C21.823 26.2 22.4647 25.9317 23.009 25.405L22.8699 25.2613ZM21.0925 26L21.1166 25.8015L20.4106 25.7158L20.3865 25.9144L20.3625 26.1129L21.0684 26.1985L21.0925 26ZM20.3865 25.9144L20.4422 25.7223L14.051 23.8701L13.9953 24.0622L13.9397 24.2543L20.3309 26.1065L20.3865 25.9144ZM13.9953 24.0622L13.9397 23.8701L7.54846 25.7223L7.60413 25.9144L7.6598 26.1065L14.051 24.2543L13.9953 24.0622ZM7.60413 25.9144L7.5304 25.7284C7.42051 25.772 7.31933 25.7931 7.22584 25.7955L7.23092 25.9954L7.23601 26.1953C7.38303 26.1916 7.53066 26.1586 7.67786 26.1003L7.60413 25.9144ZM7.23092 25.9954L7.22588 25.7955C7.10594 25.7985 6.99672 25.8 6.89814 25.8V26V26.2C7.00068 26.2 7.11332 26.1984 7.23596 26.1953L7.23092 25.9954ZM6.89814 26V25.8C6.26228 25.8 5.71608 25.5751 5.2498 25.1184L5.10985 25.2613L4.9699 25.4042C5.50921 25.9324 6.15521 26.2 6.89814 26.2V26ZM5.10985 25.2613L5.2498 25.1184C4.78827 24.6664 4.57105 24.1158 4.59595 23.4518L4.39609 23.4444L4.19623 23.4369C4.16722 24.2106 4.42584 24.8713 4.9699 25.4042L5.10985 25.2613ZM4.39609 23.4444L4.59602 23.4496L4.75152 17.5522L4.55159 17.5469L4.35166 17.5417L4.19616 23.4391L4.39609 23.4444ZM4.55159 17.5469L4.71133 17.4266L0.62314 12.0002L0.463401 12.1206L0.303662 12.2409L4.39185 17.6673L4.55159 17.5469ZM0.463401 12.1206L0.623786 12.0011C0.471469 11.7966 0.36402 11.5863 0.298779 11.37L0.107298 11.4278L-0.0841842 11.4855C-0.00428776 11.7504 0.125666 12.002 0.303017 12.2401L0.463401 12.1206ZM0.107298 11.4278L0.299006 11.3708C0.232734 11.1478 0.2 10.9264 0.2 10.7059H0H-0.2C-0.2 10.9666 -0.161202 11.2264 -0.084411 11.4848L0.107298 11.4278ZM0 10.7059H0.2C0.2 10.2327 0.340352 9.79185 0.626261 9.37905L0.461846 9.26518L0.29743 9.1513C-0.0324552 9.6276 -0.2 10.1472 -0.2 10.7059H0ZM0.461846 9.26518L0.626319 9.37897C0.906736 8.97366 1.29928 8.68342 1.81351 8.50945L1.74942 8.32L1.68532 8.13055C1.09651 8.32975 0.630677 8.66963 0.297373 9.15138L0.461846 9.26518ZM1.74942 8.32L1.81234 8.50984L8.03249 6.4482L7.96957 6.25835L7.90664 6.06851L1.68649 8.13016L1.74942 8.32Z" fill="url(#paint1_linear_180_281)" mask="url(#path-1-inside-1_180_281)"/>
<defs>
<linearGradient id="paint0_linear_180_281" x1="14" y1="0" x2="14" y2="26" gradientUnits="userSpaceOnUse">
<stop stop-color="white"/>
<stop offset="1" stop-color="white" stop-opacity="0.3"/>
</linearGradient>
<linearGradient id="paint1_linear_180_281" x1="14" y1="0" x2="14" y2="26" gradientUnits="userSpaceOnUse">
<stop stop-color="white" stop-opacity="0.3"/>
<stop offset="1" stop-color="white" stop-opacity="0"/>
</linearGradient>
</defs>
</svg>
