<svg width="28" height="38" viewBox="0 0 28 38" fill="none" xmlns="http://www.w3.org/2000/svg">
<path d="M14 0.431641C16.2248 0.431775 18.2041 1.61726 19.9287 3.51074C21.6533 5.40432 23.1103 7.99243 24.2861 10.7598C26.6389 16.2971 27.8493 22.5102 27.8496 25.2158C27.8496 32.0231 21.6661 37.5682 14 37.5684C6.33376 37.5684 0.150018 32.0232 0.150391 25.2158C0.150467 22.1304 1.24203 15.9169 3.5332 10.4766C4.67848 7.75713 6.11938 5.2412 7.86523 3.40723C9.60997 1.57445 11.65 0.431641 14 0.431641ZM10.0264 10.3447C9.33443 10.3447 8.7005 10.4965 8.23438 10.749C7.77429 10.9983 7.44349 11.3676 7.44336 11.8125C7.44336 12.0188 7.51788 12.367 7.6416 12.7607C7.76693 13.1596 7.94858 13.6211 8.17285 14.0605C8.39654 14.4988 8.66632 14.9218 8.97168 15.2373C9.27493 15.5506 9.63139 15.7763 10.0264 15.7764C10.4217 15.7764 10.7793 15.5506 11.083 15.2373C11.3886 14.9219 11.6589 14.4987 11.8828 14.0605C12.1074 13.6212 12.2885 13.1595 12.4141 12.7607C12.538 12.367 12.6133 12.0189 12.6133 11.8125C12.6132 11.3675 12.281 10.9983 11.8203 10.749C11.3536 10.4966 10.7191 10.3447 10.0264 10.3447ZM17.9727 10.3447C17.2801 10.3448 16.6455 10.4966 16.1787 10.749C15.7179 10.9982 15.3868 11.3675 15.3867 11.8125C15.3867 12.0189 15.461 12.367 15.585 12.7607C15.7105 13.1595 15.8917 13.6212 16.1162 14.0605C16.3403 14.4988 16.6112 14.9218 16.917 15.2373C17.2206 15.5505 17.5774 15.7762 17.9727 15.7764C18.3675 15.7764 18.725 15.5506 19.0283 15.2373C19.3336 14.9219 19.6033 14.4987 19.8271 14.0605C20.0516 13.6212 20.2329 13.1595 20.3584 12.7607C20.4823 12.3671 20.5576 12.0189 20.5576 11.8125C20.5575 11.3675 20.226 10.9983 19.7656 10.749C19.2992 10.4965 18.6645 10.3447 17.9727 10.3447Z" fill="url(#paint0_linear_180_280)" stroke="url(#paint1_linear_180_280)" stroke-width="0.3"/>
<defs>
<linearGradient id="paint0_linear_180_280" x1="3.7796" y1="7.76876" x2="24.9512" y2="34.1723" gradientUnits="userSpaceOnUse">
<stop stop-color="white"/>
<stop offset="1" stop-color="white" stop-opacity="0.2"/>
</linearGradient>
<linearGradient id="paint1_linear_180_280" x1="27.717" y1="33.975" x2="2.80262" y2="3.7915" gradientUnits="userSpaceOnUse">
<stop stop-color="white" stop-opacity="0.3"/>
<stop offset="1" stop-color="white" stop-opacity="0"/>
</linearGradient>
</defs>
</svg>
